<svg width="963" height="353" viewBox="0 0 963 353" fill="none" xmlns="http://www.w3.org/2000/svg">
<g filter="url(#filter0_d_411_4)">
<path d="M284.228 169.905C284.228 230.38 235.203 279.405 174.728 279.405C114.253 279.405 65.2278 230.38 65.2278 169.905C65.2278 109.43 114.253 60.4053 174.728 60.4053C235.203 60.4053 284.228 109.43 284.228 169.905Z" fill="white"/>
</g>
<g filter="url(#filter1_d_411_4)">
<path d="M591.228 169.905C591.228 230.38 542.203 279.405 481.728 279.405C421.253 279.405 372.228 230.38 372.228 169.905C372.228 109.43 421.253 60.4053 481.728 60.4053C542.203 60.4053 591.228 109.43 591.228 169.905Z" fill="white"/>
</g>
<g filter="url(#filter2_d_411_4)">
<path d="M898.228 169.905C898.228 230.38 849.203 279.405 788.728 279.405C728.253 279.405 679.228 230.38 679.228 169.905C679.228 109.43 728.253 60.4053 788.728 60.4053C849.203 60.4053 898.228 109.43 898.228 169.905Z" fill="white"/>
</g>
<path d="M228.009 212.169C227.523 212.169 227.106 211.997 226.757 211.654C226.408 211.305 226.233 210.884 226.233 210.393C226.233 209.908 226.408 209.494 226.757 209.15C227.106 208.801 227.523 208.626 228.009 208.626C228.494 208.626 228.911 208.801 229.26 209.15C229.61 209.494 229.784 209.908 229.784 210.393C229.784 210.719 229.701 211.018 229.536 211.29C229.376 211.556 229.163 211.769 228.896 211.929C228.63 212.089 228.334 212.169 228.009 212.169Z" fill="#244464"/>
<path d="M222.688 193.818V212H220.034V193.818H222.688Z" fill="#244464"/>
<path d="M213.808 212V198.364H216.463V212H213.808ZM215.149 196.26C214.687 196.26 214.291 196.106 213.959 195.798C213.634 195.484 213.471 195.112 213.471 194.679C213.471 194.241 213.634 193.869 213.959 193.561C214.291 193.247 214.687 193.09 215.149 193.09C215.611 193.09 216.004 193.247 216.33 193.561C216.661 193.869 216.827 194.241 216.827 194.679C216.827 195.112 216.661 195.484 216.33 195.798C216.004 196.106 215.611 196.26 215.149 196.26Z" fill="#244464"/>
<path d="M205.368 212.275C204.048 212.275 202.912 211.977 201.959 211.379C201.012 210.775 200.284 209.944 199.775 208.884C199.266 207.825 199.011 206.611 199.011 205.244C199.011 203.859 199.272 202.637 199.793 201.578C200.313 200.512 201.047 199.681 201.994 199.083C202.941 198.485 204.057 198.186 205.341 198.186C206.377 198.186 207.3 198.379 208.111 198.763C208.922 199.142 209.576 199.675 210.073 200.361C210.576 201.048 210.875 201.85 210.97 202.767H208.386C208.244 202.128 207.919 201.578 207.41 201.116C206.907 200.654 206.232 200.423 205.386 200.423C204.646 200.423 203.998 200.619 203.441 201.009C202.891 201.394 202.462 201.945 202.154 202.661C201.846 203.371 201.692 204.211 201.692 205.182C201.692 206.176 201.843 207.035 202.145 207.757C202.447 208.479 202.873 209.038 203.424 209.435C203.98 209.831 204.634 210.029 205.386 210.029C205.889 210.029 206.344 209.938 206.753 209.754C207.167 209.565 207.513 209.295 207.791 208.946C208.076 208.597 208.274 208.177 208.386 207.686H210.97C210.875 208.567 210.588 209.355 210.109 210.047C209.629 210.74 208.987 211.284 208.182 211.681C207.383 212.077 206.445 212.275 205.368 212.275Z" fill="#244464"/>
<path d="M189.359 212.302C188.495 212.302 187.713 212.142 187.015 211.823C186.317 211.497 185.763 211.027 185.355 210.411C184.952 209.796 184.751 209.041 184.751 208.147C184.751 207.378 184.899 206.744 185.195 206.247C185.491 205.75 185.891 205.357 186.394 205.067C186.897 204.777 187.459 204.558 188.08 204.41C188.702 204.262 189.335 204.149 189.98 204.072C190.797 203.978 191.46 203.901 191.969 203.841C192.478 203.776 192.848 203.673 193.079 203.531C193.309 203.389 193.425 203.158 193.425 202.838V202.776C193.425 202.001 193.206 201.4 192.768 200.974C192.336 200.548 191.691 200.335 190.833 200.335C189.939 200.335 189.235 200.533 188.72 200.93C188.211 201.32 187.858 201.755 187.663 202.235L185.168 201.666C185.464 200.838 185.896 200.169 186.465 199.66C187.039 199.145 187.699 198.772 188.444 198.541C189.19 198.305 189.974 198.186 190.797 198.186C191.342 198.186 191.919 198.251 192.528 198.382C193.144 198.506 193.718 198.737 194.251 199.074C194.789 199.411 195.23 199.894 195.573 200.521C195.917 201.143 196.088 201.95 196.088 202.945V212H193.496V210.136H193.389C193.218 210.479 192.96 210.816 192.617 211.148C192.274 211.479 191.833 211.755 191.294 211.974C190.756 212.193 190.11 212.302 189.359 212.302ZM189.936 210.171C190.67 210.171 191.297 210.026 191.818 209.736C192.345 209.446 192.744 209.068 193.016 208.6C193.295 208.126 193.434 207.62 193.434 207.082V205.324C193.339 205.419 193.156 205.508 192.883 205.59C192.617 205.667 192.312 205.735 191.969 205.795C191.626 205.848 191.291 205.898 190.966 205.945C190.64 205.987 190.368 206.022 190.149 206.052C189.634 206.117 189.164 206.227 188.737 206.381C188.317 206.534 187.98 206.756 187.725 207.046C187.477 207.33 187.352 207.709 187.352 208.183C187.352 208.84 187.595 209.337 188.08 209.674C188.566 210.006 189.184 210.171 189.936 210.171ZM189.838 196.544L191.916 192.451H194.712L191.96 196.544H189.838Z" fill="#244464"/>
<path d="M183.067 198.364V200.494H175.361V198.364H183.067ZM177.474 212V196.784C177.474 195.931 177.66 195.224 178.033 194.662C178.406 194.094 178.9 193.67 179.516 193.392C180.131 193.108 180.8 192.966 181.522 192.966C182.055 192.966 182.51 193.01 182.889 193.099C183.268 193.182 183.549 193.259 183.733 193.33L183.111 195.479C182.987 195.443 182.827 195.402 182.632 195.354C182.436 195.301 182.2 195.274 181.921 195.274C181.276 195.274 180.815 195.434 180.536 195.754C180.264 196.073 180.128 196.535 180.128 197.139V212H177.474Z" fill="#244464"/>
<path d="M166.776 201.693L164.37 202.119C164.269 201.811 164.11 201.518 163.891 201.24C163.677 200.962 163.387 200.734 163.021 200.557C162.654 200.379 162.195 200.29 161.644 200.29C160.893 200.29 160.265 200.459 159.762 200.796C159.259 201.128 159.008 201.557 159.008 202.084C159.008 202.539 159.176 202.906 159.514 203.185C159.851 203.463 160.396 203.691 161.147 203.868L163.313 204.365C164.568 204.655 165.503 205.102 166.119 205.706C166.734 206.31 167.042 207.094 167.042 208.058C167.042 208.875 166.805 209.603 166.332 210.242C165.864 210.876 165.21 211.373 164.37 211.734C163.535 212.095 162.568 212.275 161.467 212.275C159.94 212.275 158.694 211.95 157.729 211.299C156.765 210.642 156.173 209.71 155.954 208.502L158.519 208.112C158.679 208.78 159.008 209.287 159.505 209.63C160.002 209.967 160.65 210.136 161.449 210.136C162.319 210.136 163.015 209.955 163.535 209.594C164.056 209.227 164.317 208.78 164.317 208.254C164.317 207.828 164.157 207.47 163.837 207.18C163.524 206.89 163.041 206.671 162.39 206.523L160.082 206.017C158.809 205.727 157.868 205.265 157.259 204.632C156.655 203.998 156.353 203.196 156.353 202.226C156.353 201.421 156.578 200.716 157.028 200.113C157.478 199.509 158.099 199.039 158.892 198.701C159.685 198.358 160.594 198.186 161.618 198.186C163.092 198.186 164.252 198.506 165.098 199.145C165.944 199.778 166.504 200.628 166.776 201.693Z" fill="#244464"/>
<path d="M146.292 212.302C145.428 212.302 144.647 212.142 143.949 211.823C143.25 211.497 142.697 211.027 142.289 210.411C141.886 209.796 141.685 209.041 141.685 208.147C141.685 207.378 141.833 206.744 142.129 206.247C142.425 205.75 142.824 205.357 143.327 205.067C143.83 204.777 144.393 204.558 145.014 204.41C145.635 204.262 146.269 204.149 146.914 204.072C147.731 203.978 148.394 203.901 148.903 203.841C149.411 203.776 149.781 203.673 150.012 203.531C150.243 203.389 150.358 203.158 150.358 202.838V202.776C150.358 202.001 150.139 201.4 149.702 200.974C149.269 200.548 148.624 200.335 147.766 200.335C146.872 200.335 146.168 200.533 145.653 200.93C145.144 201.32 144.792 201.755 144.597 202.235L142.102 201.666C142.398 200.838 142.83 200.169 143.398 199.66C143.972 199.145 144.632 198.772 145.378 198.541C146.124 198.305 146.908 198.186 147.731 198.186C148.275 198.186 148.852 198.251 149.462 198.382C150.077 198.506 150.651 198.737 151.184 199.074C151.723 199.411 152.164 199.894 152.507 200.521C152.85 201.143 153.022 201.95 153.022 202.945V212H150.429V210.136H150.323C150.151 210.479 149.894 210.816 149.551 211.148C149.207 211.479 148.766 211.755 148.228 211.974C147.689 212.193 147.044 212.302 146.292 212.302ZM146.869 210.171C147.603 210.171 148.231 210.026 148.752 209.736C149.278 209.446 149.678 209.068 149.95 208.6C150.228 208.126 150.367 207.62 150.367 207.082V205.324C150.273 205.419 150.089 205.508 149.817 205.59C149.551 205.667 149.246 205.735 148.903 205.795C148.559 205.848 148.225 205.898 147.899 205.945C147.574 205.987 147.302 206.022 147.083 206.052C146.568 206.117 146.097 206.227 145.671 206.381C145.251 206.534 144.913 206.756 144.659 207.046C144.41 207.33 144.286 207.709 144.286 208.183C144.286 208.84 144.529 209.337 145.014 209.674C145.499 210.006 146.118 210.171 146.869 210.171ZM146.772 196.544L148.849 192.451H151.646L148.894 196.544H146.772Z" fill="#244464"/>
<path d="M120.229 212V198.364H122.777V200.583H122.946C123.23 199.832 123.695 199.246 124.34 198.825C124.985 198.399 125.757 198.186 126.657 198.186C127.568 198.186 128.332 198.399 128.947 198.825C129.569 199.252 130.028 199.838 130.323 200.583H130.466C130.791 199.855 131.309 199.275 132.019 198.843C132.729 198.405 133.576 198.186 134.558 198.186C135.795 198.186 136.804 198.574 137.586 199.349C138.373 200.125 138.766 201.294 138.766 202.856V212H136.112V203.105C136.112 202.181 135.86 201.513 135.357 201.098C134.854 200.684 134.253 200.477 133.555 200.477C132.691 200.477 132.019 200.743 131.54 201.276C131.06 201.803 130.821 202.48 130.821 203.309V212H128.175V202.936C128.175 202.196 127.944 201.601 127.483 201.151C127.021 200.702 126.42 200.477 125.68 200.477C125.177 200.477 124.713 200.61 124.287 200.876C123.866 201.137 123.526 201.501 123.266 201.968C123.011 202.436 122.884 202.977 122.884 203.593V212H120.229Z" fill="#244464"/>
<path d="M228.462 173.904V182H225.808V168.364H228.356V170.583H228.525C228.838 169.861 229.329 169.281 229.998 168.843C230.673 168.405 231.522 168.186 232.546 168.186C233.475 168.186 234.289 168.382 234.988 168.772C235.686 169.157 236.228 169.731 236.612 170.495C236.997 171.258 237.189 172.202 237.189 173.327V182H234.535V173.646C234.535 172.658 234.277 171.885 233.762 171.329C233.248 170.767 232.54 170.486 231.641 170.486C231.025 170.486 230.478 170.619 229.998 170.885C229.525 171.151 229.149 171.542 228.871 172.057C228.599 172.566 228.462 173.182 228.462 173.904Z" fill="#244464"/>
<path d="M216.488 182.275C215.21 182.275 214.094 181.982 213.141 181.396C212.189 180.811 211.449 179.991 210.922 178.937C210.395 177.884 210.132 176.653 210.132 175.244C210.132 173.83 210.395 172.593 210.922 171.533C211.449 170.474 212.189 169.651 213.141 169.065C214.094 168.479 215.21 168.186 216.488 168.186C217.767 168.186 218.882 168.479 219.835 169.065C220.788 169.651 221.528 170.474 222.055 171.533C222.582 172.593 222.845 173.83 222.845 175.244C222.845 176.653 222.582 177.884 222.055 178.937C221.528 179.991 220.788 180.811 219.835 181.396C218.882 181.982 217.767 182.275 216.488 182.275ZM216.497 180.047C217.326 180.047 218.012 179.828 218.557 179.39C219.101 178.952 219.504 178.369 219.764 177.641C220.031 176.913 220.164 176.111 220.164 175.235C220.164 174.365 220.031 173.566 219.764 172.838C219.504 172.104 219.101 171.515 218.557 171.072C218.012 170.628 217.326 170.406 216.497 170.406C215.663 170.406 214.97 170.628 214.42 171.072C213.875 171.515 213.47 172.104 213.204 172.838C212.943 173.566 212.813 174.365 212.813 175.235C212.813 176.111 212.943 176.913 213.204 177.641C213.47 178.369 213.875 178.952 214.42 179.39C214.97 179.828 215.663 180.047 216.497 180.047ZM215.396 166.544L217.474 162.451H220.27L217.518 166.544H215.396Z" fill="#244464"/>
<path d="M204.519 182V168.364H207.173V182H204.519ZM205.859 166.26C205.398 166.26 205.001 166.106 204.67 165.798C204.344 165.484 204.182 165.112 204.182 164.679C204.182 164.241 204.344 163.869 204.67 163.561C205.001 163.247 205.398 163.09 205.859 163.09C206.321 163.09 206.715 163.247 207.04 163.561C207.372 163.869 207.537 164.241 207.537 164.679C207.537 165.112 207.372 165.484 207.04 165.798C206.715 166.106 206.321 166.26 205.859 166.26Z" fill="#244464"/>
<path d="M196.078 182.275C194.758 182.275 193.622 181.977 192.669 181.379C191.722 180.775 190.994 179.943 190.485 178.884C189.976 177.825 189.722 176.611 189.722 175.244C189.722 173.859 189.982 172.637 190.503 171.578C191.024 170.512 191.758 169.681 192.705 169.083C193.652 168.485 194.767 168.186 196.052 168.186C197.087 168.186 198.011 168.379 198.822 168.763C199.632 169.142 200.286 169.675 200.784 170.361C201.287 171.048 201.585 171.85 201.68 172.767H199.097C198.955 172.128 198.629 171.578 198.12 171.116C197.617 170.654 196.942 170.423 196.096 170.423C195.356 170.423 194.708 170.619 194.152 171.009C193.601 171.394 193.172 171.945 192.864 172.661C192.557 173.371 192.403 174.211 192.403 175.182C192.403 176.176 192.554 177.035 192.856 177.757C193.157 178.479 193.584 179.038 194.134 179.435C194.69 179.831 195.344 180.029 196.096 180.029C196.599 180.029 197.055 179.938 197.463 179.754C197.878 179.565 198.224 179.295 198.502 178.946C198.786 178.597 198.984 178.177 199.097 177.686H201.68C201.585 178.567 201.298 179.355 200.819 180.047C200.34 180.74 199.697 181.284 198.893 181.681C198.094 182.077 197.155 182.275 196.078 182.275Z" fill="#244464"/>
<path d="M180.069 182.302C179.205 182.302 178.424 182.142 177.726 181.823C177.027 181.497 176.474 181.027 176.065 180.411C175.663 179.796 175.462 179.041 175.462 178.147C175.462 177.378 175.61 176.745 175.906 176.247C176.201 175.75 176.601 175.357 177.104 175.067C177.607 174.777 178.169 174.558 178.791 174.41C179.412 174.262 180.046 174.149 180.691 174.072C181.507 173.978 182.17 173.901 182.679 173.841C183.188 173.776 183.558 173.673 183.789 173.531C184.02 173.389 184.135 173.158 184.135 172.838V172.776C184.135 172.001 183.916 171.4 183.478 170.974C183.046 170.548 182.401 170.335 181.543 170.335C180.649 170.335 179.945 170.533 179.43 170.93C178.921 171.32 178.569 171.755 178.374 172.235L175.879 171.666C176.175 170.838 176.607 170.169 177.175 169.66C177.749 169.145 178.409 168.772 179.155 168.541C179.901 168.305 180.685 168.186 181.507 168.186C182.052 168.186 182.629 168.251 183.239 168.382C183.854 168.506 184.428 168.737 184.961 169.074C185.5 169.411 185.94 169.894 186.284 170.521C186.627 171.143 186.799 171.95 186.799 172.945V182H184.206V180.136H184.1C183.928 180.479 183.671 180.816 183.327 181.148C182.984 181.479 182.543 181.755 182.005 181.974C181.466 182.193 180.821 182.302 180.069 182.302ZM180.646 180.171C181.38 180.171 182.008 180.026 182.528 179.736C183.055 179.446 183.455 179.068 183.727 178.6C184.005 178.126 184.144 177.62 184.144 177.082V175.324C184.05 175.419 183.866 175.508 183.594 175.59C183.327 175.667 183.023 175.735 182.679 175.795C182.336 175.848 182.002 175.898 181.676 175.946C181.351 175.987 181.078 176.022 180.859 176.052C180.344 176.117 179.874 176.227 179.448 176.381C179.028 176.534 178.69 176.756 178.436 177.046C178.187 177.33 178.063 177.709 178.063 178.183C178.063 178.84 178.306 179.337 178.791 179.674C179.276 180.006 179.895 180.171 180.646 180.171Z" fill="#244464"/>
<path d="M166.628 182V168.364H169.194V170.53H169.336C169.585 169.796 170.023 169.219 170.65 168.799C171.283 168.373 171.999 168.16 172.798 168.16C172.964 168.16 173.159 168.166 173.384 168.177C173.615 168.189 173.796 168.204 173.926 168.222V170.761C173.819 170.731 173.63 170.699 173.358 170.663C173.085 170.622 172.813 170.601 172.541 170.601C171.914 170.601 171.354 170.734 170.863 171.001C170.378 171.261 169.993 171.625 169.709 172.093C169.425 172.554 169.283 173.081 169.283 173.673V182H166.628Z" fill="#244464"/>
<path d="M156.916 187.398C155.833 187.398 154.901 187.256 154.119 186.972C153.344 186.688 152.711 186.312 152.22 185.844C151.728 185.377 151.361 184.865 151.119 184.308L153.4 183.367C153.56 183.628 153.773 183.903 154.039 184.193C154.312 184.489 154.679 184.74 155.14 184.948C155.608 185.155 156.209 185.258 156.943 185.258C157.949 185.258 158.78 185.013 159.437 184.522C160.094 184.036 160.423 183.261 160.423 182.196V179.514H160.254C160.094 179.804 159.863 180.127 159.562 180.482C159.266 180.837 158.857 181.145 158.336 181.405C157.816 181.666 157.138 181.796 156.303 181.796C155.226 181.796 154.256 181.544 153.391 181.041C152.533 180.532 151.853 179.784 151.349 178.795C150.852 177.801 150.604 176.579 150.604 175.129C150.604 173.679 150.849 172.436 151.341 171.4C151.838 170.364 152.518 169.571 153.383 169.021C154.247 168.464 155.226 168.186 156.321 168.186C157.167 168.186 157.851 168.328 158.372 168.612C158.893 168.891 159.298 169.216 159.588 169.589C159.884 169.962 160.112 170.29 160.272 170.574H160.467V168.364H163.068V182.302C163.068 183.474 162.796 184.436 162.251 185.187C161.707 185.939 160.97 186.495 160.041 186.856C159.118 187.217 158.076 187.398 156.916 187.398ZM156.889 179.594C157.653 179.594 158.298 179.417 158.825 179.062C159.357 178.701 159.76 178.186 160.032 177.517C160.31 176.842 160.449 176.034 160.449 175.093C160.449 174.176 160.313 173.368 160.041 172.67C159.769 171.971 159.369 171.427 158.842 171.036C158.316 170.64 157.665 170.441 156.889 170.441C156.09 170.441 155.424 170.648 154.892 171.063C154.359 171.471 153.957 172.027 153.684 172.732C153.418 173.436 153.285 174.223 153.285 175.093C153.285 175.987 153.421 176.771 153.693 177.446C153.966 178.121 154.368 178.647 154.901 179.026C155.439 179.405 156.102 179.594 156.889 179.594Z" fill="#244464"/>
<path d="M142.403 182.275C141.059 182.275 139.902 181.988 138.932 181.414C137.967 180.834 137.221 180.02 136.694 178.973C136.174 177.919 135.913 176.685 135.913 175.271C135.913 173.874 136.174 172.643 136.694 171.578C137.221 170.512 137.955 169.681 138.896 169.083C139.843 168.485 140.95 168.186 142.216 168.186C142.986 168.186 143.732 168.314 144.454 168.568C145.176 168.823 145.824 169.222 146.398 169.767C146.972 170.311 147.425 171.018 147.756 171.888C148.088 172.752 148.253 173.803 148.253 175.04V175.981H137.413V173.992H145.652C145.652 173.294 145.51 172.676 145.226 172.137C144.942 171.592 144.542 171.163 144.027 170.85C143.518 170.536 142.921 170.379 142.234 170.379C141.488 170.379 140.837 170.563 140.281 170.93C139.731 171.291 139.304 171.764 139.003 172.35C138.707 172.93 138.559 173.56 138.559 174.241V175.795C138.559 176.706 138.718 177.481 139.038 178.121C139.364 178.76 139.816 179.248 140.396 179.585C140.976 179.917 141.654 180.083 142.429 180.083C142.932 180.083 143.391 180.012 143.805 179.87C144.22 179.722 144.578 179.503 144.88 179.213C145.182 178.923 145.412 178.564 145.572 178.138L148.085 178.591C147.883 179.331 147.522 179.979 147.002 180.535C146.487 181.086 145.839 181.515 145.057 181.823C144.282 182.124 143.397 182.275 142.403 182.275Z" fill="#244464"/>
<path d="M133.736 168.364V170.494H126.287V168.364H133.736ZM128.285 165.097H130.939V177.996C130.939 178.511 131.016 178.899 131.17 179.159C131.324 179.414 131.522 179.588 131.765 179.683C132.014 179.772 132.283 179.816 132.573 179.816C132.786 179.816 132.972 179.801 133.132 179.772C133.292 179.742 133.416 179.718 133.505 179.701L133.984 181.894C133.831 181.953 133.612 182.012 133.327 182.071C133.043 182.136 132.688 182.172 132.262 182.178C131.564 182.189 130.913 182.065 130.309 181.805C129.705 181.544 129.217 181.142 128.844 180.597C128.471 180.053 128.285 179.369 128.285 178.547V165.097Z" fill="#244464"/>
<path d="M115.084 173.904V182H112.429V168.364H114.977V170.583H115.146C115.459 169.861 115.951 169.281 116.619 168.843C117.294 168.405 118.143 168.186 119.167 168.186C120.097 168.186 120.91 168.382 121.609 168.772C122.307 169.157 122.849 169.731 123.233 170.495C123.618 171.258 123.81 172.202 123.81 173.327V182H121.156V173.646C121.156 172.658 120.899 171.885 120.384 171.329C119.869 170.767 119.161 170.486 118.262 170.486C117.646 170.486 117.099 170.619 116.619 170.885C116.146 171.151 115.77 171.542 115.492 172.057C115.22 172.566 115.084 173.182 115.084 173.904Z" fill="#244464"/>
<path d="M106.203 182V168.364H108.858V182H106.203ZM107.544 166.26C107.082 166.26 106.686 166.106 106.354 165.798C106.029 165.484 105.866 165.112 105.866 164.679C105.866 164.241 106.029 163.869 106.354 163.561C106.686 163.247 107.082 163.09 107.544 163.09C108.006 163.09 108.399 163.247 108.725 163.561C109.056 163.869 109.222 164.241 109.222 164.679C109.222 165.112 109.056 165.484 108.725 165.798C108.399 166.106 108.006 166.26 107.544 166.26Z" fill="#244464"/>
<path d="M231.087 152.275C229.743 152.275 228.586 151.988 227.616 151.414C226.651 150.834 225.905 150.02 225.378 148.973C224.858 147.919 224.597 146.685 224.597 145.271C224.597 143.874 224.858 142.643 225.378 141.578C225.905 140.512 226.639 139.681 227.58 139.083C228.527 138.485 229.634 138.186 230.9 138.186C231.67 138.186 232.416 138.314 233.138 138.568C233.86 138.823 234.508 139.222 235.082 139.767C235.656 140.311 236.109 141.018 236.44 141.888C236.772 142.752 236.937 143.803 236.937 145.04V145.981H226.098V143.992H234.336C234.336 143.294 234.194 142.676 233.91 142.137C233.626 141.592 233.226 141.163 232.712 140.85C232.203 140.536 231.605 140.379 230.918 140.379C230.173 140.379 229.521 140.563 228.965 140.93C228.415 141.291 227.989 141.764 227.687 142.35C227.391 142.93 227.243 143.56 227.243 144.241V145.795C227.243 146.706 227.403 147.481 227.722 148.121C228.048 148.76 228.501 149.248 229.081 149.585C229.661 149.917 230.338 150.083 231.114 150.083C231.617 150.083 232.075 150.012 232.49 149.87C232.904 149.722 233.262 149.503 233.564 149.213C233.866 148.923 234.097 148.564 234.256 148.138L236.769 148.591C236.568 149.331 236.206 149.979 235.686 150.535C235.171 151.086 234.523 151.515 233.741 151.823C232.966 152.124 232.081 152.275 231.087 152.275Z" fill="#244464"/>
<path d="M214.665 152.267C213.564 152.267 212.582 151.985 211.718 151.423C210.86 150.855 210.185 150.047 209.694 148.999C209.208 147.946 208.966 146.682 208.966 145.209C208.966 143.735 209.211 142.474 209.702 141.427C210.2 140.379 210.88 139.577 211.744 139.021C212.608 138.464 213.588 138.186 214.683 138.186C215.529 138.186 216.21 138.328 216.725 138.612C217.246 138.891 217.648 139.216 217.932 139.589C218.222 139.962 218.447 140.29 218.607 140.574H218.767V133.818H221.421V152H218.829V149.878H218.607C218.447 150.168 218.216 150.5 217.914 150.873C217.619 151.246 217.21 151.571 216.689 151.849C216.168 152.127 215.494 152.267 214.665 152.267ZM215.251 150.003C216.015 150.003 216.66 149.801 217.186 149.399C217.719 148.991 218.122 148.425 218.394 147.703C218.672 146.981 218.811 146.141 218.811 145.182C218.811 144.235 218.675 143.406 218.403 142.696C218.13 141.986 217.731 141.433 217.204 141.036C216.677 140.64 216.026 140.441 215.251 140.441C214.452 140.441 213.786 140.648 213.254 141.063C212.721 141.477 212.318 142.042 212.046 142.758C211.78 143.474 211.647 144.282 211.647 145.182C211.647 146.093 211.783 146.913 212.055 147.641C212.327 148.369 212.73 148.946 213.262 149.372C213.801 149.793 214.464 150.003 215.251 150.003Z" fill="#244464"/>
<path d="M192.679 152.302C191.815 152.302 191.034 152.142 190.335 151.823C189.637 151.497 189.084 151.027 188.675 150.411C188.273 149.796 188.072 149.041 188.072 148.147C188.072 147.378 188.219 146.745 188.515 146.247C188.811 145.75 189.211 145.357 189.714 145.067C190.217 144.777 190.779 144.558 191.401 144.41C192.022 144.262 192.655 144.149 193.301 144.072C194.117 143.978 194.78 143.901 195.289 143.841C195.798 143.776 196.168 143.673 196.399 143.531C196.63 143.389 196.745 143.158 196.745 142.838V142.776C196.745 142.001 196.526 141.4 196.088 140.974C195.656 140.548 195.011 140.335 194.153 140.335C193.259 140.335 192.555 140.533 192.04 140.93C191.531 141.32 191.179 141.755 190.983 142.235L188.489 141.666C188.785 140.838 189.217 140.169 189.785 139.66C190.359 139.145 191.019 138.772 191.765 138.541C192.51 138.305 193.295 138.186 194.117 138.186C194.662 138.186 195.239 138.251 195.849 138.382C196.464 138.506 197.038 138.737 197.571 139.074C198.109 139.411 198.55 139.894 198.894 140.521C199.237 141.143 199.409 141.95 199.409 142.945V152H196.816V150.136H196.71C196.538 150.479 196.281 150.816 195.937 151.148C195.594 151.479 195.153 151.755 194.615 151.974C194.076 152.193 193.431 152.302 192.679 152.302ZM193.256 150.171C193.99 150.171 194.617 150.026 195.138 149.736C195.665 149.446 196.065 149.068 196.337 148.6C196.615 148.127 196.754 147.62 196.754 147.082V145.324C196.659 145.419 196.476 145.508 196.204 145.59C195.937 145.667 195.632 145.735 195.289 145.795C194.946 145.848 194.612 145.898 194.286 145.946C193.961 145.987 193.688 146.022 193.469 146.052C192.954 146.117 192.484 146.227 192.058 146.381C191.637 146.534 191.3 146.756 191.046 147.046C190.797 147.33 190.673 147.709 190.673 148.183C190.673 148.84 190.915 149.337 191.401 149.674C191.886 150.006 192.505 150.171 193.256 150.171Z" fill="#244464"/>
<path d="M166.616 152V138.364H169.164V140.583H169.333C169.617 139.832 170.081 139.246 170.726 138.825C171.372 138.399 172.144 138.186 173.044 138.186C173.955 138.186 174.719 138.399 175.334 138.825C175.956 139.252 176.414 139.838 176.71 140.583H176.852C177.178 139.855 177.696 139.275 178.406 138.843C179.116 138.405 179.962 138.186 180.945 138.186C182.182 138.186 183.191 138.574 183.972 139.349C184.759 140.125 185.153 141.294 185.153 142.856V152H182.498V143.105C182.498 142.181 182.247 141.513 181.744 141.098C181.241 140.684 180.64 140.477 179.942 140.477C179.078 140.477 178.406 140.743 177.926 141.276C177.447 141.803 177.207 142.48 177.207 143.309V152H174.562V142.936C174.562 142.196 174.331 141.601 173.869 141.151C173.408 140.702 172.807 140.477 172.067 140.477C171.564 140.477 171.099 140.61 170.673 140.876C170.253 141.137 169.913 141.501 169.652 141.968C169.398 142.436 169.271 142.977 169.271 143.593V152H166.616Z" fill="#244464"/>
<path d="M157.82 152.275C156.477 152.275 155.32 151.988 154.349 151.414C153.384 150.834 152.639 150.02 152.112 148.973C151.591 147.919 151.331 146.685 151.331 145.271C151.331 143.874 151.591 142.643 152.112 141.578C152.639 140.512 153.372 139.681 154.314 139.083C155.26 138.485 156.367 138.186 157.634 138.186C158.403 138.186 159.149 138.314 159.871 138.568C160.593 138.823 161.241 139.222 161.815 139.767C162.389 140.311 162.842 141.018 163.174 141.888C163.505 142.752 163.671 143.803 163.671 145.04V145.981H152.831V143.992H161.07C161.07 143.294 160.928 142.676 160.643 142.137C160.359 141.592 159.96 141.163 159.445 140.85C158.936 140.536 158.338 140.379 157.652 140.379C156.906 140.379 156.255 140.563 155.698 140.93C155.148 141.291 154.722 141.764 154.42 142.35C154.124 142.93 153.976 143.56 153.976 144.241V145.795C153.976 146.706 154.136 147.481 154.456 148.121C154.781 148.76 155.234 149.248 155.814 149.585C156.394 149.917 157.072 150.083 157.847 150.083C158.35 150.083 158.809 150.012 159.223 149.87C159.637 149.722 159.995 149.503 160.297 149.213C160.599 148.923 160.83 148.564 160.99 148.138L163.502 148.591C163.301 149.331 162.94 149.979 162.419 150.535C161.904 151.086 161.256 151.515 160.475 151.823C159.699 152.124 158.815 152.275 157.82 152.275Z" fill="#244464"/>
<path d="M149.153 138.364V140.494H141.705V138.364H149.153ZM143.702 135.097H146.357V147.996C146.357 148.511 146.434 148.899 146.588 149.159C146.742 149.414 146.94 149.588 147.182 149.683C147.431 149.772 147.7 149.816 147.99 149.816C148.203 149.816 148.39 149.801 148.55 149.772C148.709 149.742 148.834 149.718 148.923 149.701L149.402 151.894C149.248 151.953 149.029 152.012 148.745 152.071C148.461 152.136 148.106 152.172 147.68 152.178C146.981 152.189 146.33 152.065 145.726 151.805C145.123 151.544 144.635 151.142 144.262 150.597C143.889 150.053 143.702 149.369 143.702 148.547V135.097Z" fill="#244464"/>
<path d="M139.603 141.693L137.197 142.119C137.096 141.811 136.937 141.518 136.718 141.24C136.505 140.962 136.215 140.734 135.848 140.557C135.481 140.379 135.022 140.29 134.472 140.29C133.72 140.29 133.093 140.459 132.589 140.796C132.086 141.128 131.835 141.557 131.835 142.084C131.835 142.539 132.004 142.906 132.341 143.185C132.678 143.463 133.223 143.691 133.974 143.868L136.141 144.365C137.395 144.655 138.33 145.102 138.946 145.706C139.562 146.31 139.869 147.094 139.869 148.058C139.869 148.875 139.633 149.603 139.159 150.242C138.692 150.876 138.038 151.373 137.197 151.734C136.363 152.095 135.395 152.275 134.294 152.275C132.767 152.275 131.521 151.95 130.556 151.299C129.592 150.642 129 149.71 128.781 148.502L131.347 148.112C131.506 148.781 131.835 149.287 132.332 149.63C132.829 149.967 133.477 150.136 134.276 150.136C135.146 150.136 135.842 149.955 136.363 149.594C136.883 149.227 137.144 148.781 137.144 148.254C137.144 147.828 136.984 147.47 136.664 147.18C136.351 146.89 135.868 146.671 135.217 146.523L132.909 146.017C131.637 145.727 130.696 145.265 130.086 144.632C129.482 143.998 129.18 143.196 129.18 142.226C129.18 141.421 129.405 140.716 129.855 140.113C130.305 139.509 130.926 139.039 131.719 138.701C132.513 138.358 133.421 138.186 134.445 138.186C135.919 138.186 137.079 138.506 137.925 139.145C138.771 139.778 139.331 140.628 139.603 141.693Z" fill="#244464"/>
<path d="M123.159 152V138.364H125.813V152H123.159ZM124.5 136.26C124.038 136.26 123.641 136.106 123.31 135.798C122.984 135.484 122.822 135.112 122.822 134.679C122.822 134.241 122.984 133.869 123.31 133.561C123.641 133.247 124.038 133.09 124.5 133.09C124.961 133.09 125.355 133.247 125.68 133.561C126.012 133.869 126.177 134.241 126.177 134.679C126.177 135.112 126.012 135.484 125.68 135.798C125.355 136.106 124.961 136.26 124.5 136.26Z" fill="#244464"/>
<path d="M117.2 138.595C117.105 137.754 116.714 137.103 116.028 136.642C115.341 136.174 114.477 135.94 113.436 135.94C112.69 135.94 112.045 136.059 111.5 136.295C110.956 136.526 110.532 136.846 110.231 137.254C109.935 137.657 109.787 138.115 109.787 138.63C109.787 139.062 109.887 139.435 110.089 139.749C110.296 140.062 110.565 140.326 110.896 140.539C111.234 140.746 111.595 140.921 111.98 141.063C112.364 141.199 112.734 141.311 113.089 141.4L114.865 141.862C115.445 142.004 116.04 142.196 116.649 142.439C117.259 142.681 117.824 143.001 118.345 143.398C118.866 143.794 119.286 144.285 119.606 144.871C119.931 145.457 120.094 146.159 120.094 146.975C120.094 148.005 119.828 148.92 119.295 149.719C118.768 150.518 118.002 151.148 116.996 151.61C115.995 152.071 114.785 152.302 113.365 152.302C112.003 152.302 110.825 152.086 109.831 151.654C108.837 151.222 108.059 150.609 107.496 149.816C106.934 149.017 106.623 148.07 106.564 146.975H109.316C109.369 147.632 109.583 148.18 109.955 148.618C110.334 149.05 110.817 149.372 111.403 149.585C111.994 149.793 112.642 149.896 113.347 149.896C114.122 149.896 114.812 149.775 115.415 149.532C116.025 149.284 116.504 148.94 116.854 148.502C117.203 148.058 117.377 147.541 117.377 146.949C117.377 146.41 117.223 145.969 116.916 145.626C116.614 145.283 116.202 144.999 115.682 144.774C115.167 144.549 114.584 144.35 113.933 144.179L111.784 143.593C110.328 143.196 109.174 142.613 108.322 141.844C107.476 141.075 107.052 140.057 107.052 138.79C107.052 137.742 107.336 136.828 107.905 136.047C108.473 135.265 109.242 134.659 110.213 134.227C111.184 133.789 112.278 133.57 113.498 133.57C114.729 133.57 115.815 133.786 116.756 134.218C117.703 134.65 118.449 135.245 118.993 136.002C119.538 136.754 119.822 137.618 119.845 138.595H117.2Z" fill="#244464"/>
<path d="M835.07 193.249C833.958 193.249 832.957 193.035 832.069 192.609C831.188 192.177 830.483 191.585 829.957 190.834C829.43 190.082 829.149 189.224 829.113 188.259H831.777C831.842 189.04 832.188 189.683 832.815 190.186C833.443 190.689 834.194 190.94 835.07 190.94C835.769 190.94 836.387 190.78 836.926 190.461C837.47 190.135 837.896 189.689 838.204 189.12C838.518 188.552 838.675 187.904 838.675 187.176C838.675 186.436 838.515 185.776 838.195 185.196C837.876 184.616 837.435 184.161 836.872 183.829C836.316 183.498 835.677 183.329 834.955 183.323C834.404 183.323 833.851 183.418 833.295 183.607C832.738 183.797 832.288 184.045 831.945 184.353L829.433 183.98L830.454 174.818H840.45V177.171H832.735L832.158 182.258H832.265C832.62 181.914 833.09 181.627 833.676 181.397C834.268 181.166 834.902 181.05 835.576 181.05C836.683 181.05 837.668 181.314 838.533 181.84C839.403 182.367 840.086 183.086 840.583 183.998C841.086 184.903 841.335 185.945 841.329 187.123C841.335 188.301 841.069 189.351 840.53 190.274C839.997 191.198 839.258 191.926 838.311 192.458C837.37 192.985 836.289 193.249 835.07 193.249Z" fill="#244464"/>
<path d="M819.523 193.249C818.712 193.237 817.913 193.089 817.126 192.805C816.345 192.521 815.634 192.047 814.995 191.384C814.356 190.721 813.844 189.831 813.459 188.712C813.081 187.593 812.891 186.197 812.891 184.522C812.891 182.935 813.048 181.527 813.362 180.296C813.681 179.065 814.14 178.026 814.738 177.18C815.335 176.327 816.058 175.679 816.904 175.235C817.75 174.792 818.7 174.57 819.754 174.57C820.837 174.57 821.799 174.783 822.639 175.209C823.479 175.635 824.16 176.224 824.681 176.975C825.208 177.727 825.542 178.582 825.684 179.541H822.976C822.793 178.784 822.429 178.165 821.884 177.686C821.34 177.206 820.63 176.967 819.754 176.967C818.422 176.967 817.383 177.547 816.638 178.707C815.898 179.867 815.525 181.479 815.519 183.545H815.652C815.966 183.03 816.351 182.592 816.806 182.231C817.268 181.864 817.783 181.583 818.351 181.388C818.925 181.187 819.529 181.086 820.162 181.086C821.216 181.086 822.168 181.343 823.021 181.858C823.879 182.367 824.563 183.072 825.072 183.971C825.581 184.871 825.835 185.901 825.835 187.061C825.835 188.221 825.572 189.271 825.045 190.212C824.524 191.153 823.79 191.899 822.843 192.45C821.896 192.994 820.789 193.26 819.523 193.249ZM819.514 190.94C820.212 190.94 820.837 190.769 821.387 190.425C821.938 190.082 822.373 189.62 822.692 189.04C823.012 188.46 823.172 187.812 823.172 187.096C823.172 186.398 823.015 185.762 822.701 185.187C822.393 184.613 821.967 184.158 821.423 183.82C820.884 183.483 820.269 183.314 819.576 183.314C819.049 183.314 818.561 183.415 818.111 183.616C817.667 183.817 817.277 184.096 816.939 184.451C816.602 184.806 816.336 185.214 816.14 185.676C815.951 186.131 815.856 186.614 815.856 187.123C815.856 187.803 816.013 188.434 816.327 189.014C816.646 189.594 817.081 190.061 817.632 190.417C818.188 190.766 818.816 190.94 819.514 190.94Z" fill="#244464"/>
<path d="M803.392 193.249C802.173 193.249 801.084 193.038 800.125 192.618C799.172 192.198 798.417 191.615 797.861 190.869C797.311 190.118 797.015 189.248 796.973 188.259H799.761C799.796 188.798 799.977 189.265 800.302 189.662C800.634 190.053 801.066 190.354 801.599 190.567C802.131 190.781 802.723 190.887 803.374 190.887C804.09 190.887 804.723 190.763 805.274 190.514C805.83 190.266 806.265 189.919 806.579 189.475C806.893 189.026 807.049 188.508 807.049 187.922C807.049 187.312 806.893 186.777 806.579 186.315C806.271 185.847 805.818 185.48 805.221 185.214C804.629 184.948 803.913 184.815 803.072 184.815H801.536V182.577H803.072C803.747 182.577 804.339 182.456 804.848 182.213C805.363 181.971 805.765 181.633 806.055 181.201C806.345 180.763 806.49 180.251 806.49 179.665C806.49 179.103 806.363 178.615 806.108 178.201C805.86 177.78 805.505 177.452 805.043 177.215C804.587 176.978 804.049 176.86 803.427 176.86C802.835 176.86 802.282 176.97 801.767 177.189C801.258 177.402 800.844 177.709 800.524 178.112C800.205 178.508 800.033 178.985 800.009 179.541H797.355C797.384 178.559 797.674 177.695 798.225 176.949C798.781 176.203 799.515 175.62 800.427 175.2C801.338 174.78 802.35 174.57 803.463 174.57C804.629 174.57 805.635 174.797 806.481 175.253C807.334 175.703 807.991 176.304 808.452 177.055C808.92 177.807 809.151 178.63 809.145 179.523C809.151 180.541 808.866 181.406 808.292 182.116C807.724 182.826 806.967 183.302 806.02 183.545V183.687C807.227 183.871 808.162 184.35 808.825 185.125C809.494 185.901 809.825 186.862 809.819 188.011C809.825 189.011 809.547 189.908 808.985 190.701C808.429 191.494 807.668 192.118 806.703 192.574C805.739 193.024 804.635 193.249 803.392 193.249Z" fill="#244464"/>
<path d="M794.842 173.966L788.983 195.734H786.613L792.472 173.966H794.842Z" fill="#244464"/>
<path d="M774.017 193L781.954 177.304V177.171H772.774V174.818H784.795V177.251L776.885 193H774.017Z" fill="#244464"/>
<path d="M771.185 173.966L765.326 195.734H762.956L768.815 173.966H771.185Z" fill="#244464"/>
<path d="M747.486 189.449V187.229L755.343 174.818H757.092V178.085H755.982L750.362 186.981V187.123H761.131V189.449H747.486ZM756.106 193V188.774L756.124 187.762V174.818H758.725V193H756.106Z" fill="#244464"/>
<path d="M732.926 193V191.011L739.079 184.637C739.736 183.945 740.277 183.338 740.703 182.817C741.135 182.29 741.458 181.79 741.671 181.317C741.884 180.843 741.99 180.34 741.99 179.808C741.99 179.204 741.848 178.683 741.564 178.245C741.28 177.801 740.893 177.461 740.401 177.224C739.91 176.981 739.357 176.86 738.741 176.86C738.09 176.86 737.522 176.993 737.037 177.26C736.551 177.526 736.178 177.902 735.918 178.387C735.658 178.872 735.527 179.441 735.527 180.092H732.908C732.908 178.985 733.163 178.017 733.672 177.189C734.181 176.36 734.879 175.718 735.767 175.262C736.655 174.8 737.664 174.57 738.794 174.57C739.937 174.57 740.943 174.797 741.813 175.253C742.689 175.703 743.372 176.319 743.864 177.1C744.355 177.875 744.601 178.751 744.601 179.728C744.601 180.402 744.473 181.062 744.219 181.707C743.97 182.352 743.535 183.072 742.914 183.865C742.292 184.652 741.428 185.608 740.321 186.732L736.708 190.514V190.647H744.894V193H732.926Z" fill="#244464"/>
<path d="M824.618 163.275C823.274 163.275 822.117 162.988 821.146 162.414C820.182 161.834 819.436 161.02 818.909 159.973C818.388 158.919 818.128 157.685 818.128 156.271C818.128 154.874 818.388 153.643 818.909 152.577C819.436 151.512 820.17 150.68 821.111 150.083C822.058 149.485 823.165 149.186 824.431 149.186C825.201 149.186 825.946 149.313 826.668 149.568C827.39 149.822 828.039 150.222 828.613 150.766C829.187 151.311 829.64 152.018 829.971 152.888C830.302 153.752 830.468 154.803 830.468 156.04V156.981H819.628V154.992H827.867C827.867 154.294 827.725 153.675 827.441 153.137C827.157 152.592 826.757 152.163 826.242 151.849C825.733 151.536 825.136 151.379 824.449 151.379C823.703 151.379 823.052 151.562 822.496 151.929C821.945 152.29 821.519 152.764 821.217 153.35C820.921 153.93 820.774 154.56 820.774 155.241V156.794C820.774 157.706 820.933 158.481 821.253 159.12C821.578 159.76 822.031 160.248 822.611 160.585C823.191 160.917 823.869 161.082 824.644 161.082C825.147 161.082 825.606 161.011 826.02 160.869C826.435 160.721 826.793 160.502 827.095 160.212C827.396 159.922 827.627 159.564 827.787 159.138L830.299 159.591C830.098 160.331 829.737 160.979 829.216 161.535C828.701 162.086 828.053 162.515 827.272 162.822C826.497 163.124 825.612 163.275 824.618 163.275Z" fill="#244464"/>
<path d="M815.951 149.364V151.494H808.502V149.364H815.951ZM810.5 146.097H813.154V158.996C813.154 159.511 813.231 159.899 813.385 160.159C813.539 160.414 813.737 160.588 813.98 160.683C814.228 160.772 814.498 160.816 814.788 160.816C815.001 160.816 815.187 160.801 815.347 160.772C815.507 160.742 815.631 160.718 815.72 160.701L816.199 162.894C816.045 162.953 815.826 163.012 815.542 163.071C815.258 163.136 814.903 163.172 814.477 163.178C813.779 163.189 813.127 163.065 812.524 162.805C811.92 162.544 811.432 162.142 811.059 161.597C810.686 161.053 810.5 160.369 810.5 159.547V146.097Z" fill="#244464"/>
<path d="M799.185 163V149.364H801.751V151.53H801.893C802.141 150.796 802.579 150.219 803.206 149.799C803.84 149.372 804.556 149.159 805.355 149.159C805.521 149.159 805.716 149.165 805.941 149.177C806.172 149.189 806.352 149.204 806.482 149.222V151.761C806.376 151.731 806.186 151.698 805.914 151.663C805.642 151.622 805.37 151.601 805.097 151.601C804.47 151.601 803.911 151.734 803.42 152C802.934 152.261 802.55 152.625 802.265 153.092C801.981 153.554 801.839 154.081 801.839 154.673V163H799.185Z" fill="#244464"/>
<path d="M789.865 163.275C788.587 163.275 787.471 162.982 786.518 162.396C785.565 161.81 784.826 160.991 784.299 159.937C783.772 158.884 783.509 157.653 783.509 156.244C783.509 154.829 783.772 153.592 784.299 152.533C784.826 151.474 785.565 150.651 786.518 150.065C787.471 149.479 788.587 149.186 789.865 149.186C791.144 149.186 792.259 149.479 793.212 150.065C794.165 150.651 794.905 151.474 795.432 152.533C795.958 153.592 796.222 154.829 796.222 156.244C796.222 157.653 795.958 158.884 795.432 159.937C794.905 160.991 794.165 161.81 793.212 162.396C792.259 162.982 791.144 163.275 789.865 163.275ZM789.874 161.047C790.703 161.047 791.389 160.828 791.934 160.39C792.478 159.952 792.881 159.369 793.141 158.641C793.408 157.913 793.541 157.111 793.541 156.235C793.541 155.365 793.408 154.566 793.141 153.838C792.881 153.104 792.478 152.515 791.934 152.071C791.389 151.627 790.703 151.405 789.874 151.405C789.04 151.405 788.347 151.627 787.797 152.071C787.252 152.515 786.847 153.104 786.581 153.838C786.32 154.566 786.19 155.365 786.19 156.235C786.19 157.111 786.32 157.913 786.581 158.641C786.847 159.369 787.252 159.952 787.797 160.39C788.347 160.828 789.04 161.047 789.874 161.047Z" fill="#244464"/>
<path d="M768.692 168.114V149.364H771.284V151.574H771.506C771.66 151.29 771.882 150.962 772.172 150.589C772.462 150.216 772.864 149.89 773.379 149.612C773.894 149.328 774.575 149.186 775.421 149.186C776.522 149.186 777.504 149.464 778.368 150.021C779.233 150.577 779.91 151.379 780.402 152.426C780.899 153.474 781.147 154.735 781.147 156.208C781.147 157.682 780.902 158.946 780.41 159.999C779.919 161.047 779.244 161.855 778.386 162.423C777.528 162.985 776.549 163.266 775.448 163.266C774.619 163.266 773.941 163.127 773.415 162.849C772.894 162.571 772.485 162.245 772.19 161.872C771.894 161.5 771.666 161.168 771.506 160.878H771.346V168.114H768.692ZM771.293 156.182C771.293 157.141 771.432 157.981 771.71 158.703C771.988 159.425 772.391 159.99 772.918 160.399C773.444 160.801 774.089 161.002 774.853 161.002C775.646 161.002 776.309 160.792 776.842 160.372C777.374 159.946 777.777 159.369 778.049 158.641C778.327 157.913 778.466 157.093 778.466 156.182C778.466 155.282 778.33 154.474 778.058 153.758C777.791 153.042 777.389 152.477 776.85 152.062C776.318 151.648 775.652 151.441 774.853 151.441C774.083 151.441 773.432 151.639 772.9 152.036C772.373 152.432 771.973 152.986 771.701 153.696C771.429 154.406 771.293 155.235 771.293 156.182Z" fill="#244464"/>
<path d="M759.372 163.275C758.094 163.275 756.978 162.982 756.025 162.396C755.072 161.81 754.333 160.991 753.806 159.937C753.279 158.884 753.016 157.653 753.016 156.244C753.016 154.829 753.279 153.592 753.806 152.533C754.333 151.474 755.072 150.651 756.025 150.065C756.978 149.479 758.094 149.186 759.372 149.186C760.651 149.186 761.766 149.479 762.719 150.065C763.672 150.651 764.412 151.474 764.939 152.533C765.465 153.592 765.729 154.829 765.729 156.244C765.729 157.653 765.465 158.884 764.939 159.937C764.412 160.991 763.672 161.81 762.719 162.396C761.766 162.982 760.651 163.275 759.372 163.275ZM759.381 161.047C760.21 161.047 760.896 160.828 761.441 160.39C761.985 159.952 762.388 159.369 762.648 158.641C762.914 157.913 763.048 157.111 763.048 156.235C763.048 155.365 762.914 154.566 762.648 153.838C762.388 153.104 761.985 152.515 761.441 152.071C760.896 151.627 760.21 151.405 759.381 151.405C758.547 151.405 757.854 151.627 757.304 152.071C756.759 152.515 756.354 153.104 756.087 153.838C755.827 154.566 755.697 155.365 755.697 156.235C755.697 157.111 755.827 157.913 756.087 158.641C756.354 159.369 756.759 159.952 757.304 160.39C757.854 160.828 758.547 161.047 759.381 161.047Z" fill="#244464"/>
<path d="M747.669 149.594C747.574 148.754 747.184 148.103 746.497 147.641C745.81 147.174 744.946 146.94 743.905 146.94C743.159 146.94 742.514 147.058 741.969 147.295C741.425 147.526 741.002 147.846 740.7 148.254C740.404 148.656 740.256 149.115 740.256 149.63C740.256 150.062 740.357 150.435 740.558 150.749C740.765 151.062 741.034 151.326 741.366 151.539C741.703 151.746 742.064 151.92 742.449 152.062C742.833 152.199 743.203 152.311 743.558 152.4L745.334 152.861C745.914 153.004 746.509 153.196 747.118 153.439C747.728 153.681 748.293 154.001 748.814 154.397C749.335 154.794 749.755 155.285 750.075 155.871C750.4 156.457 750.563 157.158 750.563 157.975C750.563 159.005 750.297 159.919 749.764 160.718C749.237 161.517 748.471 162.148 747.465 162.609C746.464 163.071 745.254 163.302 743.834 163.302C742.472 163.302 741.295 163.086 740.3 162.654C739.306 162.222 738.528 161.609 737.965 160.816C737.403 160.017 737.092 159.07 737.033 157.975H739.785C739.839 158.632 740.052 159.18 740.425 159.618C740.803 160.05 741.286 160.372 741.872 160.585C742.464 160.792 743.112 160.896 743.816 160.896C744.591 160.896 745.281 160.775 745.884 160.532C746.494 160.283 746.973 159.94 747.323 159.502C747.672 159.058 747.846 158.54 747.846 157.948C747.846 157.41 747.693 156.969 747.385 156.626C747.083 156.282 746.672 155.998 746.151 155.773C745.636 155.549 745.053 155.35 744.402 155.179L742.253 154.593C740.797 154.196 739.643 153.613 738.791 152.844C737.945 152.074 737.522 151.056 737.522 149.79C737.522 148.742 737.806 147.828 738.374 147.046C738.942 146.265 739.711 145.659 740.682 145.227C741.653 144.789 742.748 144.57 743.967 144.57C745.198 144.57 746.284 144.786 747.225 145.218C748.172 145.65 748.918 146.245 749.462 147.002C750.007 147.754 750.291 148.618 750.315 149.594H747.669Z" fill="#244464"/>
<g filter="url(#filter3_d_411_4)">
<path fill-rule="evenodd" clip-rule="evenodd" d="M175.648 344.528C97.1968 345.686 21.7261 290.369 3.99576 183.169L43.4596 176.642C58.2293 265.942 118.009 305.375 175.058 304.533C232.563 303.684 292.828 261.891 308.03 175.441L347.425 182.369C329.128 286.42 253.642 343.377 175.648 344.528Z" fill="#244464"/>
</g>
<g filter="url(#filter4_d_411_4)">
<path fill-rule="evenodd" clip-rule="evenodd" d="M473.31 41.6842C412.695 44.9192 352.499 93.0398 347.699 181.984L307.757 179.828C313.629 71.0228 389.619 6.09375 471.178 1.74109C553.745 -2.66532 635.804 54.9054 654.493 175.852L614.962 181.96C599.023 78.8068 532.919 38.5031 473.31 41.6842Z" fill="#0E95C1"/>
</g>
<path d="M43.5073 177.439C42.8968 173.776 40.2461 170.608 36.1382 168.631C32.0303 166.654 26.8018 166.03 21.6028 166.897C16.4038 167.763 11.6603 170.049 8.41568 173.252C5.1711 176.454 3.69126 180.311 4.30171 183.973L23.9045 180.706L43.5073 177.439Z" fill="#244464"/>
<path d="M348.228 177.405C348.228 188.451 339.05 197.405 327.728 197.405C316.406 197.405 307.228 188.451 307.228 177.405C307.228 166.36 316.406 157.405 327.728 157.405C339.05 157.405 348.228 166.36 348.228 177.405Z" fill="#172C40"/>
<g filter="url(#filter5_d_411_4)">
<path fill-rule="evenodd" clip-rule="evenodd" d="M787.059 344.422C708.608 345.58 633.137 290.263 615.406 183.062L654.87 176.535C669.64 265.835 729.419 305.268 786.468 304.426C843.974 303.577 904.238 261.784 919.441 175.335L958.836 182.263C940.539 286.314 865.053 343.271 787.059 344.422Z" fill="#244464"/>
<path d="M958.682 182.511C959.023 180.659 958.829 178.727 958.111 176.832C957.393 174.937 956.165 173.117 954.501 171.482C952.838 169.847 950.772 168.429 948.428 167.315C946.085 166.2 943.511 165.411 940.862 164.995C938.212 164.58 935.541 164.545 933.009 164.895C930.477 165.244 928.135 165.969 926.125 167.028C924.114 168.087 922.475 169.456 921.307 171.055C920.138 172.654 919.464 174.45 919.325 176.334L939.072 178.891L958.682 182.511Z" fill="#244464"/>
<path d="M655.228 179.405C655.228 190.451 646.273 199.405 635.228 199.405C624.182 199.405 615.228 190.451 615.228 179.405C615.228 168.36 624.182 159.405 635.228 159.405C646.273 159.405 655.228 168.36 655.228 179.405Z" fill="#172C40"/>
</g>
<path d="M424.193 136H421.281L427.824 117.818H430.993L437.536 136H434.625L429.484 121.121H429.342L424.193 136ZM424.681 128.88H434.127V131.188H424.681V128.88ZM444.834 136.266C443.733 136.266 442.751 135.985 441.887 135.423C441.028 134.855 440.354 134.047 439.862 132.999C439.377 131.946 439.134 130.682 439.134 129.208C439.134 127.735 439.38 126.474 439.871 125.426C440.368 124.379 441.049 123.577 441.913 123.021C442.777 122.464 443.757 122.186 444.852 122.186C445.698 122.186 446.379 122.328 446.894 122.612C447.415 122.89 447.817 123.216 448.101 123.589C448.391 123.962 448.616 124.29 448.776 124.574H448.936V117.818H451.59V136H448.998V133.878H448.776C448.616 134.168 448.385 134.5 448.083 134.873C447.787 135.245 447.379 135.571 446.858 135.849C446.337 136.127 445.663 136.266 444.834 136.266ZM445.42 134.002C446.183 134.002 446.829 133.801 447.355 133.399C447.888 132.99 448.29 132.425 448.563 131.703C448.841 130.981 448.98 130.141 448.98 129.182C448.98 128.235 448.844 127.406 448.572 126.696C448.299 125.986 447.9 125.432 447.373 125.036C446.846 124.639 446.195 124.441 445.42 124.441C444.621 124.441 443.955 124.648 443.422 125.062C442.89 125.477 442.487 126.042 442.215 126.758C441.949 127.474 441.816 128.282 441.816 129.182C441.816 130.093 441.952 130.913 442.224 131.641C442.496 132.369 442.899 132.946 443.431 133.372C443.97 133.792 444.633 134.002 445.42 134.002ZM459.347 136.302C458.483 136.302 457.702 136.142 457.003 135.822C456.305 135.497 455.752 135.026 455.343 134.411C454.941 133.795 454.739 133.041 454.739 132.147C454.739 131.378 454.887 130.744 455.183 130.247C455.479 129.75 455.879 129.356 456.382 129.066C456.885 128.776 457.447 128.557 458.069 128.409C458.69 128.261 459.323 128.149 459.969 128.072C460.785 127.977 461.448 127.9 461.957 127.841C462.466 127.776 462.836 127.673 463.067 127.531C463.298 127.388 463.413 127.158 463.413 126.838V126.776C463.413 126.001 463.194 125.4 462.756 124.974C462.324 124.548 461.679 124.335 460.821 124.335C459.927 124.335 459.223 124.533 458.708 124.929C458.199 125.32 457.847 125.755 457.651 126.234L455.157 125.666C455.453 124.838 455.885 124.169 456.453 123.66C457.027 123.145 457.687 122.772 458.433 122.541C459.178 122.304 459.963 122.186 460.785 122.186C461.33 122.186 461.907 122.251 462.516 122.381C463.132 122.506 463.706 122.737 464.239 123.074C464.777 123.411 465.218 123.894 465.562 124.521C465.905 125.142 466.076 125.95 466.076 126.945V136H463.484V134.136H463.378C463.206 134.479 462.949 134.816 462.605 135.148C462.262 135.479 461.821 135.754 461.282 135.973C460.744 136.192 460.099 136.302 459.347 136.302ZM459.924 134.171C460.658 134.171 461.285 134.026 461.806 133.736C462.333 133.446 462.732 133.067 463.005 132.6C463.283 132.126 463.422 131.62 463.422 131.082V129.324C463.327 129.419 463.144 129.507 462.872 129.59C462.605 129.667 462.3 129.735 461.957 129.794C461.614 129.848 461.279 129.898 460.954 129.945C460.628 129.987 460.356 130.022 460.137 130.052C459.622 130.117 459.152 130.226 458.726 130.38C458.305 130.534 457.968 130.756 457.714 131.046C457.465 131.33 457.341 131.709 457.341 132.183C457.341 132.839 457.583 133.337 458.069 133.674C458.554 134.005 459.172 134.171 459.924 134.171ZM469.612 141.114V122.364H472.204V124.574H472.426C472.58 124.29 472.802 123.962 473.092 123.589C473.382 123.216 473.785 122.89 474.3 122.612C474.814 122.328 475.495 122.186 476.341 122.186C477.442 122.186 478.425 122.464 479.289 123.021C480.153 123.577 480.831 124.379 481.322 125.426C481.819 126.474 482.068 127.735 482.068 129.208C482.068 130.682 481.822 131.946 481.331 132.999C480.84 134.047 480.165 134.855 479.307 135.423C478.448 135.985 477.469 136.266 476.368 136.266C475.54 136.266 474.862 136.127 474.335 135.849C473.814 135.571 473.406 135.245 473.11 134.873C472.814 134.5 472.586 134.168 472.426 133.878H472.267V141.114H469.612ZM472.213 129.182C472.213 130.141 472.352 130.981 472.631 131.703C472.909 132.425 473.311 132.99 473.838 133.399C474.365 133.801 475.01 134.002 475.773 134.002C476.566 134.002 477.229 133.792 477.762 133.372C478.295 132.946 478.697 132.369 478.969 131.641C479.247 130.913 479.387 130.093 479.387 129.182C479.387 128.282 479.25 127.474 478.978 126.758C478.712 126.042 478.309 125.477 477.771 125.062C477.238 124.648 476.572 124.441 475.773 124.441C475.004 124.441 474.353 124.639 473.82 125.036C473.293 125.432 472.894 125.986 472.622 126.696C472.349 127.406 472.213 128.235 472.213 129.182ZM491.407 122.364V124.494H483.959V122.364H491.407ZM485.956 119.097H488.611V131.996C488.611 132.511 488.688 132.899 488.841 133.159C488.995 133.414 489.194 133.588 489.436 133.683C489.685 133.772 489.954 133.816 490.244 133.816C490.457 133.816 490.644 133.801 490.803 133.772C490.963 133.742 491.088 133.718 491.176 133.701L491.656 135.893C491.502 135.953 491.283 136.012 490.999 136.071C490.715 136.136 490.36 136.172 489.933 136.178C489.235 136.189 488.584 136.065 487.98 135.805C487.377 135.544 486.888 135.142 486.515 134.597C486.143 134.053 485.956 133.369 485.956 132.547V119.097ZM498.312 136.302C497.448 136.302 496.667 136.142 495.968 135.822C495.27 135.497 494.716 135.026 494.308 134.411C493.906 133.795 493.704 133.041 493.704 132.147C493.704 131.378 493.852 130.744 494.148 130.247C494.444 129.75 494.844 129.356 495.347 129.066C495.85 128.776 496.412 128.557 497.034 128.409C497.655 128.261 498.288 128.149 498.933 128.072C499.75 127.977 500.413 127.9 500.922 127.841C501.431 127.776 501.801 127.673 502.032 127.531C502.263 127.388 502.378 127.158 502.378 126.838V126.776C502.378 126.001 502.159 125.4 501.721 124.974C501.289 124.548 500.644 124.335 499.786 124.335C498.892 124.335 498.188 124.533 497.673 124.929C497.164 125.32 496.812 125.755 496.616 126.234L494.122 125.666C494.418 124.838 494.85 124.169 495.418 123.66C495.992 123.145 496.652 122.772 497.398 122.541C498.143 122.304 498.927 122.186 499.75 122.186C500.295 122.186 500.872 122.251 501.481 122.381C502.097 122.506 502.671 122.737 503.204 123.074C503.742 123.411 504.183 123.894 504.526 124.521C504.87 125.142 505.041 125.95 505.041 126.945V136H502.449V134.136H502.342C502.171 134.479 501.913 134.816 501.57 135.148C501.227 135.479 500.786 135.754 500.247 135.973C499.709 136.192 499.064 136.302 498.312 136.302ZM498.889 134.171C499.623 134.171 500.25 134.026 500.771 133.736C501.298 133.446 501.697 133.067 501.97 132.6C502.248 132.126 502.387 131.62 502.387 131.082V129.324C502.292 129.419 502.109 129.507 501.836 129.59C501.57 129.667 501.265 129.735 500.922 129.794C500.579 129.848 500.244 129.898 499.919 129.945C499.593 129.987 499.321 130.022 499.102 130.052C498.587 130.117 498.117 130.226 497.69 130.38C497.27 130.534 496.933 130.756 496.678 131.046C496.43 131.33 496.306 131.709 496.306 132.183C496.306 132.839 496.548 133.337 497.034 133.674C497.519 134.005 498.137 134.171 498.889 134.171ZM508.79 136V117.818H511.444V124.574H511.604C511.758 124.29 511.98 123.962 512.27 123.589C512.56 123.216 512.963 122.89 513.477 122.612C513.992 122.328 514.673 122.186 515.519 122.186C516.62 122.186 517.603 122.464 518.467 123.021C519.331 123.577 520.009 124.379 520.5 125.426C520.997 126.474 521.246 127.735 521.246 129.208C521.246 130.682 521 131.946 520.509 132.999C520.018 134.047 519.343 134.855 518.485 135.423C517.626 135.985 516.647 136.266 515.546 136.266C514.717 136.266 514.04 136.127 513.513 135.849C512.992 135.571 512.584 135.245 512.288 134.873C511.992 134.5 511.764 134.168 511.604 133.878H511.382V136H508.79ZM511.391 129.182C511.391 130.141 511.53 130.981 511.808 131.703C512.087 132.425 512.489 132.99 513.016 133.399C513.543 133.801 514.188 134.002 514.951 134.002C515.744 134.002 516.407 133.792 516.94 133.372C517.473 132.946 517.875 132.369 518.147 131.641C518.425 130.913 518.564 130.093 518.564 129.182C518.564 128.282 518.428 127.474 518.156 126.758C517.89 126.042 517.487 125.477 516.949 125.062C516.416 124.648 515.75 124.441 514.951 124.441C514.182 124.441 513.531 124.639 512.998 125.036C512.471 125.432 512.072 125.986 511.8 126.696C511.527 127.406 511.391 128.235 511.391 129.182ZM526.881 117.818V136H524.226V117.818H526.881ZM536.329 136.275C534.986 136.275 533.828 135.988 532.858 135.414C531.893 134.834 531.147 134.02 530.621 132.973C530.1 131.919 529.839 130.685 529.839 129.271C529.839 127.874 530.1 126.643 530.621 125.577C531.147 124.512 531.881 123.681 532.822 123.083C533.769 122.485 534.876 122.186 536.143 122.186C536.912 122.186 537.658 122.313 538.38 122.568C539.102 122.822 539.75 123.222 540.324 123.766C540.898 124.311 541.351 125.018 541.682 125.888C542.014 126.752 542.18 127.803 542.18 129.04V129.981H531.34V127.992H539.578C539.578 127.294 539.436 126.675 539.152 126.137C538.868 125.592 538.469 125.163 537.954 124.849C537.445 124.536 536.847 124.379 536.16 124.379C535.415 124.379 534.764 124.562 534.207 124.929C533.657 125.29 533.231 125.764 532.929 126.35C532.633 126.93 532.485 127.56 532.485 128.241V129.794C532.485 130.706 532.645 131.481 532.964 132.12C533.29 132.76 533.743 133.248 534.323 133.585C534.903 133.917 535.58 134.082 536.356 134.082C536.859 134.082 537.317 134.011 537.732 133.869C538.146 133.721 538.504 133.502 538.806 133.212C539.108 132.922 539.339 132.564 539.498 132.138L542.011 132.591C541.81 133.331 541.449 133.979 540.928 134.535C540.413 135.086 539.765 135.515 538.984 135.822C538.208 136.124 537.323 136.275 536.329 136.275ZM418.869 166.302C418.004 166.302 417.223 166.142 416.525 165.822C415.826 165.497 415.273 165.026 414.865 164.411C414.462 163.795 414.261 163.041 414.261 162.147C414.261 161.378 414.409 160.744 414.705 160.247C415.001 159.75 415.4 159.356 415.903 159.066C416.406 158.776 416.969 158.557 417.59 158.409C418.212 158.261 418.845 158.149 419.49 158.072C420.307 157.977 420.97 157.9 421.479 157.841C421.988 157.776 422.358 157.673 422.588 157.531C422.819 157.388 422.935 157.158 422.935 156.838V156.776C422.935 156.001 422.716 155.4 422.278 154.974C421.846 154.548 421.2 154.335 420.342 154.335C419.449 154.335 418.744 154.533 418.229 154.929C417.72 155.32 417.368 155.755 417.173 156.234L414.678 155.666C414.974 154.838 415.406 154.169 415.974 153.66C416.548 153.145 417.208 152.772 417.954 152.541C418.7 152.304 419.484 152.186 420.307 152.186C420.851 152.186 421.428 152.251 422.038 152.381C422.653 152.506 423.228 152.737 423.76 153.074C424.299 153.411 424.74 153.894 425.083 154.521C425.426 155.142 425.598 155.95 425.598 156.945V166H423.006V164.136H422.899C422.727 164.479 422.47 164.816 422.127 165.148C421.783 165.479 421.343 165.754 420.804 165.973C420.265 166.192 419.62 166.302 418.869 166.302ZM419.446 164.171C420.18 164.171 420.807 164.026 421.328 163.736C421.854 163.446 422.254 163.067 422.526 162.6C422.804 162.126 422.943 161.62 422.943 161.082V159.324C422.849 159.419 422.665 159.507 422.393 159.59C422.127 159.667 421.822 159.735 421.479 159.794C421.135 159.848 420.801 159.898 420.475 159.945C420.15 159.987 419.878 160.022 419.659 160.052C419.144 160.117 418.673 160.226 418.247 160.38C417.827 160.534 417.49 160.756 417.235 161.046C416.986 161.33 416.862 161.709 416.862 162.183C416.862 162.839 417.105 163.337 417.59 163.674C418.075 164.005 418.694 164.171 419.446 164.171ZM441.494 166.275C440.174 166.275 439.038 165.976 438.085 165.379C437.138 164.775 436.41 163.943 435.901 162.884C435.392 161.824 435.137 160.611 435.137 159.244C435.137 157.859 435.398 156.637 435.918 155.577C436.439 154.512 437.173 153.681 438.12 153.083C439.067 152.485 440.183 152.186 441.467 152.186C442.503 152.186 443.426 152.378 444.237 152.763C445.048 153.142 445.702 153.675 446.199 154.361C446.702 155.048 447.001 155.85 447.096 156.767H444.512C444.37 156.128 444.045 155.577 443.536 155.116C443.033 154.654 442.358 154.423 441.511 154.423C440.772 154.423 440.124 154.619 439.567 155.009C439.017 155.394 438.588 155.944 438.28 156.661C437.972 157.371 437.818 158.211 437.818 159.182C437.818 160.176 437.969 161.034 438.271 161.756C438.573 162.478 438.999 163.038 439.549 163.434C440.106 163.831 440.76 164.029 441.511 164.029C442.015 164.029 442.47 163.937 442.879 163.754C443.293 163.565 443.639 163.295 443.917 162.946C444.201 162.597 444.4 162.177 444.512 161.685H447.096C447.001 162.567 446.714 163.354 446.235 164.047C445.755 164.739 445.113 165.284 444.308 165.68C443.509 166.077 442.571 166.275 441.494 166.275ZM458.572 160.345V152.364H461.236V166H458.626V163.638H458.484C458.17 164.366 457.667 164.973 456.974 165.458C456.288 165.938 455.433 166.178 454.409 166.178C453.533 166.178 452.758 165.985 452.083 165.6C451.414 165.21 450.887 164.633 450.503 163.869C450.124 163.106 449.934 162.162 449.934 161.037V152.364H452.589V160.718C452.589 161.647 452.846 162.387 453.361 162.937C453.876 163.488 454.545 163.763 455.368 163.763C455.865 163.763 456.359 163.638 456.85 163.39C457.347 163.141 457.759 162.766 458.084 162.262C458.416 161.759 458.578 161.12 458.572 160.345ZM468.771 166.302C467.907 166.302 467.126 166.142 466.427 165.822C465.729 165.497 465.175 165.026 464.767 164.411C464.365 163.795 464.163 163.041 464.163 162.147C464.163 161.378 464.311 160.744 464.607 160.247C464.903 159.75 465.303 159.356 465.806 159.066C466.309 158.776 466.871 158.557 467.492 158.409C468.114 158.261 468.747 158.149 469.392 158.072C470.209 157.977 470.872 157.9 471.381 157.841C471.89 157.776 472.26 157.673 472.491 157.531C472.722 157.388 472.837 157.158 472.837 156.838V156.776C472.837 156.001 472.618 155.4 472.18 154.974C471.748 154.548 471.103 154.335 470.245 154.335C469.351 154.335 468.647 154.533 468.132 154.929C467.623 155.32 467.271 155.755 467.075 156.234L464.581 155.666C464.876 154.838 465.309 154.169 465.877 153.66C466.451 153.145 467.111 152.772 467.856 152.541C468.602 152.304 469.386 152.186 470.209 152.186C470.754 152.186 471.331 152.251 471.94 152.381C472.556 152.506 473.13 152.737 473.663 153.074C474.201 153.411 474.642 153.894 474.985 154.521C475.329 155.142 475.5 155.95 475.5 156.945V166H472.908V164.136H472.801C472.63 164.479 472.372 164.816 472.029 165.148C471.686 165.479 471.245 165.754 470.706 165.973C470.168 166.192 469.523 166.302 468.771 166.302ZM469.348 164.171C470.082 164.171 470.709 164.026 471.23 163.736C471.757 163.446 472.156 163.067 472.429 162.6C472.707 162.126 472.846 161.62 472.846 161.082V159.324C472.751 159.419 472.568 159.507 472.295 159.59C472.029 159.667 471.724 159.735 471.381 159.794C471.038 159.848 470.703 159.898 470.378 159.945C470.052 159.987 469.78 160.022 469.561 160.052C469.046 160.117 468.576 160.226 468.149 160.38C467.729 160.534 467.392 160.756 467.137 161.046C466.889 161.33 466.765 161.709 466.765 162.183C466.765 162.839 467.007 163.337 467.492 163.674C467.978 164.005 468.596 164.171 469.348 164.171ZM481.69 147.818V166H479.036V147.818H481.69ZM494.468 171.114V163.878H494.308C494.148 164.168 493.917 164.5 493.616 164.873C493.32 165.245 492.911 165.571 492.39 165.849C491.87 166.127 491.195 166.266 490.366 166.266C489.265 166.266 488.283 165.985 487.419 165.423C486.561 164.855 485.886 164.047 485.395 162.999C484.909 161.946 484.667 160.682 484.667 159.208C484.667 157.735 484.912 156.474 485.404 155.426C485.901 154.379 486.581 153.577 487.445 153.021C488.31 152.464 489.289 152.186 490.384 152.186C491.23 152.186 491.911 152.328 492.426 152.612C492.947 152.89 493.349 153.216 493.633 153.589C493.923 153.962 494.148 154.29 494.308 154.574H494.53V152.364H497.122V171.114H494.468ZM490.952 164.002C491.716 164.002 492.361 163.801 492.888 163.399C493.42 162.99 493.823 162.425 494.095 161.703C494.373 160.981 494.512 160.141 494.512 159.182C494.512 158.235 494.376 157.406 494.104 156.696C493.832 155.986 493.432 155.432 492.905 155.036C492.379 154.639 491.728 154.441 490.952 154.441C490.153 154.441 489.487 154.648 488.955 155.062C488.422 155.477 488.02 156.042 487.747 156.758C487.481 157.474 487.348 158.282 487.348 159.182C487.348 160.093 487.484 160.913 487.756 161.641C488.028 162.369 488.431 162.946 488.964 163.372C489.502 163.792 490.165 164.002 490.952 164.002ZM509.329 160.345V152.364H511.993V166H509.383V163.638H509.241C508.927 164.366 508.424 164.973 507.731 165.458C507.045 165.938 506.19 166.178 505.166 166.178C504.29 166.178 503.514 165.985 502.84 165.6C502.171 165.21 501.644 164.633 501.259 163.869C500.881 163.106 500.691 162.162 500.691 161.037V152.364H503.346V160.718C503.346 161.647 503.603 162.387 504.118 162.937C504.633 163.488 505.302 163.763 506.124 163.763C506.622 163.763 507.116 163.638 507.607 163.39C508.104 163.141 508.516 162.766 508.841 162.262C509.172 161.759 509.335 161.12 509.329 160.345ZM515.559 166V152.364H518.214V166H515.559ZM516.9 150.26C516.438 150.26 516.042 150.106 515.71 149.798C515.385 149.484 515.222 149.111 515.222 148.679C515.222 148.241 515.385 147.868 515.71 147.561C516.042 147.247 516.438 147.09 516.9 147.09C517.362 147.09 517.755 147.247 518.081 147.561C518.412 147.868 518.578 148.241 518.578 148.679C518.578 149.111 518.412 149.484 518.081 149.798C517.755 150.106 517.362 150.26 516.9 150.26ZM527.662 166.275C526.319 166.275 525.161 165.988 524.191 165.414C523.226 164.834 522.48 164.02 521.954 162.973C521.433 161.919 521.172 160.685 521.172 159.271C521.172 157.874 521.433 156.643 521.954 155.577C522.48 154.512 523.214 153.681 524.155 153.083C525.102 152.485 526.209 152.186 527.476 152.186C528.245 152.186 528.991 152.313 529.713 152.568C530.435 152.822 531.083 153.222 531.657 153.766C532.231 154.311 532.684 155.018 533.015 155.888C533.347 156.752 533.513 157.803 533.513 159.04V159.981H522.673V157.992H530.911C530.911 157.294 530.769 156.675 530.485 156.137C530.201 155.592 529.802 155.163 529.287 154.849C528.778 154.536 528.18 154.379 527.493 154.379C526.748 154.379 526.097 154.562 525.54 154.929C524.99 155.29 524.564 155.764 524.262 156.35C523.966 156.93 523.818 157.56 523.818 158.241V159.794C523.818 160.706 523.978 161.481 524.297 162.12C524.623 162.76 525.076 163.248 525.656 163.585C526.236 163.917 526.913 164.082 527.689 164.082C528.192 164.082 528.65 164.011 529.065 163.869C529.479 163.721 529.837 163.502 530.139 163.212C530.441 162.922 530.672 162.564 530.831 162.138L533.344 162.591C533.143 163.331 532.782 163.979 532.261 164.535C531.746 165.086 531.098 165.515 530.317 165.822C529.541 166.124 528.656 166.275 527.662 166.275ZM536.458 166V152.364H539.023V154.53H539.166C539.414 153.796 539.852 153.219 540.479 152.799C541.113 152.373 541.829 152.159 542.628 152.159C542.794 152.159 542.989 152.165 543.214 152.177C543.445 152.189 543.625 152.204 543.755 152.222V154.761C543.649 154.731 543.459 154.699 543.187 154.663C542.915 154.622 542.643 154.601 542.37 154.601C541.743 154.601 541.184 154.734 540.693 155C540.207 155.261 539.822 155.625 539.538 156.092C539.254 156.554 539.112 157.081 539.112 157.673V166H536.458ZM417.622 196V182.364H420.17V184.583H420.339C420.623 183.831 421.088 183.246 421.733 182.825C422.378 182.399 423.15 182.186 424.05 182.186C424.961 182.186 425.725 182.399 426.34 182.825C426.962 183.251 427.421 183.837 427.716 184.583H427.858C428.184 183.855 428.702 183.275 429.412 182.843C430.122 182.405 430.969 182.186 431.951 182.186C433.188 182.186 434.197 182.574 434.979 183.349C435.766 184.124 436.159 185.293 436.159 186.856V196H433.505V187.104C433.505 186.181 433.253 185.512 432.75 185.098C432.247 184.684 431.646 184.477 430.948 184.477C430.084 184.477 429.412 184.743 428.933 185.276C428.453 185.802 428.214 186.48 428.214 187.309V196H425.568V186.936C425.568 186.196 425.337 185.601 424.876 185.151C424.414 184.701 423.813 184.477 423.073 184.477C422.57 184.477 422.106 184.61 421.68 184.876C421.259 185.136 420.919 185.5 420.659 185.968C420.404 186.436 420.277 186.977 420.277 187.593V196H417.622ZM445.461 196.275C444.183 196.275 443.067 195.982 442.114 195.396C441.161 194.81 440.421 193.991 439.895 192.937C439.368 191.884 439.104 190.653 439.104 189.244C439.104 187.829 439.368 186.592 439.895 185.533C440.421 184.474 441.161 183.651 442.114 183.065C443.067 182.479 444.183 182.186 445.461 182.186C446.739 182.186 447.855 182.479 448.808 183.065C449.761 183.651 450.501 184.474 451.027 185.533C451.554 186.592 451.818 187.829 451.818 189.244C451.818 190.653 451.554 191.884 451.027 192.937C450.501 193.991 449.761 194.81 448.808 195.396C447.855 195.982 446.739 196.275 445.461 196.275ZM445.47 194.047C446.299 194.047 446.985 193.828 447.53 193.39C448.074 192.952 448.477 192.369 448.737 191.641C449.003 190.913 449.136 190.111 449.136 189.235C449.136 188.365 449.003 187.566 448.737 186.838C448.477 186.104 448.074 185.515 447.53 185.071C446.985 184.627 446.299 184.406 445.47 184.406C444.635 184.406 443.943 184.627 443.392 185.071C442.848 185.515 442.443 186.104 442.176 186.838C441.916 187.566 441.786 188.365 441.786 189.235C441.786 190.111 441.916 190.913 442.176 191.641C442.443 192.369 442.848 192.952 443.392 193.39C443.943 193.828 444.635 194.047 445.47 194.047ZM459.885 196.266C458.784 196.266 457.802 195.985 456.938 195.423C456.08 194.855 455.405 194.047 454.914 192.999C454.428 191.946 454.186 190.682 454.186 189.208C454.186 187.735 454.431 186.474 454.923 185.426C455.42 184.379 456.1 183.577 456.964 183.021C457.829 182.464 458.808 182.186 459.903 182.186C460.749 182.186 461.43 182.328 461.945 182.612C462.466 182.89 462.868 183.216 463.152 183.589C463.442 183.962 463.667 184.29 463.827 184.574H463.987V177.818H466.641V196H464.049V193.878H463.827C463.667 194.168 463.436 194.5 463.135 194.873C462.839 195.245 462.43 195.571 461.909 195.849C461.389 196.127 460.714 196.266 459.885 196.266ZM460.471 194.002C461.235 194.002 461.88 193.801 462.407 193.399C462.939 192.99 463.342 192.425 463.614 191.703C463.892 190.981 464.031 190.141 464.031 189.182C464.031 188.235 463.895 187.406 463.623 186.696C463.351 185.986 462.951 185.432 462.424 185.036C461.898 184.639 461.247 184.441 460.471 184.441C459.672 184.441 459.006 184.648 458.474 185.062C457.941 185.477 457.539 186.042 457.266 186.758C457 187.474 456.867 188.282 456.867 189.182C456.867 190.093 457.003 190.913 457.275 191.641C457.547 192.369 457.95 192.946 458.483 193.372C459.021 193.792 459.684 194.002 460.471 194.002ZM476.307 196.275C474.964 196.275 473.806 195.988 472.836 195.414C471.871 194.834 471.125 194.02 470.599 192.973C470.078 191.919 469.817 190.685 469.817 189.271C469.817 187.874 470.078 186.643 470.599 185.577C471.125 184.512 471.859 183.681 472.8 183.083C473.747 182.485 474.854 182.186 476.121 182.186C476.89 182.186 477.636 182.313 478.358 182.568C479.08 182.822 479.728 183.222 480.302 183.766C480.876 184.311 481.329 185.018 481.66 185.888C481.992 186.752 482.158 187.803 482.158 189.04V189.981H471.318V187.992H479.556C479.556 187.294 479.414 186.675 479.13 186.137C478.846 185.592 478.447 185.163 477.932 184.849C477.423 184.536 476.825 184.379 476.138 184.379C475.393 184.379 474.742 184.562 474.185 184.929C473.635 185.29 473.209 185.764 472.907 186.35C472.611 186.93 472.463 187.56 472.463 188.241V189.794C472.463 190.706 472.623 191.481 472.942 192.12C473.268 192.76 473.721 193.248 474.301 193.585C474.881 193.917 475.558 194.082 476.334 194.082C476.837 194.082 477.295 194.011 477.71 193.869C478.124 193.721 478.482 193.502 478.784 193.212C479.086 192.922 479.317 192.564 479.476 192.138L481.989 192.591C481.788 193.331 481.427 193.979 480.906 194.535C480.391 195.086 479.743 195.515 478.962 195.822C478.186 196.124 477.301 196.275 476.307 196.275ZM487.757 177.818V196H485.103V177.818H487.757ZM497.072 196.275C495.794 196.275 494.678 195.982 493.725 195.396C492.773 194.81 492.033 193.991 491.506 192.937C490.979 191.884 490.716 190.653 490.716 189.244C490.716 187.829 490.979 186.592 491.506 185.533C492.033 184.474 492.773 183.651 493.725 183.065C494.678 182.479 495.794 182.186 497.072 182.186C498.351 182.186 499.466 182.479 500.419 183.065C501.372 183.651 502.112 184.474 502.639 185.533C503.166 186.592 503.429 187.829 503.429 189.244C503.429 190.653 503.166 191.884 502.639 192.937C502.112 193.991 501.372 194.81 500.419 195.396C499.466 195.982 498.351 196.275 497.072 196.275ZM497.081 194.047C497.91 194.047 498.596 193.828 499.141 193.39C499.685 192.952 500.088 192.369 500.348 191.641C500.615 190.913 500.748 190.111 500.748 189.235C500.748 188.365 500.615 187.566 500.348 186.838C500.088 186.104 499.685 185.515 499.141 185.071C498.596 184.627 497.91 184.406 497.081 184.406C496.247 184.406 495.554 184.627 495.004 185.071C494.459 185.515 494.054 186.104 493.788 186.838C493.527 187.566 493.397 188.365 493.397 189.235C493.397 190.111 493.527 190.913 493.788 191.641C494.054 192.369 494.459 192.952 495.004 193.39C495.554 193.828 496.247 194.047 497.081 194.047ZM518.113 196.266C517.012 196.266 516.03 195.985 515.165 195.423C514.307 194.855 513.632 194.047 513.141 192.999C512.656 191.946 512.413 190.682 512.413 189.208C512.413 187.735 512.659 186.474 513.15 185.426C513.647 184.379 514.328 183.577 515.192 183.021C516.056 182.464 517.036 182.186 518.131 182.186C518.977 182.186 519.658 182.328 520.172 182.612C520.693 182.89 521.096 183.216 521.38 183.589C521.67 183.962 521.895 184.29 522.055 184.574H522.214V177.818H524.869V196H522.277V193.878H522.055C521.895 194.168 521.664 194.5 521.362 194.873C521.066 195.245 520.658 195.571 520.137 195.849C519.616 196.127 518.941 196.266 518.113 196.266ZM518.699 194.002C519.462 194.002 520.107 193.801 520.634 193.399C521.167 192.99 521.569 192.425 521.842 191.703C522.12 190.981 522.259 190.141 522.259 189.182C522.259 188.235 522.123 187.406 521.85 186.696C521.578 185.986 521.179 185.432 520.652 185.036C520.125 184.639 519.474 184.441 518.699 184.441C517.9 184.441 517.234 184.648 516.701 185.062C516.169 185.477 515.766 186.042 515.494 186.758C515.228 187.474 515.094 188.282 515.094 189.182C515.094 190.093 515.23 190.913 515.503 191.641C515.775 192.369 516.177 192.946 516.71 193.372C517.249 193.792 517.912 194.002 518.699 194.002ZM534.535 196.275C533.191 196.275 532.034 195.988 531.063 195.414C530.099 194.834 529.353 194.02 528.826 192.973C528.305 191.919 528.045 190.685 528.045 189.271C528.045 187.874 528.305 186.643 528.826 185.577C529.353 184.512 530.087 183.681 531.028 183.083C531.975 182.485 533.082 182.186 534.348 182.186C535.118 182.186 535.863 182.313 536.585 182.568C537.307 182.822 537.956 183.222 538.53 183.766C539.104 184.311 539.557 185.018 539.888 185.888C540.219 186.752 540.385 187.803 540.385 189.04V189.981H529.545V187.992H537.784C537.784 187.294 537.642 186.675 537.358 186.137C537.074 185.592 536.674 185.163 536.159 184.849C535.65 184.536 535.052 184.379 534.366 184.379C533.62 184.379 532.969 184.562 532.413 184.929C531.862 185.29 531.436 185.764 531.134 186.35C530.838 186.93 530.691 187.56 530.691 188.241V189.794C530.691 190.706 530.85 191.481 531.17 192.12C531.495 192.76 531.948 193.248 532.528 193.585C533.108 193.917 533.786 194.082 534.561 194.082C535.064 194.082 535.523 194.011 535.937 193.869C536.352 193.721 536.71 193.502 537.012 193.212C537.313 192.922 537.544 192.564 537.704 192.138L540.216 192.591C540.015 193.331 539.654 193.979 539.133 194.535C538.618 195.086 537.97 195.515 537.189 195.822C536.414 196.124 535.529 196.275 534.535 196.275ZM438.648 217.903V226H435.994V212.364H438.542V214.583H438.711C439.024 213.861 439.515 213.281 440.184 212.843C440.859 212.405 441.708 212.186 442.732 212.186C443.661 212.186 444.475 212.381 445.174 212.772C445.872 213.157 446.414 213.731 446.798 214.494C447.183 215.258 447.375 216.202 447.375 217.326V226H444.721V217.646C444.721 216.658 444.463 215.885 443.948 215.329C443.434 214.767 442.726 214.485 441.827 214.485C441.211 214.485 440.664 214.619 440.184 214.885C439.711 215.151 439.335 215.542 439.057 216.057C438.785 216.566 438.648 217.181 438.648 217.903ZM456.812 226.275C455.469 226.275 454.312 225.988 453.341 225.414C452.376 224.834 451.631 224.02 451.104 222.973C450.583 221.919 450.323 220.685 450.323 219.271C450.323 217.874 450.583 216.643 451.104 215.577C451.631 214.512 452.365 213.681 453.306 213.083C454.253 212.485 455.359 212.186 456.626 212.186C457.395 212.186 458.141 212.313 458.863 212.568C459.585 212.822 460.233 213.222 460.807 213.766C461.382 214.311 461.834 215.018 462.166 215.888C462.497 216.752 462.663 217.803 462.663 219.04V219.981H451.823V217.992H460.062C460.062 217.294 459.92 216.675 459.636 216.137C459.352 215.592 458.952 215.163 458.437 214.849C457.928 214.536 457.33 214.379 456.644 214.379C455.898 214.379 455.247 214.562 454.691 214.929C454.14 215.29 453.714 215.764 453.412 216.35C453.116 216.93 452.968 217.56 452.968 218.241V219.794C452.968 220.706 453.128 221.481 453.448 222.12C453.773 222.76 454.226 223.248 454.806 223.585C455.386 223.917 456.064 224.082 456.839 224.082C457.342 224.082 457.801 224.011 458.215 223.869C458.629 223.721 458.988 223.502 459.289 223.212C459.591 222.922 459.822 222.564 459.982 222.138L462.494 222.591C462.293 223.331 461.932 223.979 461.411 224.535C460.896 225.086 460.248 225.515 459.467 225.822C458.692 226.124 457.807 226.275 456.812 226.275ZM471.326 231.398C470.242 231.398 469.31 231.256 468.529 230.972C467.754 230.688 467.12 230.312 466.629 229.844C466.138 229.377 465.771 228.865 465.528 228.308L467.81 227.367C467.97 227.628 468.183 227.903 468.449 228.193C468.721 228.489 469.088 228.74 469.55 228.947C470.018 229.155 470.618 229.258 471.352 229.258C472.358 229.258 473.19 229.013 473.847 228.521C474.504 228.036 474.832 227.261 474.832 226.195V223.514H474.664C474.504 223.804 474.273 224.127 473.971 224.482C473.675 224.837 473.267 225.145 472.746 225.405C472.225 225.666 471.547 225.796 470.713 225.796C469.636 225.796 468.665 225.544 467.801 225.041C466.943 224.532 466.262 223.783 465.759 222.795C465.262 221.801 465.013 220.579 465.013 219.129C465.013 217.679 465.259 216.436 465.75 215.4C466.247 214.364 466.928 213.571 467.792 213.021C468.656 212.464 469.636 212.186 470.731 212.186C471.577 212.186 472.261 212.328 472.781 212.612C473.302 212.89 473.708 213.216 473.998 213.589C474.294 213.962 474.522 214.29 474.681 214.574H474.877V212.364H477.478V226.302C477.478 227.474 477.206 228.435 476.661 229.187C476.117 229.939 475.38 230.495 474.451 230.856C473.527 231.217 472.486 231.398 471.326 231.398ZM471.299 223.594C472.062 223.594 472.707 223.417 473.234 223.061C473.767 222.7 474.169 222.185 474.442 221.517C474.72 220.842 474.859 220.034 474.859 219.093C474.859 218.176 474.723 217.368 474.451 216.669C474.178 215.971 473.779 215.426 473.252 215.036C472.725 214.639 472.074 214.441 471.299 214.441C470.5 214.441 469.834 214.648 469.301 215.062C468.769 215.471 468.366 216.027 468.094 216.732C467.828 217.436 467.694 218.223 467.694 219.093C467.694 219.987 467.831 220.771 468.103 221.446C468.375 222.12 468.778 222.647 469.31 223.026C469.849 223.405 470.512 223.594 471.299 223.594ZM486.782 226.275C485.503 226.275 484.388 225.982 483.435 225.396C482.482 224.81 481.742 223.991 481.215 222.937C480.689 221.884 480.425 220.653 480.425 219.244C480.425 217.829 480.689 216.592 481.215 215.533C481.742 214.474 482.482 213.651 483.435 213.065C484.388 212.479 485.503 212.186 486.782 212.186C488.06 212.186 489.176 212.479 490.129 213.065C491.082 213.651 491.821 214.474 492.348 215.533C492.875 216.592 493.138 217.829 493.138 219.244C493.138 220.653 492.875 221.884 492.348 222.937C491.821 223.991 491.082 224.81 490.129 225.396C489.176 225.982 488.06 226.275 486.782 226.275ZM486.791 224.047C487.619 224.047 488.306 223.828 488.85 223.39C489.395 222.952 489.797 222.369 490.058 221.641C490.324 220.913 490.457 220.111 490.457 219.235C490.457 218.365 490.324 217.566 490.058 216.838C489.797 216.104 489.395 215.515 488.85 215.071C488.306 214.627 487.619 214.406 486.791 214.406C485.956 214.406 485.264 214.627 484.713 215.071C484.169 215.515 483.763 216.104 483.497 216.838C483.237 217.566 483.106 218.365 483.106 219.235C483.106 220.111 483.237 220.913 483.497 221.641C483.763 222.369 484.169 222.952 484.713 223.39C485.264 223.828 485.956 224.047 486.791 224.047ZM501.845 226.275C500.525 226.275 499.389 225.976 498.436 225.379C497.489 224.775 496.761 223.943 496.252 222.884C495.743 221.824 495.489 220.611 495.489 219.244C495.489 217.859 495.749 216.637 496.27 215.577C496.791 214.512 497.525 213.681 498.472 213.083C499.419 212.485 500.534 212.186 501.819 212.186C502.854 212.186 503.778 212.378 504.589 212.763C505.399 213.142 506.053 213.675 506.551 214.361C507.054 215.048 507.353 215.85 507.447 216.767H504.864C504.722 216.128 504.396 215.577 503.887 215.116C503.384 214.654 502.709 214.423 501.863 214.423C501.123 214.423 500.475 214.619 499.919 215.009C499.368 215.394 498.939 215.944 498.632 216.661C498.324 217.371 498.17 218.211 498.17 219.182C498.17 220.176 498.321 221.034 498.623 221.756C498.924 222.478 499.351 223.038 499.901 223.434C500.457 223.831 501.111 224.029 501.863 224.029C502.366 224.029 502.822 223.937 503.23 223.754C503.645 223.565 503.991 223.295 504.269 222.946C504.553 222.597 504.751 222.177 504.864 221.685H507.447C507.353 222.567 507.065 223.354 506.586 224.047C506.107 224.739 505.465 225.284 504.66 225.68C503.861 226.077 502.922 226.275 501.845 226.275ZM510.286 226V212.364H512.94V226H510.286ZM511.626 210.26C511.165 210.26 510.768 210.106 510.437 209.798C510.111 209.484 509.949 209.111 509.949 208.679C509.949 208.241 510.111 207.868 510.437 207.561C510.768 207.247 511.165 207.09 511.626 207.09C512.088 207.09 512.482 207.247 512.807 207.561C513.139 207.868 513.304 208.241 513.304 208.679C513.304 209.111 513.139 209.484 512.807 209.798C512.482 210.106 512.088 210.26 511.626 210.26ZM522.255 226.275C520.977 226.275 519.861 225.982 518.909 225.396C517.956 224.81 517.216 223.991 516.689 222.937C516.162 221.884 515.899 220.653 515.899 219.244C515.899 217.829 516.162 216.592 516.689 215.533C517.216 214.474 517.956 213.651 518.909 213.065C519.861 212.479 520.977 212.186 522.255 212.186C523.534 212.186 524.65 212.479 525.602 213.065C526.555 213.651 527.295 214.474 527.822 215.533C528.349 216.592 528.612 217.829 528.612 219.244C528.612 220.653 528.349 221.884 527.822 222.937C527.295 223.991 526.555 224.81 525.602 225.396C524.65 225.982 523.534 226.275 522.255 226.275ZM522.264 224.047C523.093 224.047 523.779 223.828 524.324 223.39C524.869 222.952 525.271 222.369 525.531 221.641C525.798 220.913 525.931 220.111 525.931 219.235C525.931 218.365 525.798 217.566 525.531 216.838C525.271 216.104 524.869 215.515 524.324 215.071C523.779 214.627 523.093 214.406 522.264 214.406C521.43 214.406 520.737 214.627 520.187 215.071C519.642 215.515 519.237 216.104 518.971 216.838C518.71 217.566 518.58 218.365 518.58 219.235C518.58 220.111 518.71 220.913 518.971 221.641C519.237 222.369 519.642 222.952 520.187 223.39C520.737 223.828 521.43 224.047 522.264 224.047Z" fill="#0E95C1"/>
<defs>
<filter id="filter0_d_411_4" x="35.2278" y="34.4053" width="279" height="279" filterUnits="userSpaceOnUse" color-interpolation-filters="sRGB">
<feFlood flood-opacity="0" result="BackgroundImageFix"/>
<feColorMatrix in="SourceAlpha" type="matrix" values="0 0 0 0 0 0 0 0 0 0 0 0 0 0 0 0 0 0 127 0" result="hardAlpha"/>
<feOffset dy="4"/>
<feGaussianBlur stdDeviation="15"/>
<feComposite in2="hardAlpha" operator="out"/>
<feColorMatrix type="matrix" values="0 0 0 0 0 0 0 0 0 0 0 0 0 0 0 0 0 0 0.5 0"/>
<feBlend mode="normal" in2="BackgroundImageFix" result="effect1_dropShadow_411_4"/>
<feBlend mode="normal" in="SourceGraphic" in2="effect1_dropShadow_411_4" result="shape"/>
</filter>
<filter id="filter1_d_411_4" x="342.228" y="34.4053" width="279" height="279" filterUnits="userSpaceOnUse" color-interpolation-filters="sRGB">
<feFlood flood-opacity="0" result="BackgroundImageFix"/>
<feColorMatrix in="SourceAlpha" type="matrix" values="0 0 0 0 0 0 0 0 0 0 0 0 0 0 0 0 0 0 127 0" result="hardAlpha"/>
<feOffset dy="4"/>
<feGaussianBlur stdDeviation="15"/>
<feComposite in2="hardAlpha" operator="out"/>
<feColorMatrix type="matrix" values="0 0 0 0 0 0 0 0 0 0 0 0 0 0 0 0 0 0 0.5 0"/>
<feBlend mode="normal" in2="BackgroundImageFix" result="effect1_dropShadow_411_4"/>
<feBlend mode="normal" in="SourceGraphic" in2="effect1_dropShadow_411_4" result="shape"/>
</filter>
<filter id="filter2_d_411_4" x="649.228" y="34.4053" width="279" height="279" filterUnits="userSpaceOnUse" color-interpolation-filters="sRGB">
<feFlood flood-opacity="0" result="BackgroundImageFix"/>
<feColorMatrix in="SourceAlpha" type="matrix" values="0 0 0 0 0 0 0 0 0 0 0 0 0 0 0 0 0 0 127 0" result="hardAlpha"/>
<feOffset dy="4"/>
<feGaussianBlur stdDeviation="15"/>
<feComposite in2="hardAlpha" operator="out"/>
<feColorMatrix type="matrix" values="0 0 0 0 0 0 0 0 0 0 0 0 0 0 0 0 0 0 0.5 0"/>
<feBlend mode="normal" in2="BackgroundImageFix" result="effect1_dropShadow_411_4"/>
<feBlend mode="normal" in="SourceGraphic" in2="effect1_dropShadow_411_4" result="shape"/>
</filter>
<filter id="filter3_d_411_4" x="-0.00427246" y="175.441" width="351.43" height="177.104" filterUnits="userSpaceOnUse" color-interpolation-filters="sRGB">
<feFlood flood-opacity="0" result="BackgroundImageFix"/>
<feColorMatrix in="SourceAlpha" type="matrix" values="0 0 0 0 0 0 0 0 0 0 0 0 0 0 0 0 0 0 127 0" result="hardAlpha"/>
<feOffset dy="4"/>
<feGaussianBlur stdDeviation="2"/>
<feComposite in2="hardAlpha" operator="out"/>
<feColorMatrix type="matrix" values="0 0 0 0 0 0 0 0 0 0 0 0 0 0 0 0 0 0 0.5 0"/>
<feBlend mode="normal" in2="BackgroundImageFix" result="effect1_dropShadow_411_4"/>
<feBlend mode="normal" in="SourceGraphic" in2="effect1_dropShadow_411_4" result="shape"/>
</filter>
<filter id="filter4_d_411_4" x="303.757" y="1.5061" width="354.736" height="188.477" filterUnits="userSpaceOnUse" color-interpolation-filters="sRGB">
<feFlood flood-opacity="0" result="BackgroundImageFix"/>
<feColorMatrix in="SourceAlpha" type="matrix" values="0 0 0 0 0 0 0 0 0 0 0 0 0 0 0 0 0 0 127 0" result="hardAlpha"/>
<feOffset dy="4"/>
<feGaussianBlur stdDeviation="2"/>
<feComposite in2="hardAlpha" operator="out"/>
<feColorMatrix type="matrix" values="0 0 0 0 0 0 0 0 0 0 0 0 0 0 0 0 0 0 0.5 0"/>
<feBlend mode="normal" in2="BackgroundImageFix" result="effect1_dropShadow_411_4"/>
<feBlend mode="normal" in="SourceGraphic" in2="effect1_dropShadow_411_4" result="shape"/>
</filter>
<filter id="filter5_d_411_4" x="611.228" y="159.405" width="351.618" height="193.034" filterUnits="userSpaceOnUse" color-interpolation-filters="sRGB">
<feFlood flood-opacity="0" result="BackgroundImageFix"/>
<feColorMatrix in="SourceAlpha" type="matrix" values="0 0 0 0 0 0 0 0 0 0 0 0 0 0 0 0 0 0 127 0" result="hardAlpha"/>
<feOffset dy="4"/>
<feGaussianBlur stdDeviation="2"/>
<feComposite in2="hardAlpha" operator="out"/>
<feColorMatrix type="matrix" values="0 0 0 0 0 0 0 0 0 0 0 0 0 0 0 0 0 0 0.5 0"/>
<feBlend mode="normal" in2="BackgroundImageFix" result="effect1_dropShadow_411_4"/>
<feBlend mode="normal" in="SourceGraphic" in2="effect1_dropShadow_411_4" result="shape"/>
</filter>
</defs>
</svg>
