<svg width="963" height="352" viewBox="0 0 963 352" fill="none" xmlns="http://www.w3.org/2000/svg">
<g filter="url(#filter0_d_167_40)">
<circle cx="174.728" cy="168.905" r="109.5" fill="white"/>
</g>
<g filter="url(#filter1_d_167_40)">
<circle cx="481.728" cy="168.905" r="109.5" fill="white"/>
</g>
<g filter="url(#filter2_d_167_40)">
<circle cx="788.728" cy="168.905" r="109.5" fill="white"/>
</g>
<path d="M108.159 138.405V120.223H114.64C116.048 120.223 117.217 120.466 118.146 120.951C119.082 121.437 119.78 122.109 120.242 122.967C120.703 123.819 120.934 124.804 120.934 125.923C120.934 127.036 120.7 128.015 120.233 128.862C119.771 129.702 119.073 130.356 118.138 130.824C117.208 131.291 116.039 131.525 114.631 131.525H109.721V129.163H114.382C115.27 129.163 115.992 129.036 116.548 128.782C117.111 128.527 117.522 128.157 117.782 127.672C118.043 127.187 118.173 126.604 118.173 125.923C118.173 125.236 118.04 124.642 117.774 124.139C117.513 123.636 117.102 123.251 116.54 122.984C115.983 122.712 115.252 122.576 114.347 122.576H110.902V138.405H108.159ZM117.134 130.202L121.627 138.405H118.502L114.098 130.202H117.134ZM129.765 138.68C128.422 138.68 127.265 138.393 126.294 137.819C125.329 137.239 124.584 136.426 124.057 135.378C123.536 134.324 123.276 133.09 123.276 131.676C123.276 130.279 123.536 129.048 124.057 127.983C124.584 126.917 125.318 126.086 126.259 125.488C127.206 124.89 128.312 124.591 129.579 124.591C130.348 124.591 131.094 124.719 131.816 124.973C132.538 125.228 133.186 125.627 133.76 126.172C134.334 126.716 134.787 127.423 135.119 128.293C135.45 129.158 135.616 130.208 135.616 131.445V132.386H124.776V130.397H133.015C133.015 129.699 132.873 129.081 132.588 128.542C132.304 127.997 131.905 127.568 131.39 127.255C130.881 126.941 130.283 126.784 129.597 126.784C128.851 126.784 128.2 126.968 127.644 127.335C127.093 127.696 126.667 128.169 126.365 128.755C126.069 129.335 125.921 129.965 125.921 130.646V132.2C125.921 133.111 126.081 133.886 126.401 134.526C126.726 135.165 127.179 135.653 127.759 135.991C128.339 136.322 129.017 136.488 129.792 136.488C130.295 136.488 130.754 136.417 131.168 136.275C131.582 136.127 131.94 135.908 132.242 135.618C132.544 135.328 132.775 134.97 132.935 134.543L135.447 134.996C135.246 135.736 134.885 136.384 134.364 136.94C133.849 137.491 133.201 137.92 132.42 138.228C131.644 138.53 130.76 138.68 129.765 138.68ZM142.529 138.707C141.665 138.707 140.884 138.547 140.186 138.228C139.487 137.902 138.934 137.432 138.526 136.816C138.123 136.201 137.922 135.446 137.922 134.552C137.922 133.783 138.07 133.15 138.366 132.652C138.662 132.155 139.061 131.762 139.564 131.472C140.067 131.182 140.63 130.963 141.251 130.815C141.872 130.667 142.506 130.554 143.151 130.477C143.968 130.383 144.631 130.306 145.14 130.247C145.649 130.181 146.018 130.078 146.249 129.936C146.48 129.794 146.596 129.563 146.596 129.243V129.181C146.596 128.406 146.377 127.805 145.939 127.379C145.506 126.953 144.861 126.74 144.003 126.74C143.109 126.74 142.405 126.938 141.89 127.335C141.381 127.725 141.029 128.16 140.834 128.64L138.339 128.071C138.635 127.243 139.067 126.574 139.635 126.065C140.209 125.55 140.869 125.177 141.615 124.946C142.361 124.71 143.145 124.591 143.968 124.591C144.512 124.591 145.089 124.656 145.699 124.787C146.314 124.911 146.888 125.142 147.421 125.479C147.96 125.816 148.401 126.299 148.744 126.926C149.087 127.548 149.259 128.356 149.259 129.35V138.405H146.667V136.541H146.56C146.388 136.884 146.131 137.222 145.788 137.553C145.444 137.884 145.003 138.16 144.465 138.379C143.926 138.598 143.281 138.707 142.529 138.707ZM143.107 136.576C143.84 136.576 144.468 136.431 144.989 136.141C145.515 135.851 145.915 135.473 146.187 135.005C146.465 134.532 146.604 134.026 146.604 133.487V131.729C146.51 131.824 146.326 131.913 146.054 131.995C145.788 132.072 145.483 132.14 145.14 132.2C144.796 132.253 144.462 132.303 144.136 132.351C143.811 132.392 143.539 132.428 143.32 132.457C142.805 132.522 142.334 132.632 141.908 132.786C141.488 132.939 141.15 133.161 140.896 133.451C140.647 133.736 140.523 134.114 140.523 134.588C140.523 135.245 140.766 135.742 141.251 136.079C141.736 136.411 142.355 136.576 143.107 136.576ZM155.449 120.223V138.405H152.794V120.223H155.449ZM159.02 138.405V124.769H161.675V138.405H159.02ZM160.361 122.665C159.899 122.665 159.502 122.511 159.171 122.203C158.845 121.89 158.683 121.517 158.683 121.085C158.683 120.647 158.845 120.274 159.171 119.966C159.502 119.652 159.899 119.495 160.361 119.495C160.822 119.495 161.216 119.652 161.541 119.966C161.873 120.274 162.039 120.647 162.039 121.085C162.039 121.517 161.873 121.89 161.541 122.203C161.216 122.511 160.822 122.665 160.361 122.665ZM164.962 138.405V136.585L172.348 127.201V127.077H165.201V124.769H175.659V126.704L168.557 135.973V136.097H175.908V138.405H164.962ZM183.008 138.707C182.144 138.707 181.363 138.547 180.664 138.228C179.966 137.902 179.412 137.432 179.004 136.816C178.602 136.201 178.4 135.446 178.4 134.552C178.4 133.783 178.548 133.15 178.844 132.652C179.14 132.155 179.54 131.762 180.043 131.472C180.546 131.182 181.108 130.963 181.73 130.815C182.351 130.667 182.984 130.554 183.629 130.477C184.446 130.383 185.109 130.306 185.618 130.247C186.127 130.181 186.497 130.078 186.728 129.936C186.959 129.794 187.074 129.563 187.074 129.243V129.181C187.074 128.406 186.855 127.805 186.417 127.379C185.985 126.953 185.34 126.74 184.482 126.74C183.588 126.74 182.884 126.938 182.369 127.335C181.86 127.725 181.508 128.16 181.312 128.64L178.818 128.071C179.114 127.243 179.546 126.574 180.114 126.065C180.688 125.55 181.348 125.177 182.094 124.946C182.839 124.71 183.623 124.591 184.446 124.591C184.991 124.591 185.568 124.656 186.177 124.787C186.793 124.911 187.367 125.142 187.9 125.479C188.438 125.816 188.879 126.299 189.222 126.926C189.566 127.548 189.737 128.356 189.737 129.35V138.405H187.145V136.541H187.039C186.867 136.884 186.609 137.222 186.266 137.553C185.923 137.884 185.482 138.16 184.943 138.379C184.405 138.598 183.76 138.707 183.008 138.707ZM183.585 136.576C184.319 136.576 184.946 136.431 185.467 136.141C185.994 135.851 186.393 135.473 186.666 135.005C186.944 134.532 187.083 134.026 187.083 133.487V131.729C186.988 131.824 186.805 131.913 186.532 131.995C186.266 132.072 185.961 132.14 185.618 132.2C185.275 132.253 184.94 132.303 184.615 132.351C184.289 132.392 184.017 132.428 183.798 132.457C183.283 132.522 182.813 132.632 182.387 132.786C181.966 132.939 181.629 133.161 181.374 133.451C181.126 133.736 181.002 134.114 181.002 134.588C181.002 135.245 181.244 135.742 181.73 136.079C182.215 136.411 182.833 136.576 183.585 136.576ZM206.255 124.769V126.9H198.806V124.769H206.255ZM200.804 121.502H203.458V134.401C203.458 134.916 203.535 135.304 203.689 135.564C203.843 135.819 204.041 135.993 204.284 136.088C204.532 136.177 204.802 136.221 205.092 136.221C205.305 136.221 205.491 136.207 205.651 136.177C205.811 136.147 205.935 136.124 206.024 136.106L206.503 138.299C206.349 138.358 206.13 138.417 205.846 138.476C205.562 138.541 205.207 138.577 204.781 138.583C204.082 138.595 203.431 138.47 202.828 138.21C202.224 137.95 201.736 137.547 201.363 137.003C200.99 136.458 200.804 135.774 200.804 134.952V121.502ZM217.829 132.75V124.769H220.492V138.405H217.882V136.044H217.74C217.427 136.772 216.924 137.378 216.231 137.864C215.545 138.343 214.689 138.583 213.665 138.583C212.789 138.583 212.014 138.39 211.339 138.006C210.671 137.615 210.144 137.038 209.759 136.275C209.38 135.511 209.191 134.567 209.191 133.443V124.769H211.845V133.123C211.845 134.052 212.103 134.792 212.618 135.342C213.133 135.893 213.801 136.168 214.624 136.168C215.121 136.168 215.616 136.044 216.107 135.795C216.604 135.547 217.015 135.171 217.341 134.668C217.672 134.165 217.835 133.525 217.829 132.75ZM234.277 128.098L231.872 128.524C231.771 128.216 231.611 127.924 231.392 127.645C231.179 127.367 230.889 127.139 230.522 126.962C230.155 126.784 229.697 126.695 229.146 126.695C228.394 126.695 227.767 126.864 227.264 127.201C226.761 127.533 226.509 127.962 226.509 128.489C226.509 128.944 226.678 129.311 227.015 129.59C227.353 129.868 227.897 130.096 228.649 130.273L230.815 130.77C232.07 131.06 233.005 131.507 233.621 132.111C234.236 132.715 234.544 133.499 234.544 134.464C234.544 135.28 234.307 136.008 233.834 136.647C233.366 137.281 232.712 137.778 231.872 138.139C231.037 138.5 230.069 138.68 228.969 138.68C227.442 138.68 226.196 138.355 225.231 137.704C224.266 137.047 223.674 136.115 223.455 134.907L226.021 134.517C226.181 135.186 226.509 135.692 227.007 136.035C227.504 136.372 228.152 136.541 228.951 136.541C229.821 136.541 230.516 136.36 231.037 135.999C231.558 135.632 231.818 135.186 231.818 134.659C231.818 134.233 231.659 133.875 231.339 133.585C231.025 133.295 230.543 133.076 229.892 132.928L227.584 132.422C226.311 132.132 225.37 131.67 224.76 131.037C224.157 130.403 223.855 129.601 223.855 128.631C223.855 127.826 224.08 127.122 224.53 126.518C224.979 125.914 225.601 125.444 226.394 125.106C227.187 124.763 228.096 124.591 229.119 124.591C230.593 124.591 231.753 124.911 232.6 125.55C233.446 126.183 234.005 127.033 234.277 128.098ZM104.766 168.68C103.488 168.68 102.372 168.388 101.42 167.802C100.467 167.216 99.7268 166.396 99.2 165.342C98.6733 164.289 98.4099 163.058 98.4099 161.649C98.4099 160.235 98.6733 158.998 99.2 157.938C99.7268 156.879 100.467 156.056 101.42 155.47C102.372 154.884 103.488 154.591 104.766 154.591C106.045 154.591 107.161 154.884 108.113 155.47C109.066 156.056 109.806 156.879 110.333 157.938C110.86 158.998 111.123 160.235 111.123 161.649C111.123 163.058 110.86 164.289 110.333 165.342C109.806 166.396 109.066 167.216 108.113 167.802C107.161 168.388 106.045 168.68 104.766 168.68ZM104.775 166.452C105.604 166.452 106.29 166.233 106.835 165.795C107.379 165.357 107.782 164.774 108.042 164.046C108.309 163.318 108.442 162.516 108.442 161.64C108.442 160.77 108.309 159.971 108.042 159.243C107.782 158.509 107.379 157.921 106.835 157.477C106.29 157.033 105.604 156.811 104.775 156.811C103.941 156.811 103.248 157.033 102.698 157.477C102.153 157.921 101.748 158.509 101.482 159.243C101.221 159.971 101.091 160.77 101.091 161.64C101.091 162.516 101.221 163.318 101.482 164.046C101.748 164.774 102.153 165.357 102.698 165.795C103.248 166.233 103.941 166.452 104.775 166.452ZM114.086 173.519V154.769H116.678V156.979H116.9C117.054 156.695 117.276 156.367 117.566 155.994C117.856 155.621 118.259 155.296 118.773 155.017C119.288 154.733 119.969 154.591 120.815 154.591C121.916 154.591 122.899 154.87 123.763 155.426C124.627 155.982 125.305 156.784 125.796 157.832C126.293 158.879 126.542 160.14 126.542 161.614C126.542 163.087 126.296 164.351 125.805 165.405C125.313 166.452 124.639 167.26 123.781 167.828C122.922 168.39 121.943 168.672 120.842 168.672C120.013 168.672 119.336 168.533 118.809 168.254C118.288 167.976 117.88 167.651 117.584 167.278C117.288 166.905 117.06 166.573 116.9 166.283H116.74V173.519H114.086ZM116.687 161.587C116.687 162.546 116.826 163.386 117.104 164.108C117.383 164.83 117.785 165.396 118.312 165.804C118.839 166.207 119.484 166.408 120.247 166.408C121.04 166.408 121.703 166.198 122.236 165.777C122.768 165.351 123.171 164.774 123.443 164.046C123.721 163.318 123.86 162.499 123.86 161.587C123.86 160.687 123.724 159.88 123.452 159.163C123.186 158.447 122.783 157.882 122.245 157.468C121.712 157.053 121.046 156.846 120.247 156.846C119.478 156.846 118.827 157.045 118.294 157.441C117.767 157.838 117.368 158.391 117.096 159.101C116.823 159.812 116.687 160.64 116.687 161.587ZM135.393 168.68C134.049 168.68 132.892 168.393 131.922 167.819C130.957 167.239 130.211 166.426 129.684 165.378C129.163 164.324 128.903 163.09 128.903 161.676C128.903 160.279 129.163 159.048 129.684 157.983C130.211 156.917 130.945 156.086 131.886 155.488C132.833 154.89 133.94 154.591 135.206 154.591C135.976 154.591 136.721 154.719 137.444 154.973C138.166 155.228 138.814 155.627 139.388 156.172C139.962 156.716 140.415 157.423 140.746 158.293C141.078 159.158 141.243 160.208 141.243 161.445V162.386H130.403V160.397H138.642C138.642 159.699 138.5 159.081 138.216 158.542C137.932 157.997 137.532 157.568 137.017 157.255C136.508 156.941 135.911 156.784 135.224 156.784C134.478 156.784 133.827 156.968 133.271 157.335C132.721 157.696 132.294 158.169 131.993 158.755C131.697 159.335 131.549 159.965 131.549 160.646V162.2C131.549 163.111 131.708 163.886 132.028 164.526C132.354 165.165 132.806 165.653 133.386 165.991C133.966 166.322 134.644 166.488 135.419 166.488C135.922 166.488 136.381 166.417 136.795 166.275C137.21 166.127 137.568 165.908 137.87 165.618C138.172 165.328 138.402 164.97 138.562 164.543L141.075 164.996C140.873 165.736 140.512 166.384 139.991 166.94C139.477 167.491 138.829 167.92 138.047 168.228C137.272 168.53 136.387 168.68 135.393 168.68ZM144.188 168.405V154.769H146.754V156.935H146.896C147.145 156.201 147.583 155.624 148.21 155.204C148.843 154.778 149.56 154.565 150.359 154.565C150.524 154.565 150.72 154.571 150.945 154.582C151.175 154.594 151.356 154.609 151.486 154.627V157.166C151.38 157.136 151.19 157.104 150.918 157.068C150.646 157.027 150.373 157.006 150.101 157.006C149.474 157.006 148.914 157.139 148.423 157.406C147.938 157.666 147.553 158.03 147.269 158.498C146.985 158.959 146.843 159.486 146.843 160.078V168.405H144.188ZM157.63 168.707C156.765 168.707 155.984 168.547 155.286 168.228C154.587 167.902 154.034 167.432 153.626 166.816C153.223 166.201 153.022 165.446 153.022 164.552C153.022 163.783 153.17 163.15 153.466 162.652C153.762 162.155 154.161 161.762 154.664 161.472C155.167 161.182 155.73 160.963 156.351 160.815C156.973 160.667 157.606 160.554 158.251 160.477C159.068 160.383 159.731 160.306 160.24 160.247C160.749 160.181 161.119 160.078 161.349 159.936C161.58 159.794 161.696 159.563 161.696 159.243V159.181C161.696 158.406 161.477 157.805 161.039 157.379C160.607 156.953 159.961 156.74 159.103 156.74C158.21 156.74 157.505 156.938 156.99 157.335C156.481 157.725 156.129 158.16 155.934 158.64L153.439 158.071C153.735 157.243 154.167 156.574 154.735 156.065C155.309 155.55 155.969 155.177 156.715 154.946C157.461 154.71 158.245 154.591 159.068 154.591C159.612 154.591 160.189 154.656 160.799 154.787C161.414 154.911 161.989 155.142 162.521 155.479C163.06 155.816 163.501 156.299 163.844 156.926C164.187 157.548 164.359 158.356 164.359 159.35V168.405H161.767V166.541H161.66C161.488 166.884 161.231 167.222 160.888 167.553C160.544 167.884 160.104 168.16 159.565 168.379C159.026 168.598 158.381 168.707 157.63 168.707ZM158.207 166.576C158.941 166.576 159.568 166.431 160.089 166.141C160.615 165.851 161.015 165.473 161.287 165.005C161.565 164.532 161.704 164.026 161.704 163.487V161.729C161.61 161.824 161.426 161.913 161.154 161.995C160.888 162.072 160.583 162.14 160.24 162.2C159.896 162.253 159.562 162.303 159.236 162.351C158.911 162.392 158.639 162.428 158.42 162.457C157.905 162.522 157.434 162.632 157.008 162.786C156.588 162.939 156.251 163.161 155.996 163.451C155.747 163.736 155.623 164.114 155.623 164.588C155.623 165.245 155.866 165.742 156.351 166.079C156.836 166.411 157.455 166.576 158.207 166.576ZM173.639 168.68C172.319 168.68 171.182 168.382 170.229 167.784C169.282 167.18 168.554 166.349 168.045 165.289C167.536 164.23 167.282 163.016 167.282 161.649C167.282 160.264 167.542 159.042 168.063 157.983C168.584 156.917 169.318 156.086 170.265 155.488C171.212 154.89 172.328 154.591 173.612 154.591C174.648 154.591 175.571 154.784 176.382 155.168C177.193 155.547 177.847 156.08 178.344 156.766C178.847 157.453 179.146 158.255 179.24 159.172H176.657C176.515 158.533 176.189 157.983 175.68 157.521C175.177 157.059 174.503 156.829 173.656 156.829C172.916 156.829 172.268 157.024 171.712 157.415C171.162 157.799 170.733 158.35 170.425 159.066C170.117 159.776 169.963 160.616 169.963 161.587C169.963 162.581 170.114 163.44 170.416 164.162C170.718 164.884 171.144 165.443 171.694 165.84C172.251 166.236 172.905 166.434 173.656 166.434C174.159 166.434 174.615 166.343 175.023 166.159C175.438 165.97 175.784 165.7 176.062 165.351C176.346 165.002 176.545 164.582 176.657 164.091H179.24C179.146 164.973 178.859 165.76 178.379 166.452C177.9 167.145 177.258 167.689 176.453 168.086C175.654 168.482 174.716 168.68 173.639 168.68ZM182.079 168.405V154.769H184.734V168.405H182.079ZM183.42 152.665C182.958 152.665 182.561 152.511 182.23 152.203C181.905 151.89 181.742 151.517 181.742 151.085C181.742 150.647 181.905 150.274 182.23 149.966C182.561 149.652 182.958 149.495 183.42 149.495C183.881 149.495 184.275 149.652 184.6 149.966C184.932 150.274 185.098 150.647 185.098 151.085C185.098 151.517 184.932 151.89 184.6 152.203C184.275 152.511 183.881 152.665 183.42 152.665ZM194.049 168.68C192.77 168.68 191.655 168.388 190.702 167.802C189.749 167.216 189.009 166.396 188.482 165.342C187.956 164.289 187.692 163.058 187.692 161.649C187.692 160.235 187.956 158.998 188.482 157.938C189.009 156.879 189.749 156.056 190.702 155.47C191.655 154.884 192.77 154.591 194.049 154.591C195.327 154.591 196.443 154.884 197.396 155.47C198.349 156.056 199.088 156.879 199.615 157.938C200.142 158.998 200.405 160.235 200.405 161.649C200.405 163.058 200.142 164.289 199.615 165.342C199.088 166.396 198.349 167.216 197.396 167.802C196.443 168.388 195.327 168.68 194.049 168.68ZM194.058 166.452C194.886 166.452 195.573 166.233 196.117 165.795C196.662 165.357 197.064 164.774 197.325 164.046C197.591 163.318 197.724 162.516 197.724 161.64C197.724 160.77 197.591 159.971 197.325 159.243C197.064 158.509 196.662 157.921 196.117 157.477C195.573 157.033 194.886 156.811 194.058 156.811C193.223 156.811 192.531 157.033 191.98 157.477C191.436 157.921 191.03 158.509 190.764 159.243C190.503 159.971 190.373 160.77 190.373 161.64C190.373 162.516 190.503 163.318 190.764 164.046C191.03 164.774 191.436 165.357 191.98 165.795C192.531 166.233 193.223 166.452 194.058 166.452ZM206.023 160.309V168.405H203.368V154.769H205.916V156.988H206.085C206.398 156.266 206.89 155.686 207.559 155.248C208.233 154.81 209.083 154.591 210.106 154.591C211.036 154.591 211.849 154.787 212.548 155.177C213.246 155.562 213.788 156.136 214.173 156.9C214.557 157.663 214.75 158.607 214.75 159.732V168.405H212.095V160.051C212.095 159.063 211.838 158.29 211.323 157.734C210.808 157.172 210.101 156.891 209.201 156.891C208.585 156.891 208.038 157.024 207.559 157.29C207.085 157.557 206.709 157.947 206.431 158.462C206.159 158.971 206.023 159.587 206.023 160.309ZM224.187 168.68C222.843 168.68 221.686 168.393 220.715 167.819C219.751 167.239 219.005 166.426 218.478 165.378C217.957 164.324 217.697 163.09 217.697 161.676C217.697 160.279 217.957 159.048 218.478 157.983C219.005 156.917 219.739 156.086 220.68 155.488C221.627 154.89 222.734 154.591 224 154.591C224.77 154.591 225.515 154.719 226.238 154.973C226.96 155.228 227.608 155.627 228.182 156.172C228.756 156.716 229.209 157.423 229.54 158.293C229.872 159.158 230.037 160.208 230.037 161.445V162.386H219.197V160.397H227.436C227.436 159.699 227.294 159.081 227.01 158.542C226.726 157.997 226.326 157.568 225.811 157.255C225.302 156.941 224.705 156.784 224.018 156.784C223.272 156.784 222.621 156.968 222.065 157.335C221.514 157.696 221.088 158.169 220.787 158.755C220.491 159.335 220.343 159.965 220.343 160.646V162.2C220.343 163.111 220.502 163.886 220.822 164.526C221.148 165.165 221.6 165.653 222.18 165.991C222.76 166.322 223.438 166.488 224.213 166.488C224.716 166.488 225.175 166.417 225.589 166.275C226.004 166.127 226.362 165.908 226.664 165.618C226.965 165.328 227.196 164.97 227.356 164.543L229.869 164.996C229.667 165.736 229.306 166.384 228.785 166.94C228.271 167.491 227.622 167.92 226.841 168.228C226.066 168.53 225.181 168.68 224.187 168.68ZM243.201 158.098L240.795 158.524C240.694 158.216 240.535 157.924 240.316 157.645C240.102 157.367 239.812 157.139 239.446 156.962C239.079 156.784 238.62 156.695 238.069 156.695C237.318 156.695 236.69 156.864 236.187 157.201C235.684 157.533 235.433 157.962 235.433 158.489C235.433 158.944 235.601 159.311 235.939 159.59C236.276 159.868 236.821 160.096 237.572 160.273L239.738 160.77C240.993 161.06 241.928 161.507 242.544 162.111C243.159 162.715 243.467 163.499 243.467 164.464C243.467 165.28 243.23 166.008 242.757 166.647C242.289 167.281 241.635 167.778 240.795 168.139C239.96 168.5 238.993 168.68 237.892 168.68C236.365 168.68 235.119 168.355 234.154 167.704C233.19 167.047 232.598 166.115 232.379 164.907L234.944 164.517C235.104 165.186 235.433 165.692 235.93 166.035C236.427 166.372 237.075 166.541 237.874 166.541C238.744 166.541 239.44 166.36 239.96 165.999C240.481 165.632 240.742 165.186 240.742 164.659C240.742 164.233 240.582 163.875 240.262 163.585C239.949 163.295 239.466 163.076 238.815 162.928L236.507 162.422C235.234 162.132 234.293 161.67 233.684 161.037C233.08 160.403 232.778 159.601 232.778 158.631C232.778 157.826 233.003 157.122 233.453 156.518C233.903 155.914 234.524 155.444 235.317 155.106C236.11 154.763 237.019 154.591 238.043 154.591C239.517 154.591 240.677 154.911 241.523 155.55C242.369 156.183 242.929 157.033 243.201 158.098ZM82.3255 198.672C81.2246 198.672 80.2422 198.39 79.378 197.828C78.5198 197.26 77.8451 196.452 77.3539 195.405C76.8686 194.351 76.6259 193.087 76.6259 191.614C76.6259 190.14 76.8715 188.879 77.3628 187.832C77.8599 186.784 78.5406 185.982 79.4047 185.426C80.2688 184.87 81.2483 184.591 82.3432 184.591C83.1896 184.591 83.8702 184.733 84.3851 185.017C84.906 185.296 85.3084 185.621 85.5925 185.994C85.8825 186.367 86.1074 186.695 86.2672 186.979H86.427V180.223H89.0815V198.405H86.4892V196.283H86.2672C86.1074 196.573 85.8766 196.905 85.5748 197.278C85.2788 197.651 84.8705 197.976 84.3496 198.254C83.8288 198.533 83.1541 198.672 82.3255 198.672ZM82.9114 196.408C83.6749 196.408 84.32 196.207 84.8468 195.804C85.3795 195.396 85.7819 194.83 86.0542 194.108C86.3323 193.386 86.4714 192.546 86.4714 191.587C86.4714 190.64 86.3353 189.812 86.0631 189.101C85.7908 188.391 85.3913 187.838 84.8645 187.441C84.3378 187.045 83.6868 186.846 82.9114 186.846C82.1124 186.846 81.4466 187.053 80.9139 187.468C80.3812 187.882 79.9788 188.447 79.7065 189.163C79.4402 189.88 79.307 190.687 79.307 191.587C79.307 192.499 79.4431 193.318 79.7154 194.046C79.9877 194.774 80.3901 195.351 80.9228 195.777C81.4614 196.198 82.1243 196.408 82.9114 196.408ZM98.7473 198.68C97.4038 198.68 96.2467 198.393 95.276 197.819C94.3113 197.239 93.5656 196.426 93.0388 195.378C92.518 194.324 92.2576 193.09 92.2576 191.676C92.2576 190.279 92.518 189.048 93.0388 187.983C93.5656 186.917 94.2995 186.086 95.2405 185.488C96.1875 184.89 97.2943 184.591 98.5608 184.591C99.3302 184.591 100.076 184.719 100.798 184.973C101.52 185.228 102.168 185.627 102.742 186.172C103.316 186.716 103.769 187.423 104.101 188.293C104.432 189.158 104.598 190.208 104.598 191.445V192.386H93.7579V190.397H101.997C101.997 189.699 101.855 189.081 101.57 188.542C101.286 187.997 100.887 187.568 100.372 187.255C99.8629 186.941 99.2651 186.784 98.5786 186.784C97.8329 186.784 97.1818 186.968 96.6255 187.335C96.075 187.696 95.6489 188.169 95.3471 188.755C95.0511 189.335 94.9032 189.965 94.9032 190.646V192.2C94.9032 193.111 95.063 193.886 95.3826 194.526C95.7081 195.165 96.1609 195.653 96.7409 195.991C97.3209 196.322 97.9986 196.488 98.7739 196.488C99.277 196.488 99.7357 196.417 100.15 196.275C100.564 196.127 100.922 195.908 101.224 195.618C101.526 195.328 101.757 194.97 101.917 194.543L104.429 194.996C104.228 195.736 103.867 196.384 103.346 196.94C102.831 197.491 102.183 197.92 101.402 198.228C100.626 198.53 99.7416 198.68 98.7473 198.68ZM117.761 188.098L115.355 188.524C115.255 188.216 115.095 187.924 114.876 187.645C114.663 187.367 114.373 187.139 114.006 186.962C113.639 186.784 113.18 186.695 112.63 186.695C111.878 186.695 111.251 186.864 110.748 187.201C110.245 187.533 109.993 187.962 109.993 188.489C109.993 188.944 110.162 189.311 110.499 189.59C110.837 189.868 111.381 190.096 112.133 190.273L114.299 190.77C115.554 191.06 116.489 191.507 117.104 192.111C117.72 192.715 118.028 193.499 118.028 194.464C118.028 195.28 117.791 196.008 117.317 196.647C116.85 197.281 116.196 197.778 115.355 198.139C114.521 198.5 113.553 198.68 112.452 198.68C110.925 198.68 109.68 198.355 108.715 197.704C107.75 197.047 107.158 196.115 106.939 194.907L109.505 194.517C109.665 195.186 109.993 195.692 110.49 196.035C110.988 196.372 111.636 196.541 112.435 196.541C113.305 196.541 114 196.36 114.521 195.999C115.042 195.632 115.302 195.186 115.302 194.659C115.302 194.233 115.142 193.875 114.823 193.585C114.509 193.295 114.027 193.076 113.376 192.928L111.067 192.422C109.795 192.132 108.854 191.67 108.244 191.037C107.641 190.403 107.339 189.601 107.339 188.631C107.339 187.826 107.564 187.122 108.014 186.518C108.463 185.914 109.085 185.444 109.878 185.106C110.671 184.763 111.579 184.591 112.603 184.591C114.077 184.591 115.237 184.911 116.083 185.55C116.93 186.183 117.489 187.033 117.761 188.098ZM126.051 198.672C124.95 198.672 123.968 198.39 123.104 197.828C122.245 197.26 121.571 196.452 121.079 195.405C120.594 194.351 120.351 193.087 120.351 191.614C120.351 190.14 120.597 188.879 121.088 187.832C121.586 186.784 122.266 185.982 123.13 185.426C123.994 184.87 124.974 184.591 126.069 184.591C126.915 184.591 127.596 184.733 128.111 185.017C128.632 185.296 129.034 185.621 129.318 185.994C129.608 186.367 129.833 186.695 129.993 186.979H130.153V180.223H132.807V198.405H130.215V196.283H129.993C129.833 196.573 129.602 196.905 129.3 197.278C129.004 197.651 128.596 197.976 128.075 198.254C127.554 198.533 126.88 198.672 126.051 198.672ZM126.637 196.408C127.401 196.408 128.046 196.207 128.572 195.804C129.105 195.396 129.508 194.83 129.78 194.108C130.058 193.386 130.197 192.546 130.197 191.587C130.197 190.64 130.061 189.812 129.789 189.101C129.516 188.391 129.117 187.838 128.59 187.441C128.063 187.045 127.412 186.846 126.637 186.846C125.838 186.846 125.172 187.053 124.639 187.468C124.107 187.882 123.704 188.447 123.432 189.163C123.166 189.88 123.033 190.687 123.033 191.587C123.033 192.499 123.169 193.318 123.441 194.046C123.713 194.774 124.116 195.351 124.648 195.777C125.187 196.198 125.85 196.408 126.637 196.408ZM142.473 198.68C141.129 198.68 139.972 198.393 139.002 197.819C138.037 197.239 137.291 196.426 136.764 195.378C136.244 194.324 135.983 193.09 135.983 191.676C135.983 190.279 136.244 189.048 136.764 187.983C137.291 186.917 138.025 186.086 138.966 185.488C139.913 184.89 141.02 184.591 142.286 184.591C143.056 184.591 143.802 184.719 144.524 184.973C145.246 185.228 145.894 185.627 146.468 186.172C147.042 186.716 147.495 187.423 147.826 188.293C148.158 189.158 148.323 190.208 148.323 191.445V192.386H137.484V190.397H145.722C145.722 189.699 145.58 189.081 145.296 188.542C145.012 187.997 144.612 187.568 144.098 187.255C143.589 186.941 142.991 186.784 142.304 186.784C141.558 186.784 140.907 186.968 140.351 187.335C139.801 187.696 139.374 188.169 139.073 188.755C138.777 189.335 138.629 189.965 138.629 190.646V192.2C138.629 193.111 138.789 193.886 139.108 194.526C139.434 195.165 139.886 195.653 140.466 195.991C141.046 196.322 141.724 196.488 142.499 196.488C143.003 196.488 143.461 196.417 143.876 196.275C144.29 196.127 144.648 195.908 144.95 195.618C145.252 195.328 145.482 194.97 145.642 194.543L148.155 194.996C147.953 195.736 147.592 196.384 147.072 196.94C146.557 197.491 145.909 197.92 145.127 198.228C144.352 198.53 143.467 198.68 142.473 198.68ZM163.629 198.68C162.309 198.68 161.173 198.382 160.22 197.784C159.273 197.18 158.545 196.349 158.036 195.289C157.527 194.23 157.272 193.016 157.272 191.649C157.272 190.264 157.533 189.042 158.053 187.983C158.574 186.917 159.308 186.086 160.255 185.488C161.202 184.89 162.318 184.591 163.602 184.591C164.638 184.591 165.561 184.784 166.372 185.168C167.183 185.547 167.837 186.08 168.334 186.766C168.837 187.453 169.136 188.255 169.231 189.172H166.647C166.505 188.533 166.18 187.983 165.671 187.521C165.168 187.059 164.493 186.829 163.647 186.829C162.907 186.829 162.259 187.024 161.702 187.415C161.152 187.799 160.723 188.35 160.415 189.066C160.107 189.776 159.953 190.616 159.953 191.587C159.953 192.581 160.104 193.44 160.406 194.162C160.708 194.884 161.134 195.443 161.685 195.84C162.241 196.236 162.895 196.434 163.647 196.434C164.15 196.434 164.605 196.343 165.014 196.159C165.428 195.97 165.774 195.7 166.052 195.351C166.336 195.002 166.535 194.582 166.647 194.091H169.231C169.136 194.973 168.849 195.76 168.37 196.452C167.89 197.145 167.248 197.689 166.443 198.086C165.644 198.482 164.706 198.68 163.629 198.68ZM180.707 192.75V184.769H183.371V198.405H180.761V196.044H180.619C180.305 196.772 179.802 197.378 179.109 197.864C178.423 198.343 177.568 198.583 176.544 198.583C175.668 198.583 174.893 198.39 174.218 198.006C173.549 197.615 173.022 197.038 172.638 196.275C172.259 195.511 172.069 194.567 172.069 193.443V184.769H174.724V193.123C174.724 194.052 174.981 194.792 175.496 195.342C176.011 195.893 176.68 196.168 177.503 196.168C178 196.168 178.494 196.044 178.985 195.795C179.482 195.547 179.894 195.171 180.219 194.668C180.551 194.165 180.713 193.525 180.707 192.75ZM190.906 198.707C190.042 198.707 189.261 198.547 188.562 198.228C187.864 197.902 187.31 197.432 186.902 196.816C186.5 196.201 186.298 195.446 186.298 194.552C186.298 193.783 186.446 193.15 186.742 192.652C187.038 192.155 187.438 191.762 187.941 191.472C188.444 191.182 189.006 190.963 189.628 190.815C190.249 190.667 190.882 190.554 191.527 190.477C192.344 190.383 193.007 190.306 193.516 190.247C194.025 190.181 194.395 190.078 194.626 189.936C194.857 189.794 194.972 189.563 194.972 189.243V189.181C194.972 188.406 194.753 187.805 194.315 187.379C193.883 186.953 193.238 186.74 192.38 186.74C191.486 186.74 190.782 186.938 190.267 187.335C189.758 187.725 189.406 188.16 189.21 188.64L186.716 188.071C187.012 187.243 187.444 186.574 188.012 186.065C188.586 185.55 189.246 185.177 189.991 184.946C190.737 184.71 191.521 184.591 192.344 184.591C192.889 184.591 193.466 184.656 194.075 184.787C194.691 184.911 195.265 185.142 195.798 185.479C196.336 185.816 196.777 186.299 197.12 186.926C197.464 187.548 197.635 188.356 197.635 189.35V198.405H195.043V196.541H194.936C194.765 196.884 194.507 197.222 194.164 197.553C193.821 197.884 193.38 198.16 192.841 198.379C192.303 198.598 191.658 198.707 190.906 198.707ZM191.483 196.576C192.217 196.576 192.844 196.431 193.365 196.141C193.892 195.851 194.291 195.473 194.564 195.005C194.842 194.532 194.981 194.026 194.981 193.487V191.729C194.886 191.824 194.703 191.913 194.43 191.995C194.164 192.072 193.859 192.14 193.516 192.2C193.173 192.253 192.838 192.303 192.513 192.351C192.187 192.392 191.915 192.428 191.696 192.457C191.181 192.522 190.711 192.632 190.284 192.786C189.864 192.939 189.527 193.161 189.272 193.451C189.024 193.736 188.9 194.114 188.9 194.588C188.9 195.245 189.142 195.742 189.628 196.079C190.113 196.411 190.731 196.576 191.483 196.576ZM203.825 180.223V198.405H201.171V180.223H203.825ZM216.603 203.519V196.283H216.443C216.283 196.573 216.052 196.905 215.751 197.278C215.455 197.651 215.046 197.976 214.525 198.254C214.005 198.533 213.33 198.672 212.501 198.672C211.4 198.672 210.418 198.39 209.554 197.828C208.696 197.26 208.021 196.452 207.53 195.405C207.044 194.351 206.802 193.087 206.802 191.614C206.802 190.14 207.047 188.879 207.539 187.832C208.036 186.784 208.716 185.982 209.58 185.426C210.445 184.87 211.424 184.591 212.519 184.591C213.365 184.591 214.046 184.733 214.561 185.017C215.082 185.296 215.484 185.621 215.768 185.994C216.058 186.367 216.283 186.695 216.443 186.979H216.665V184.769H219.257V203.519H216.603ZM213.087 196.408C213.851 196.408 214.496 196.207 215.023 195.804C215.555 195.396 215.958 194.83 216.23 194.108C216.508 193.386 216.647 192.546 216.647 191.587C216.647 190.64 216.511 189.812 216.239 189.101C215.967 188.391 215.567 187.838 215.04 187.441C214.514 187.045 213.863 186.846 213.087 186.846C212.288 186.846 211.622 187.053 211.09 187.468C210.557 187.882 210.155 188.447 209.882 189.163C209.616 189.88 209.483 190.687 209.483 191.587C209.483 192.499 209.619 193.318 209.891 194.046C210.163 194.774 210.566 195.351 211.099 195.777C211.637 196.198 212.3 196.408 213.087 196.408ZM231.464 192.75V184.769H234.128V198.405H231.518V196.044H231.376C231.062 196.772 230.559 197.378 229.866 197.864C229.18 198.343 228.325 198.583 227.301 198.583C226.425 198.583 225.649 198.39 224.975 198.006C224.306 197.615 223.779 197.038 223.394 196.275C223.016 195.511 222.826 194.567 222.826 193.443V184.769H225.481V193.123C225.481 194.052 225.738 194.792 226.253 195.342C226.768 195.893 227.437 196.168 228.259 196.168C228.757 196.168 229.251 196.044 229.742 195.795C230.239 195.547 230.651 195.171 230.976 194.668C231.307 194.165 231.47 193.525 231.464 192.75ZM237.694 198.405V184.769H240.349V198.405H237.694ZM239.035 182.665C238.573 182.665 238.177 182.511 237.845 182.203C237.52 181.89 237.357 181.517 237.357 181.085C237.357 180.647 237.52 180.274 237.845 179.966C238.177 179.652 238.573 179.495 239.035 179.495C239.497 179.495 239.89 179.652 240.216 179.966C240.547 180.274 240.713 180.647 240.713 181.085C240.713 181.517 240.547 181.89 240.216 182.203C239.89 182.511 239.497 182.665 239.035 182.665ZM249.797 198.68C248.454 198.68 247.296 198.393 246.326 197.819C245.361 197.239 244.615 196.426 244.089 195.378C243.568 194.324 243.307 193.09 243.307 191.676C243.307 190.279 243.568 189.048 244.089 187.983C244.615 186.917 245.349 186.086 246.29 185.488C247.237 184.89 248.344 184.591 249.611 184.591C250.38 184.591 251.126 184.719 251.848 184.973C252.57 185.228 253.218 185.627 253.792 186.172C254.366 186.716 254.819 187.423 255.15 188.293C255.482 189.158 255.648 190.208 255.648 191.445V192.386H244.808V190.397H253.046C253.046 189.699 252.904 189.081 252.62 188.542C252.336 187.997 251.937 187.568 251.422 187.255C250.913 186.941 250.315 186.784 249.628 186.784C248.883 186.784 248.232 186.968 247.675 187.335C247.125 187.696 246.699 188.169 246.397 188.755C246.101 189.335 245.953 189.965 245.953 190.646V192.2C245.953 193.111 246.113 193.886 246.432 194.526C246.758 195.165 247.211 195.653 247.791 195.991C248.371 196.322 249.048 196.488 249.824 196.488C250.327 196.488 250.785 196.417 251.2 196.275C251.614 196.127 251.972 195.908 252.274 195.618C252.576 195.328 252.807 194.97 252.966 194.543L255.479 194.996C255.278 195.736 254.917 196.384 254.396 196.94C253.881 197.491 253.233 197.92 252.452 198.228C251.676 198.53 250.791 198.68 249.797 198.68ZM258.593 198.405V184.769H261.158V186.935H261.301C261.549 186.201 261.987 185.624 262.614 185.204C263.248 184.778 263.964 184.565 264.763 184.565C264.929 184.565 265.124 184.571 265.349 184.582C265.58 184.594 265.76 184.609 265.89 184.627V187.166C265.784 187.136 265.594 187.104 265.322 187.068C265.05 187.027 264.778 187.006 264.505 187.006C263.878 187.006 263.319 187.139 262.828 187.406C262.342 187.666 261.957 188.03 261.673 188.498C261.389 188.959 261.247 189.486 261.247 190.078V198.405H258.593ZM157.581 218.098L155.175 218.524C155.074 218.216 154.914 217.924 154.695 217.645C154.482 217.367 154.192 217.139 153.825 216.962C153.458 216.784 153 216.695 152.449 216.695C151.698 216.695 151.07 216.864 150.567 217.201C150.064 217.533 149.813 217.962 149.813 218.489C149.813 218.944 149.981 219.311 150.319 219.59C150.656 219.868 151.201 220.096 151.952 220.273L154.118 220.77C155.373 221.06 156.308 221.507 156.924 222.111C157.539 222.715 157.847 223.499 157.847 224.464C157.847 225.28 157.61 226.008 157.137 226.647C156.669 227.281 156.015 227.778 155.175 228.139C154.34 228.5 153.373 228.68 152.272 228.68C150.745 228.68 149.499 228.355 148.534 227.704C147.569 227.047 146.978 226.115 146.759 224.907L149.324 224.517C149.484 225.186 149.813 225.692 150.31 226.035C150.807 226.372 151.455 226.541 152.254 226.541C153.124 226.541 153.819 226.36 154.34 225.999C154.861 225.632 155.122 225.186 155.122 224.659C155.122 224.233 154.962 223.875 154.642 223.585C154.328 223.295 153.846 223.076 153.195 222.928L150.887 222.422C149.614 222.132 148.673 221.67 148.064 221.037C147.46 220.403 147.158 219.601 147.158 218.631C147.158 217.826 147.383 217.122 147.833 216.518C148.283 215.914 148.904 215.444 149.697 215.106C150.49 214.763 151.399 214.591 152.423 214.591C153.896 214.591 155.056 214.911 155.903 215.55C156.749 216.183 157.308 217.033 157.581 218.098ZM160.766 228.405V214.769H163.42V228.405H160.766ZM162.106 212.665C161.645 212.665 161.248 212.511 160.917 212.203C160.591 211.89 160.428 211.517 160.428 211.085C160.428 210.647 160.591 210.274 160.917 209.966C161.248 209.652 161.645 209.495 162.106 209.495C162.568 209.495 162.961 209.652 163.287 209.966C163.618 210.274 163.784 210.647 163.784 211.085C163.784 211.517 163.618 211.89 163.287 212.203C162.961 212.511 162.568 212.665 162.106 212.665ZM173.357 214.769V216.9H165.908V214.769H173.357ZM167.906 211.502H170.56V224.401C170.56 224.916 170.637 225.304 170.791 225.564C170.945 225.819 171.143 225.993 171.386 226.088C171.634 226.177 171.904 226.221 172.194 226.221C172.407 226.221 172.593 226.207 172.753 226.177C172.913 226.147 173.037 226.124 173.126 226.106L173.605 228.299C173.451 228.358 173.232 228.417 172.948 228.476C172.664 228.541 172.309 228.577 171.883 228.583C171.185 228.595 170.533 228.47 169.93 228.21C169.326 227.95 168.838 227.547 168.465 227.003C168.092 226.458 167.906 225.774 167.906 224.952V211.502ZM176.293 228.405V214.769H178.947V228.405H176.293ZM177.634 212.665C177.172 212.665 176.775 212.511 176.444 212.203C176.118 211.89 175.956 211.517 175.956 211.085C175.956 210.647 176.118 210.274 176.444 209.966C176.775 209.652 177.172 209.495 177.634 209.495C178.095 209.495 178.489 209.652 178.814 209.966C179.146 210.274 179.311 210.647 179.311 211.085C179.311 211.517 179.146 211.89 178.814 212.203C178.489 212.511 178.095 212.665 177.634 212.665ZM188.263 228.68C186.984 228.68 185.868 228.388 184.916 227.802C183.963 227.216 183.223 226.396 182.696 225.342C182.169 224.289 181.906 223.058 181.906 221.649C181.906 220.235 182.169 218.998 182.696 217.938C183.223 216.879 183.963 216.056 184.916 215.47C185.868 214.884 186.984 214.591 188.263 214.591C189.541 214.591 190.657 214.884 191.609 215.47C192.562 216.056 193.302 216.879 193.829 217.938C194.356 218.998 194.619 220.235 194.619 221.649C194.619 223.058 194.356 224.289 193.829 225.342C193.302 226.396 192.562 227.216 191.609 227.802C190.657 228.388 189.541 228.68 188.263 228.68ZM188.271 226.452C189.1 226.452 189.787 226.233 190.331 225.795C190.876 225.357 191.278 224.774 191.538 224.046C191.805 223.318 191.938 222.516 191.938 221.64C191.938 220.77 191.805 219.971 191.538 219.243C191.278 218.509 190.876 217.921 190.331 217.477C189.787 217.033 189.1 216.811 188.271 216.811C187.437 216.811 186.744 217.033 186.194 217.477C185.649 217.921 185.244 218.509 184.978 219.243C184.717 219.971 184.587 220.77 184.587 221.64C184.587 222.516 184.717 223.318 184.978 224.046C185.244 224.774 185.649 225.357 186.194 225.795C186.744 226.233 187.437 226.452 188.271 226.452ZM199.331 228.574C198.846 228.574 198.428 228.402 198.079 228.059C197.73 227.71 197.555 227.29 197.555 226.798C197.555 226.313 197.73 225.899 198.079 225.555C198.428 225.206 198.846 225.032 199.331 225.032C199.816 225.032 200.234 225.206 200.583 225.555C200.932 225.899 201.107 226.313 201.107 226.798C201.107 227.124 201.024 227.423 200.858 227.695C200.698 227.961 200.485 228.174 200.219 228.334C199.952 228.494 199.657 228.574 199.331 228.574Z" fill="#244464"/>
<path d="M748.897 149C748.802 148.159 748.411 147.508 747.725 147.047C747.038 146.579 746.174 146.345 745.133 146.345C744.387 146.345 743.742 146.464 743.197 146.7C742.653 146.931 742.229 147.251 741.928 147.659C741.632 148.062 741.484 148.52 741.484 149.035C741.484 149.467 741.584 149.84 741.786 150.154C741.993 150.468 742.262 150.731 742.593 150.944C742.931 151.151 743.292 151.326 743.677 151.468C744.061 151.604 744.431 151.716 744.786 151.805L746.562 152.267C747.142 152.409 747.737 152.601 748.346 152.844C748.956 153.086 749.521 153.406 750.042 153.803C750.563 154.199 750.983 154.69 751.303 155.276C751.628 155.862 751.791 156.564 751.791 157.38C751.791 158.41 751.525 159.325 750.992 160.124C750.465 160.923 749.699 161.553 748.693 162.015C747.692 162.476 746.482 162.707 745.062 162.707C743.7 162.707 742.522 162.491 741.528 162.059C740.534 161.627 739.756 161.014 739.193 160.221C738.631 159.422 738.32 158.475 738.261 157.38H741.013C741.066 158.037 741.28 158.585 741.652 159.023C742.031 159.455 742.514 159.777 743.099 159.991C743.691 160.198 744.339 160.301 745.044 160.301C745.819 160.301 746.509 160.18 747.112 159.937C747.722 159.689 748.201 159.345 748.55 158.907C748.9 158.464 749.074 157.946 749.074 157.354C749.074 156.815 748.92 156.374 748.613 156.031C748.311 155.688 747.899 155.404 747.379 155.179C746.864 154.954 746.281 154.756 745.63 154.584L743.481 153.998C742.025 153.601 740.871 153.018 740.019 152.249C739.173 151.48 738.749 150.462 738.749 149.195C738.749 148.147 739.033 147.233 739.602 146.452C740.17 145.671 740.939 145.064 741.91 144.632C742.881 144.194 743.975 143.975 745.195 143.975C746.426 143.975 747.512 144.191 748.453 144.623C749.4 145.055 750.146 145.65 750.69 146.407C751.235 147.159 751.519 148.023 751.542 149H748.897ZM760.6 162.68C759.322 162.68 758.206 162.388 757.253 161.802C756.3 161.216 755.56 160.396 755.034 159.342C754.507 158.289 754.243 157.058 754.243 155.649C754.243 154.235 754.507 152.998 755.034 151.938C755.56 150.879 756.3 150.056 757.253 149.47C758.206 148.884 759.322 148.591 760.6 148.591C761.878 148.591 762.994 148.884 763.947 149.47C764.9 150.056 765.64 150.879 766.166 151.938C766.693 152.998 766.956 154.235 766.956 155.649C766.956 157.058 766.693 158.289 766.166 159.342C765.64 160.396 764.9 161.216 763.947 161.802C762.994 162.388 761.878 162.68 760.6 162.68ZM760.609 160.452C761.437 160.452 762.124 160.233 762.668 159.795C763.213 159.357 763.615 158.774 763.876 158.046C764.142 157.318 764.275 156.516 764.275 155.64C764.275 154.77 764.142 153.971 763.876 153.243C763.615 152.509 763.213 151.921 762.668 151.477C762.124 151.033 761.437 150.811 760.609 150.811C759.774 150.811 759.082 151.033 758.531 151.477C757.987 151.921 757.581 152.509 757.315 153.243C757.055 153.971 756.925 154.77 756.925 155.64C756.925 156.516 757.055 157.318 757.315 158.046C757.581 158.774 757.987 159.357 758.531 159.795C759.082 160.233 759.774 160.452 760.609 160.452ZM769.919 167.519V148.769H772.512V150.979H772.734C772.888 150.695 773.11 150.367 773.4 149.994C773.69 149.621 774.092 149.296 774.607 149.017C775.122 148.733 775.803 148.591 776.649 148.591C777.75 148.591 778.732 148.87 779.596 149.426C780.46 149.982 781.138 150.784 781.629 151.832C782.126 152.879 782.375 154.14 782.375 155.614C782.375 157.087 782.129 158.351 781.638 159.405C781.147 160.452 780.472 161.26 779.614 161.828C778.756 162.39 777.776 162.672 776.675 162.672C775.847 162.672 775.169 162.533 774.642 162.254C774.122 161.976 773.713 161.651 773.417 161.278C773.121 160.905 772.894 160.573 772.734 160.283H772.574V167.519H769.919ZM772.521 155.587C772.521 156.546 772.66 157.386 772.938 158.108C773.216 158.83 773.619 159.396 774.145 159.804C774.672 160.207 775.317 160.408 776.081 160.408C776.874 160.408 777.537 160.198 778.069 159.777C778.602 159.351 779.004 158.774 779.277 158.046C779.555 157.318 779.694 156.499 779.694 155.587C779.694 154.687 779.558 153.88 779.286 153.163C779.019 152.447 778.617 151.882 778.078 151.468C777.546 151.053 776.88 150.846 776.081 150.846C775.311 150.846 774.66 151.045 774.128 151.441C773.601 151.838 773.201 152.391 772.929 153.101C772.657 153.812 772.521 154.64 772.521 155.587ZM791.093 162.68C789.815 162.68 788.699 162.388 787.746 161.802C786.793 161.216 786.053 160.396 785.527 159.342C785 158.289 784.737 157.058 784.737 155.649C784.737 154.235 785 152.998 785.527 151.938C786.053 150.879 786.793 150.056 787.746 149.47C788.699 148.884 789.815 148.591 791.093 148.591C792.372 148.591 793.487 148.884 794.44 149.47C795.393 150.056 796.133 150.879 796.66 151.938C797.186 152.998 797.45 154.235 797.45 155.649C797.45 157.058 797.186 158.289 796.66 159.342C796.133 160.396 795.393 161.216 794.44 161.802C793.487 162.388 792.372 162.68 791.093 162.68ZM791.102 160.452C791.931 160.452 792.617 160.233 793.162 159.795C793.706 159.357 794.109 158.774 794.369 158.046C794.635 157.318 794.769 156.516 794.769 155.64C794.769 154.77 794.635 153.971 794.369 153.243C794.109 152.509 793.706 151.921 793.162 151.477C792.617 151.033 791.931 150.811 791.102 150.811C790.267 150.811 789.575 151.033 789.025 151.477C788.48 151.921 788.075 152.509 787.808 153.243C787.548 153.971 787.418 154.77 787.418 155.64C787.418 156.516 787.548 157.318 787.808 158.046C788.075 158.774 788.48 159.357 789.025 159.795C789.575 160.233 790.267 160.452 791.102 160.452ZM800.413 162.405V148.769H802.978V150.935H803.12C803.369 150.201 803.807 149.624 804.434 149.204C805.068 148.778 805.784 148.565 806.583 148.565C806.748 148.565 806.944 148.571 807.169 148.582C807.399 148.594 807.58 148.609 807.71 148.627V151.166C807.604 151.136 807.414 151.104 807.142 151.068C806.87 151.027 806.598 151.006 806.325 151.006C805.698 151.006 805.139 151.139 804.647 151.406C804.162 151.666 803.777 152.03 803.493 152.498C803.209 152.959 803.067 153.486 803.067 154.078V162.405H800.413ZM817.178 148.769V150.9H809.73V148.769H817.178ZM811.727 145.502H814.382V158.401C814.382 158.916 814.459 159.304 814.613 159.564C814.767 159.819 814.965 159.993 815.208 160.088C815.456 160.177 815.725 160.221 816.015 160.221C816.228 160.221 816.415 160.207 816.575 160.177C816.735 160.147 816.859 160.124 816.948 160.106L817.427 162.299C817.273 162.358 817.054 162.417 816.77 162.476C816.486 162.541 816.131 162.577 815.705 162.583C815.006 162.595 814.355 162.47 813.752 162.21C813.148 161.95 812.66 161.547 812.287 161.003C811.914 160.458 811.727 159.774 811.727 158.952V145.502ZM825.845 162.68C824.502 162.68 823.345 162.393 822.374 161.819C821.409 161.239 820.664 160.426 820.137 159.378C819.616 158.324 819.356 157.09 819.356 155.676C819.356 154.279 819.616 153.048 820.137 151.983C820.664 150.917 821.398 150.086 822.339 149.488C823.286 148.89 824.392 148.591 825.659 148.591C826.428 148.591 827.174 148.719 827.896 148.973C828.618 149.228 829.266 149.627 829.84 150.172C830.415 150.716 830.867 151.423 831.199 152.293C831.53 153.158 831.696 154.208 831.696 155.445V156.386H820.856V154.397H829.095C829.095 153.699 828.953 153.081 828.669 152.542C828.384 151.997 827.985 151.568 827.47 151.255C826.961 150.941 826.363 150.784 825.677 150.784C824.931 150.784 824.28 150.968 823.724 151.335C823.173 151.696 822.747 152.169 822.445 152.755C822.149 153.335 822.001 153.965 822.001 154.646V156.2C822.001 157.111 822.161 157.886 822.481 158.526C822.806 159.165 823.259 159.653 823.839 159.991C824.419 160.322 825.097 160.488 825.872 160.488C826.375 160.488 826.834 160.417 827.248 160.275C827.662 160.127 828.02 159.908 828.322 159.618C828.624 159.328 828.855 158.97 829.015 158.543L831.527 158.996C831.326 159.736 830.965 160.384 830.444 160.94C829.929 161.491 829.281 161.92 828.5 162.228C827.725 162.53 826.84 162.68 825.845 162.68ZM734.154 192.405V190.417L740.306 184.042C740.963 183.35 741.505 182.743 741.931 182.222C742.363 181.696 742.686 181.196 742.899 180.722C743.112 180.249 743.218 179.745 743.218 179.213C743.218 178.609 743.076 178.088 742.792 177.65C742.508 177.206 742.12 176.866 741.629 176.629C741.138 176.387 740.584 176.265 739.969 176.265C739.318 176.265 738.75 176.399 738.264 176.665C737.779 176.931 737.406 177.307 737.146 177.792C736.885 178.278 736.755 178.846 736.755 179.497H734.136C734.136 178.39 734.391 177.422 734.9 176.594C735.409 175.765 736.107 175.123 736.995 174.667C737.883 174.206 738.892 173.975 740.022 173.975C741.164 173.975 742.171 174.203 743.041 174.658C743.917 175.108 744.6 175.724 745.091 176.505C745.583 177.28 745.828 178.156 745.828 179.133C745.828 179.808 745.701 180.468 745.447 181.113C745.198 181.758 744.763 182.477 744.142 183.27C743.52 184.057 742.656 185.013 741.549 186.138L737.936 189.919V190.053H746.121V192.405H734.154ZM748.714 188.854V186.635L756.571 174.223H758.319V177.491H757.21L751.59 186.386V186.528H762.359V188.854H748.714ZM757.334 192.405V188.179L757.352 187.167V174.223H759.953V192.405H757.334ZM772.413 173.371L766.554 195.14H764.183L770.043 173.371H772.413ZM775.245 192.405L783.182 176.709V176.576H774.002V174.223H786.023V176.656L778.113 192.405H775.245ZM796.07 173.371L790.211 195.14H787.84L793.7 173.371H796.07ZM804.62 192.654C803.4 192.654 802.311 192.444 801.353 192.024C800.4 191.603 799.645 191.02 799.089 190.275C798.538 189.523 798.242 188.653 798.201 187.665H800.989C801.024 188.203 801.205 188.671 801.53 189.067C801.862 189.458 802.294 189.76 802.826 189.973C803.359 190.186 803.951 190.292 804.602 190.292C805.318 190.292 805.951 190.168 806.502 189.919C807.058 189.671 807.493 189.325 807.807 188.881C808.12 188.431 808.277 187.913 808.277 187.327C808.277 186.718 808.12 186.182 807.807 185.72C807.499 185.253 807.046 184.886 806.448 184.619C805.857 184.353 805.14 184.22 804.3 184.22H802.764V181.983H804.3C804.975 181.983 805.567 181.861 806.076 181.619C806.59 181.376 806.993 181.039 807.283 180.607C807.573 180.169 807.718 179.657 807.718 179.071C807.718 178.508 807.591 178.02 807.336 177.606C807.088 177.186 806.733 176.857 806.271 176.62C805.815 176.384 805.277 176.265 804.655 176.265C804.063 176.265 803.51 176.375 802.995 176.594C802.486 176.807 802.072 177.115 801.752 177.517C801.432 177.914 801.261 178.39 801.237 178.946H798.583C798.612 177.964 798.902 177.1 799.453 176.354C800.009 175.608 800.743 175.025 801.654 174.605C802.566 174.185 803.578 173.975 804.691 173.975C805.857 173.975 806.863 174.203 807.709 174.658C808.561 175.108 809.218 175.709 809.68 176.461C810.148 177.212 810.378 178.035 810.372 178.929C810.378 179.947 810.094 180.811 809.52 181.521C808.952 182.231 808.194 182.708 807.247 182.95V183.092C808.455 183.276 809.39 183.755 810.053 184.531C810.722 185.306 811.053 186.268 811.047 187.416C811.053 188.416 810.775 189.313 810.213 190.106C809.656 190.899 808.896 191.523 807.931 191.979C806.966 192.429 805.863 192.654 804.62 192.654ZM820.751 192.654C819.94 192.642 819.141 192.494 818.354 192.21C817.572 191.926 816.862 191.452 816.223 190.79C815.584 190.127 815.072 189.236 814.687 188.117C814.308 186.999 814.119 185.602 814.119 183.927C814.119 182.341 814.276 180.932 814.589 179.701C814.909 178.47 815.368 177.431 815.965 176.585C816.563 175.733 817.285 175.085 818.132 174.641C818.978 174.197 819.928 173.975 820.981 173.975C822.065 173.975 823.026 174.188 823.867 174.614C824.707 175.04 825.388 175.629 825.909 176.381C826.435 177.132 826.77 177.988 826.912 178.946H824.204C824.021 178.189 823.657 177.57 823.112 177.091C822.568 176.612 821.857 176.372 820.981 176.372C819.65 176.372 818.611 176.952 817.865 178.112C817.126 179.272 816.753 180.885 816.747 182.95H816.88C817.194 182.435 817.578 181.997 818.034 181.636C818.496 181.27 819.011 180.988 819.579 180.793C820.153 180.592 820.757 180.491 821.39 180.491C822.443 180.491 823.396 180.749 824.249 181.264C825.107 181.773 825.79 182.477 826.299 183.377C826.808 184.276 827.063 185.306 827.063 186.466C827.063 187.626 826.799 188.677 826.273 189.618C825.752 190.559 825.018 191.304 824.071 191.855C823.124 192.399 822.017 192.666 820.751 192.654ZM820.742 190.346C821.44 190.346 822.065 190.174 822.615 189.831C823.165 189.487 823.6 189.026 823.92 188.446C824.24 187.866 824.399 187.218 824.399 186.502C824.399 185.803 824.243 185.167 823.929 184.593C823.621 184.019 823.195 183.563 822.651 183.226C822.112 182.888 821.496 182.72 820.804 182.72C820.277 182.72 819.789 182.82 819.339 183.021C818.895 183.223 818.505 183.501 818.167 183.856C817.83 184.211 817.563 184.619 817.368 185.081C817.179 185.537 817.084 186.019 817.084 186.528C817.084 187.209 817.241 187.839 817.555 188.419C817.874 188.999 818.309 189.467 818.86 189.822C819.416 190.171 820.043 190.346 820.742 190.346ZM836.298 192.654C835.185 192.654 834.185 192.441 833.297 192.015C832.415 191.583 831.711 190.991 831.184 190.239C830.658 189.487 830.376 188.629 830.341 187.665H833.004C833.069 188.446 833.416 189.088 834.043 189.591C834.67 190.094 835.422 190.346 836.298 190.346C836.996 190.346 837.615 190.186 838.153 189.866C838.698 189.541 839.124 189.094 839.432 188.526C839.746 187.957 839.902 187.309 839.902 186.581C839.902 185.842 839.743 185.182 839.423 184.602C839.103 184.022 838.662 183.566 838.1 183.234C837.544 182.903 836.905 182.734 836.183 182.728C835.632 182.728 835.079 182.823 834.522 183.013C833.966 183.202 833.516 183.45 833.173 183.758L830.661 183.385L831.681 174.223H841.678V176.576H833.963L833.386 181.663H833.493C833.848 181.32 834.318 181.033 834.904 180.802C835.496 180.571 836.129 180.456 836.804 180.456C837.911 180.456 838.896 180.719 839.76 181.246C840.63 181.773 841.314 182.492 841.811 183.403C842.314 184.309 842.563 185.35 842.557 186.528C842.563 187.706 842.296 188.756 841.758 189.68C841.225 190.603 840.485 191.331 839.538 191.864C838.597 192.39 837.517 192.654 836.298 192.654Z" fill="#244464"/>
<path d="M411.233 119C411.138 118.159 410.747 117.508 410.061 117.047C409.374 116.579 408.51 116.345 407.468 116.345C406.723 116.345 406.078 116.464 405.533 116.7C404.989 116.931 404.565 117.251 404.264 117.659C403.968 118.062 403.82 118.52 403.82 119.035C403.82 119.467 403.92 119.84 404.122 120.154C404.329 120.468 404.598 120.731 404.929 120.944C405.267 121.151 405.628 121.326 406.012 121.468C406.397 121.604 406.767 121.716 407.122 121.805L408.898 122.267C409.478 122.409 410.073 122.601 410.682 122.844C411.292 123.086 411.857 123.406 412.378 123.803C412.899 124.199 413.319 124.69 413.639 125.276C413.964 125.862 414.127 126.564 414.127 127.38C414.127 128.41 413.861 129.325 413.328 130.124C412.801 130.923 412.035 131.553 411.028 132.015C410.028 132.476 408.818 132.707 407.397 132.707C406.036 132.707 404.858 132.491 403.864 132.059C402.87 131.627 402.091 131.014 401.529 130.221C400.967 129.422 400.656 128.475 400.597 127.38H403.349C403.402 128.037 403.615 128.585 403.988 129.023C404.367 129.455 404.849 129.777 405.435 129.991C406.027 130.198 406.675 130.301 407.38 130.301C408.155 130.301 408.845 130.18 409.448 129.937C410.058 129.689 410.537 129.345 410.886 128.907C411.236 128.464 411.41 127.946 411.41 127.354C411.41 126.815 411.256 126.374 410.949 126.031C410.647 125.688 410.235 125.404 409.715 125.179C409.2 124.954 408.617 124.756 407.966 124.584L405.817 123.998C404.361 123.601 403.207 123.018 402.355 122.249C401.508 121.48 401.085 120.462 401.085 119.195C401.085 118.147 401.369 117.233 401.938 116.452C402.506 115.671 403.275 115.064 404.246 114.632C405.216 114.194 406.311 113.975 407.531 113.975C408.762 113.975 409.848 114.191 410.789 114.623C411.736 115.055 412.481 115.65 413.026 116.407C413.57 117.159 413.855 118.023 413.878 119H411.233ZM417.192 132.405V118.769H419.846V132.405H417.192ZM418.532 116.665C418.071 116.665 417.674 116.511 417.343 116.203C417.017 115.89 416.855 115.517 416.855 115.085C416.855 114.647 417.017 114.274 417.343 113.966C417.674 113.652 418.071 113.495 418.532 113.495C418.994 113.495 419.388 113.652 419.713 113.966C420.045 114.274 420.21 114.647 420.21 115.085C420.21 115.517 420.045 115.89 419.713 116.203C419.388 116.511 418.994 116.665 418.532 116.665ZM433.636 122.098L431.23 122.524C431.129 122.216 430.97 121.924 430.751 121.645C430.538 121.367 430.248 121.139 429.881 120.962C429.514 120.784 429.055 120.695 428.505 120.695C427.753 120.695 427.125 120.864 426.622 121.201C426.119 121.533 425.868 121.962 425.868 122.489C425.868 122.944 426.036 123.311 426.374 123.59C426.711 123.868 427.256 124.096 428.007 124.273L430.174 124.77C431.428 125.06 432.363 125.507 432.979 126.111C433.594 126.715 433.902 127.499 433.902 128.464C433.902 129.28 433.665 130.008 433.192 130.647C432.724 131.281 432.07 131.778 431.23 132.139C430.395 132.5 429.428 132.68 428.327 132.68C426.8 132.68 425.554 132.355 424.589 131.704C423.625 131.047 423.033 130.115 422.814 128.907L425.38 128.517C425.539 129.186 425.868 129.692 426.365 130.035C426.862 130.372 427.51 130.541 428.309 130.541C429.179 130.541 429.875 130.36 430.395 129.999C430.916 129.632 431.177 129.186 431.177 128.659C431.177 128.233 431.017 127.875 430.697 127.585C430.384 127.295 429.901 127.076 429.25 126.928L426.942 126.422C425.67 126.132 424.728 125.67 424.119 125.037C423.515 124.403 423.213 123.601 423.213 122.631C423.213 121.826 423.438 121.122 423.888 120.518C424.338 119.914 424.959 119.444 425.752 119.106C426.545 118.763 427.454 118.591 428.478 118.591C429.952 118.591 431.112 118.911 431.958 119.55C432.804 120.183 433.364 121.033 433.636 122.098ZM443.186 118.769V120.9H435.738V118.769H443.186ZM437.735 115.502H440.39V128.401C440.39 128.916 440.467 129.304 440.621 129.564C440.774 129.819 440.973 129.993 441.215 130.088C441.464 130.177 441.733 130.221 442.023 130.221C442.236 130.221 442.423 130.207 442.583 130.177C442.742 130.147 442.867 130.124 442.955 130.106L443.435 132.299C443.281 132.358 443.062 132.417 442.778 132.476C442.494 132.541 442.139 132.577 441.713 132.583C441.014 132.595 440.363 132.47 439.759 132.21C439.156 131.95 438.667 131.547 438.295 131.003C437.922 130.458 437.735 129.774 437.735 128.952V115.502ZM451.853 132.68C450.51 132.68 449.353 132.393 448.382 131.819C447.417 131.239 446.672 130.426 446.145 129.378C445.624 128.324 445.364 127.09 445.364 125.676C445.364 124.279 445.624 123.048 446.145 121.983C446.672 120.917 447.405 120.086 448.346 119.488C449.293 118.89 450.4 118.591 451.667 118.591C452.436 118.591 453.182 118.719 453.904 118.973C454.626 119.228 455.274 119.627 455.848 120.172C456.422 120.716 456.875 121.423 457.207 122.293C457.538 123.158 457.704 124.208 457.704 125.445V126.386H446.864V124.397H455.103C455.103 123.699 454.96 123.081 454.676 122.542C454.392 121.997 453.993 121.568 453.478 121.255C452.969 120.941 452.371 120.784 451.685 120.784C450.939 120.784 450.288 120.968 449.731 121.335C449.181 121.696 448.755 122.169 448.453 122.755C448.157 123.335 448.009 123.965 448.009 124.646V126.2C448.009 127.111 448.169 127.886 448.489 128.526C448.814 129.165 449.267 129.653 449.847 129.991C450.427 130.322 451.105 130.488 451.88 130.488C452.383 130.488 452.842 130.417 453.256 130.275C453.67 130.127 454.028 129.908 454.33 129.618C454.632 129.328 454.863 128.97 455.023 128.543L457.535 128.996C457.334 129.736 456.973 130.384 456.452 130.94C455.937 131.491 455.289 131.92 454.508 132.228C453.732 132.53 452.848 132.68 451.853 132.68ZM460.649 132.405V118.769H463.197V120.988H463.366C463.65 120.237 464.114 119.651 464.759 119.231C465.405 118.804 466.177 118.591 467.077 118.591C467.988 118.591 468.751 118.804 469.367 119.231C469.988 119.657 470.447 120.243 470.743 120.988H470.885C471.211 120.26 471.728 119.68 472.439 119.248C473.149 118.81 473.995 118.591 474.978 118.591C476.215 118.591 477.224 118.979 478.005 119.754C478.792 120.53 479.186 121.699 479.186 123.261V132.405H476.531V123.51C476.531 122.586 476.28 121.918 475.777 121.503C475.274 121.089 474.673 120.882 473.975 120.882C473.11 120.882 472.439 121.148 471.959 121.681C471.48 122.208 471.24 122.885 471.24 123.714V132.405H468.595V123.341C468.595 122.601 468.364 122.006 467.902 121.557C467.44 121.107 466.84 120.882 466.1 120.882C465.597 120.882 465.132 121.015 464.706 121.281C464.286 121.542 463.946 121.906 463.685 122.373C463.431 122.841 463.303 123.382 463.303 123.998V132.405H460.649ZM486.712 132.707C485.848 132.707 485.067 132.547 484.368 132.228C483.67 131.902 483.117 131.432 482.708 130.816C482.306 130.201 482.104 129.446 482.104 128.552C482.104 127.783 482.252 127.15 482.548 126.652C482.844 126.155 483.244 125.762 483.747 125.472C484.25 125.182 484.812 124.963 485.434 124.815C486.055 124.667 486.688 124.554 487.334 124.477C488.15 124.383 488.813 124.306 489.322 124.247C489.831 124.181 490.201 124.078 490.432 123.936C490.663 123.794 490.778 123.563 490.778 123.243V123.181C490.778 122.406 490.559 121.805 490.121 121.379C489.689 120.953 489.044 120.74 488.186 120.74C487.292 120.74 486.588 120.938 486.073 121.335C485.564 121.725 485.212 122.16 485.016 122.64L482.522 122.071C482.818 121.243 483.25 120.574 483.818 120.065C484.392 119.55 485.052 119.177 485.798 118.946C486.543 118.71 487.328 118.591 488.15 118.591C488.695 118.591 489.272 118.656 489.881 118.787C490.497 118.911 491.071 119.142 491.604 119.479C492.142 119.816 492.583 120.299 492.927 120.926C493.27 121.548 493.441 122.356 493.441 123.35V132.405H490.849V130.541H490.743C490.571 130.884 490.314 131.222 489.97 131.553C489.627 131.884 489.186 132.16 488.647 132.379C488.109 132.598 487.464 132.707 486.712 132.707ZM487.289 130.576C488.023 130.576 488.65 130.431 489.171 130.141C489.698 129.851 490.097 129.473 490.37 129.005C490.648 128.532 490.787 128.026 490.787 127.487V125.729C490.692 125.824 490.509 125.913 490.237 125.995C489.97 126.072 489.665 126.14 489.322 126.2C488.979 126.253 488.644 126.303 488.319 126.351C487.993 126.392 487.721 126.428 487.502 126.457C486.987 126.522 486.517 126.632 486.091 126.786C485.67 126.939 485.333 127.161 485.079 127.451C484.83 127.736 484.706 128.114 484.706 128.588C484.706 129.245 484.948 129.742 485.434 130.079C485.919 130.411 486.537 130.576 487.289 130.576ZM507.195 122.098L504.79 122.524C504.689 122.216 504.529 121.924 504.31 121.645C504.097 121.367 503.807 121.139 503.44 120.962C503.073 120.784 502.615 120.695 502.064 120.695C501.312 120.695 500.685 120.864 500.182 121.201C499.679 121.533 499.427 121.962 499.427 122.489C499.427 122.944 499.596 123.311 499.933 123.59C500.271 123.868 500.815 124.096 501.567 124.273L503.733 124.77C504.988 125.06 505.923 125.507 506.539 126.111C507.154 126.715 507.462 127.499 507.462 128.464C507.462 129.28 507.225 130.008 506.752 130.647C506.284 131.281 505.63 131.778 504.79 132.139C503.955 132.5 502.987 132.68 501.887 132.68C500.36 132.68 499.114 132.355 498.149 131.704C497.184 131.047 496.592 130.115 496.373 128.907L498.939 128.517C499.099 129.186 499.427 129.692 499.925 130.035C500.422 130.372 501.07 130.541 501.869 130.541C502.739 130.541 503.434 130.36 503.955 129.999C504.476 129.632 504.736 129.186 504.736 128.659C504.736 128.233 504.577 127.875 504.257 127.585C503.943 127.295 503.461 127.076 502.81 126.928L500.502 126.422C499.229 126.132 498.288 125.67 497.678 125.037C497.075 124.403 496.773 123.601 496.773 122.631C496.773 121.826 496.998 121.122 497.448 120.518C497.897 119.914 498.519 119.444 499.312 119.106C500.105 118.763 501.014 118.591 502.037 118.591C503.511 118.591 504.671 118.911 505.518 119.55C506.364 120.183 506.923 121.033 507.195 122.098ZM520.965 132.707C520.101 132.707 519.32 132.547 518.621 132.228C517.923 131.902 517.369 131.432 516.961 130.816C516.559 130.201 516.357 129.446 516.357 128.552C516.357 127.783 516.505 127.15 516.801 126.652C517.097 126.155 517.497 125.762 518 125.472C518.503 125.182 519.065 124.963 519.687 124.815C520.308 124.667 520.941 124.554 521.586 124.477C522.403 124.383 523.066 124.306 523.575 124.247C524.084 124.181 524.454 124.078 524.685 123.936C524.916 123.794 525.031 123.563 525.031 123.243V123.181C525.031 122.406 524.812 121.805 524.374 121.379C523.942 120.953 523.297 120.74 522.439 120.74C521.545 120.74 520.841 120.938 520.326 121.335C519.817 121.725 519.465 122.16 519.269 122.64L516.775 122.071C517.071 121.243 517.503 120.574 518.071 120.065C518.645 119.55 519.305 119.177 520.051 118.946C520.796 118.71 521.581 118.591 522.403 118.591C522.948 118.591 523.525 118.656 524.134 118.787C524.75 118.911 525.324 119.142 525.857 119.479C526.395 119.816 526.836 120.299 527.179 120.926C527.523 121.548 527.694 122.356 527.694 123.35V132.405H525.102V130.541H524.996C524.824 130.884 524.566 131.222 524.223 131.553C523.88 131.884 523.439 132.16 522.9 132.379C522.362 132.598 521.717 132.707 520.965 132.707ZM521.542 130.576C522.276 130.576 522.903 130.431 523.424 130.141C523.951 129.851 524.35 129.473 524.623 129.005C524.901 128.532 525.04 128.026 525.04 127.487V125.729C524.945 125.824 524.762 125.913 524.49 125.995C524.223 126.072 523.918 126.14 523.575 126.2C523.232 126.253 522.897 126.303 522.572 126.351C522.246 126.392 521.974 126.428 521.755 126.457C521.24 126.522 520.77 126.632 520.344 126.786C519.923 126.939 519.586 127.161 519.331 127.451C519.083 127.736 518.959 128.114 518.959 128.588C518.959 129.245 519.201 129.742 519.687 130.079C520.172 130.411 520.79 130.576 521.542 130.576ZM540.501 114.223V132.405H537.846V114.223H540.501ZM548.04 132.707C547.176 132.707 546.395 132.547 545.696 132.228C544.998 131.902 544.445 131.432 544.036 130.816C543.634 130.201 543.433 129.446 543.433 128.552C543.433 127.783 543.581 127.15 543.876 126.652C544.172 126.155 544.572 125.762 545.075 125.472C545.578 125.182 546.14 124.963 546.762 124.815C547.383 124.667 548.017 124.554 548.662 124.477C549.478 124.383 550.141 124.306 550.65 124.247C551.159 124.181 551.529 124.078 551.76 123.936C551.991 123.794 552.106 123.563 552.106 123.243V123.181C552.106 122.406 551.887 121.805 551.449 121.379C551.017 120.953 550.372 120.74 549.514 120.74C548.62 120.74 547.916 120.938 547.401 121.335C546.892 121.725 546.54 122.16 546.345 122.64L543.85 122.071C544.146 121.243 544.578 120.574 545.146 120.065C545.72 119.55 546.38 119.177 547.126 118.946C547.872 118.71 548.656 118.591 549.478 118.591C550.023 118.591 550.6 118.656 551.21 118.787C551.825 118.911 552.399 119.142 552.932 119.479C553.47 119.816 553.911 120.299 554.255 120.926C554.598 121.548 554.77 122.356 554.77 123.35V132.405H552.177V130.541H552.071C551.899 130.884 551.642 131.222 551.298 131.553C550.955 131.884 550.514 132.16 549.976 132.379C549.437 132.598 548.792 132.707 548.04 132.707ZM548.617 130.576C549.351 130.576 549.979 130.431 550.499 130.141C551.026 129.851 551.426 129.473 551.698 129.005C551.976 128.532 552.115 128.026 552.115 127.487V125.729C552.02 125.824 551.837 125.913 551.565 125.995C551.298 126.072 550.994 126.14 550.65 126.2C550.307 126.253 549.973 126.303 549.647 126.351C549.322 126.392 549.049 126.428 548.83 126.457C548.315 126.522 547.845 126.632 547.419 126.786C546.999 126.939 546.661 127.161 546.407 127.451C546.158 127.736 546.034 128.114 546.034 128.588C546.034 129.245 546.276 129.742 546.762 130.079C547.247 130.411 547.866 130.576 548.617 130.576ZM425.053 162.405V148.769H427.601V150.988H427.77C428.054 150.237 428.519 149.651 429.164 149.231C429.809 148.804 430.581 148.591 431.481 148.591C432.392 148.591 433.156 148.804 433.771 149.231C434.393 149.657 434.851 150.243 435.147 150.988H435.289C435.615 150.26 436.133 149.68 436.843 149.248C437.553 148.81 438.4 148.591 439.382 148.591C440.619 148.591 441.628 148.979 442.409 149.754C443.197 150.53 443.59 151.699 443.59 153.261V162.405H440.936V153.51C440.936 152.586 440.684 151.918 440.181 151.503C439.678 151.089 439.077 150.882 438.379 150.882C437.515 150.882 436.843 151.148 436.364 151.681C435.884 152.208 435.645 152.885 435.645 153.714V162.405H432.999V153.341C432.999 152.601 432.768 152.006 432.306 151.557C431.845 151.107 431.244 150.882 430.504 150.882C430.001 150.882 429.537 151.015 429.11 151.281C428.69 151.542 428.35 151.906 428.089 152.373C427.835 152.841 427.708 153.382 427.708 153.998V162.405H425.053ZM453.025 162.68C451.682 162.68 450.525 162.393 449.554 161.819C448.589 161.239 447.843 160.426 447.317 159.378C446.796 158.324 446.535 157.09 446.535 155.676C446.535 154.279 446.796 153.048 447.317 151.983C447.843 150.917 448.577 150.086 449.518 149.488C450.465 148.89 451.572 148.591 452.839 148.591C453.608 148.591 454.354 148.719 455.076 148.973C455.798 149.228 456.446 149.627 457.02 150.172C457.594 150.716 458.047 151.423 458.378 152.293C458.71 153.158 458.876 154.208 458.876 155.445V156.386H448.036V154.397H456.274C456.274 153.699 456.132 153.081 455.848 152.542C455.564 151.997 455.165 151.568 454.65 151.255C454.141 150.941 453.543 150.784 452.856 150.784C452.111 150.784 451.46 150.968 450.903 151.335C450.353 151.696 449.927 152.169 449.625 152.755C449.329 153.335 449.181 153.965 449.181 154.646V156.2C449.181 157.111 449.341 157.886 449.66 158.526C449.986 159.165 450.439 159.653 451.019 159.991C451.599 160.322 452.276 160.488 453.052 160.488C453.555 160.488 454.014 160.417 454.428 160.275C454.842 160.127 455.2 159.908 455.502 159.618C455.804 159.328 456.035 158.97 456.194 158.543L458.707 158.996C458.506 159.736 458.145 160.384 457.624 160.94C457.109 161.491 456.461 161.92 455.68 162.228C454.904 162.53 454.019 162.68 453.025 162.68ZM466.926 162.672C465.825 162.672 464.842 162.39 463.978 161.828C463.12 161.26 462.445 160.452 461.954 159.405C461.469 158.351 461.226 157.087 461.226 155.614C461.226 154.14 461.472 152.879 461.963 151.832C462.46 150.784 463.141 149.982 464.005 149.426C464.869 148.87 465.848 148.591 466.943 148.591C467.79 148.591 468.47 148.733 468.985 149.017C469.506 149.296 469.909 149.621 470.193 149.994C470.483 150.367 470.708 150.695 470.867 150.979H471.027V144.223H473.682V162.405H471.089V160.283H470.867C470.708 160.573 470.477 160.905 470.175 161.278C469.879 161.651 469.471 161.976 468.95 162.254C468.429 162.533 467.754 162.672 466.926 162.672ZM467.512 160.408C468.275 160.408 468.92 160.207 469.447 159.804C469.98 159.396 470.382 158.83 470.654 158.108C470.932 157.386 471.072 156.546 471.072 155.587C471.072 154.64 470.935 153.812 470.663 153.101C470.391 152.391 469.991 151.838 469.465 151.441C468.938 151.045 468.287 150.846 467.512 150.846C466.713 150.846 466.047 151.053 465.514 151.468C464.981 151.882 464.579 152.447 464.307 153.163C464.04 153.88 463.907 154.687 463.907 155.587C463.907 156.499 464.043 157.318 464.315 158.046C464.588 158.774 464.99 159.351 465.523 159.777C466.061 160.198 466.724 160.408 467.512 160.408ZM477.47 162.405V148.769H480.125V162.405H477.47ZM478.811 146.665C478.349 146.665 477.953 146.511 477.621 146.203C477.296 145.89 477.133 145.517 477.133 145.085C477.133 144.647 477.296 144.274 477.621 143.966C477.953 143.652 478.349 143.495 478.811 143.495C479.272 143.495 479.666 143.652 479.992 143.966C480.323 144.274 480.489 144.647 480.489 145.085C480.489 145.517 480.323 145.89 479.992 146.203C479.666 146.511 479.272 146.665 478.811 146.665ZM488.801 162.672C487.7 162.672 486.717 162.39 485.853 161.828C484.995 161.26 484.32 160.452 483.829 159.405C483.344 158.351 483.101 157.087 483.101 155.614C483.101 154.14 483.347 152.879 483.838 151.832C484.335 150.784 485.016 149.982 485.88 149.426C486.744 148.87 487.723 148.591 488.818 148.591C489.665 148.591 490.345 148.733 490.86 149.017C491.381 149.296 491.784 149.621 492.068 149.994C492.358 150.367 492.583 150.695 492.742 150.979H492.902V144.223H495.557V162.405H492.964V160.283H492.742C492.583 160.573 492.352 160.905 492.05 161.278C491.754 161.651 491.346 161.976 490.825 162.254C490.304 162.533 489.629 162.672 488.801 162.672ZM489.387 160.408C490.15 160.408 490.795 160.207 491.322 159.804C491.855 159.396 492.257 158.83 492.529 158.108C492.807 157.386 492.947 156.546 492.947 155.587C492.947 154.64 492.81 153.812 492.538 153.101C492.266 152.391 491.866 151.838 491.34 151.441C490.813 151.045 490.162 150.846 489.387 150.846C488.588 150.846 487.922 151.053 487.389 151.468C486.856 151.882 486.454 152.447 486.182 153.163C485.915 153.88 485.782 154.687 485.782 155.587C485.782 156.499 485.918 157.318 486.19 158.046C486.463 158.774 486.865 159.351 487.398 159.777C487.936 160.198 488.599 160.408 489.387 160.408ZM503.314 162.707C502.45 162.707 501.668 162.547 500.97 162.228C500.271 161.902 499.718 161.432 499.31 160.816C498.907 160.201 498.706 159.446 498.706 158.552C498.706 157.783 498.854 157.15 499.15 156.652C499.446 156.155 499.845 155.762 500.348 155.472C500.852 155.182 501.414 154.963 502.035 154.815C502.657 154.667 503.29 154.554 503.935 154.477C504.752 154.383 505.415 154.306 505.924 154.247C506.433 154.181 506.803 154.078 507.033 153.936C507.264 153.794 507.38 153.563 507.38 153.243V153.181C507.38 152.406 507.161 151.805 506.723 151.379C506.291 150.953 505.646 150.74 504.787 150.74C503.894 150.74 503.189 150.938 502.674 151.335C502.165 151.725 501.813 152.16 501.618 152.64L499.123 152.071C499.419 151.243 499.851 150.574 500.419 150.065C500.994 149.55 501.653 149.177 502.399 148.946C503.145 148.71 503.929 148.591 504.752 148.591C505.296 148.591 505.873 148.656 506.483 148.787C507.099 148.911 507.673 149.142 508.205 149.479C508.744 149.816 509.185 150.299 509.528 150.926C509.871 151.548 510.043 152.356 510.043 153.35V162.405H507.451V160.541H507.344C507.173 160.884 506.915 161.222 506.572 161.553C506.229 161.884 505.788 162.16 505.249 162.379C504.71 162.598 504.065 162.707 503.314 162.707ZM503.891 160.576C504.625 160.576 505.252 160.431 505.773 160.141C506.3 159.851 506.699 159.473 506.971 159.005C507.249 158.532 507.389 158.026 507.389 157.487V155.729C507.294 155.824 507.11 155.913 506.838 155.995C506.572 156.072 506.267 156.14 505.924 156.2C505.58 156.253 505.246 156.303 504.921 156.351C504.595 156.392 504.323 156.428 504.104 156.457C503.589 156.522 503.118 156.632 502.692 156.786C502.272 156.939 501.935 157.161 501.68 157.451C501.432 157.736 501.307 158.114 501.307 158.588C501.307 159.245 501.55 159.742 502.035 160.079C502.521 160.411 503.139 160.576 503.891 160.576ZM521.873 167.519C521.476 167.519 521.115 167.486 520.79 167.421C520.464 167.362 520.221 167.297 520.062 167.226L520.701 165.051C521.186 165.181 521.618 165.237 521.997 165.22C522.376 165.202 522.71 165.06 523 164.793C523.296 164.527 523.557 164.092 523.781 163.488L524.11 162.583L519.121 148.769H521.962L525.415 159.351H525.557L529.011 148.769H531.86L526.241 164.225C525.98 164.935 525.649 165.536 525.246 166.027C524.844 166.525 524.364 166.897 523.808 167.146C523.252 167.395 522.607 167.519 521.873 167.519ZM418.157 182.098L415.751 182.524C415.651 182.216 415.491 181.924 415.272 181.645C415.059 181.367 414.769 181.139 414.402 180.962C414.035 180.784 413.576 180.695 413.026 180.695C412.274 180.695 411.647 180.864 411.144 181.201C410.641 181.533 410.389 181.962 410.389 182.489C410.389 182.944 410.558 183.311 410.895 183.59C411.233 183.868 411.777 184.096 412.529 184.273L414.695 184.77C415.95 185.06 416.885 185.507 417.5 186.111C418.116 186.715 418.424 187.499 418.424 188.464C418.424 189.28 418.187 190.008 417.713 190.647C417.246 191.281 416.592 191.778 415.751 192.139C414.917 192.5 413.949 192.68 412.848 192.68C411.321 192.68 410.076 192.355 409.111 191.704C408.146 191.047 407.554 190.115 407.335 188.907L409.901 188.517C410.061 189.186 410.389 189.692 410.886 190.035C411.384 190.372 412.032 190.541 412.831 190.541C413.701 190.541 414.396 190.36 414.917 189.999C415.438 189.632 415.698 189.186 415.698 188.659C415.698 188.233 415.538 187.875 415.219 187.585C414.905 187.295 414.423 187.076 413.772 186.928L411.463 186.422C410.191 186.132 409.25 185.67 408.64 185.037C408.037 184.403 407.735 183.601 407.735 182.631C407.735 181.826 407.96 181.122 408.41 180.518C408.859 179.914 409.481 179.444 410.274 179.106C411.067 178.763 411.975 178.591 412.999 178.591C414.473 178.591 415.633 178.911 416.479 179.55C417.326 180.183 417.885 181.033 418.157 182.098ZM421.342 192.405V178.769H423.997V192.405H421.342ZM422.683 176.665C422.221 176.665 421.825 176.511 421.493 176.203C421.168 175.89 421.005 175.517 421.005 175.085C421.005 174.647 421.168 174.274 421.493 173.966C421.825 173.652 422.221 173.495 422.683 173.495C423.145 173.495 423.538 173.652 423.864 173.966C424.195 174.274 424.361 174.647 424.361 175.085C424.361 175.517 424.195 175.89 423.864 176.203C423.538 176.511 423.145 176.665 422.683 176.665ZM433.445 192.68C432.102 192.68 430.944 192.393 429.974 191.819C429.009 191.239 428.263 190.426 427.737 189.378C427.216 188.324 426.955 187.09 426.955 185.676C426.955 184.279 427.216 183.048 427.737 181.983C428.263 180.917 428.997 180.086 429.938 179.488C430.885 178.89 431.992 178.591 433.259 178.591C434.028 178.591 434.774 178.719 435.496 178.973C436.218 179.228 436.866 179.627 437.44 180.172C438.014 180.716 438.467 181.423 438.798 182.293C439.13 183.158 439.296 184.208 439.296 185.445V186.386H428.456V184.397H436.694C436.694 183.699 436.552 183.081 436.268 182.542C435.984 181.997 435.585 181.568 435.07 181.255C434.561 180.941 433.963 180.784 433.276 180.784C432.531 180.784 431.88 180.968 431.323 181.335C430.773 181.696 430.347 182.169 430.045 182.755C429.749 183.335 429.601 183.965 429.601 184.646V186.2C429.601 187.111 429.761 187.886 430.08 188.526C430.406 189.165 430.859 189.653 431.439 189.991C432.019 190.322 432.696 190.488 433.472 190.488C433.975 190.488 434.433 190.417 434.848 190.275C435.262 190.127 435.62 189.908 435.922 189.618C436.224 189.328 436.455 188.97 436.614 188.543L439.127 188.996C438.926 189.736 438.565 190.384 438.044 190.94C437.529 191.491 436.881 191.92 436.099 192.228C435.324 192.53 434.439 192.68 433.445 192.68ZM442.241 192.405V178.769H444.789V180.988H444.957C445.241 180.237 445.706 179.651 446.351 179.231C446.996 178.804 447.769 178.591 448.668 178.591C449.58 178.591 450.343 178.804 450.959 179.231C451.58 179.657 452.039 180.243 452.335 180.988H452.477C452.802 180.26 453.32 179.68 454.031 179.248C454.741 178.81 455.587 178.591 456.57 178.591C457.807 178.591 458.816 178.979 459.597 179.754C460.384 180.53 460.778 181.699 460.778 183.261V192.405H458.123V183.51C458.123 182.586 457.872 181.918 457.369 181.503C456.866 181.089 456.265 180.882 455.566 180.882C454.702 180.882 454.031 181.148 453.551 181.681C453.072 182.208 452.832 182.885 452.832 183.714V192.405H450.186V183.341C450.186 182.601 449.956 182.006 449.494 181.557C449.032 181.107 448.432 180.882 447.692 180.882C447.189 180.882 446.724 181.015 446.298 181.281C445.878 181.542 445.537 181.906 445.277 182.373C445.022 182.841 444.895 183.382 444.895 183.998V192.405H442.241ZM464.335 197.519V178.769H466.928V180.979H467.15C467.304 180.695 467.526 180.367 467.816 179.994C468.106 179.621 468.508 179.296 469.023 179.017C469.538 178.733 470.219 178.591 471.065 178.591C472.166 178.591 473.148 178.87 474.012 179.426C474.876 179.982 475.554 180.784 476.045 181.832C476.543 182.879 476.791 184.14 476.791 185.614C476.791 187.087 476.545 188.351 476.054 189.405C475.563 190.452 474.888 191.26 474.03 191.828C473.172 192.39 472.192 192.672 471.092 192.672C470.263 192.672 469.585 192.533 469.058 192.254C468.538 191.976 468.129 191.651 467.833 191.278C467.537 190.905 467.31 190.573 467.15 190.283H466.99V197.519H464.335ZM466.937 185.587C466.937 186.546 467.076 187.386 467.354 188.108C467.632 188.83 468.035 189.396 468.561 189.804C469.088 190.207 469.733 190.408 470.497 190.408C471.29 190.408 471.953 190.198 472.485 189.777C473.018 189.351 473.42 188.774 473.693 188.046C473.971 187.318 474.11 186.499 474.11 185.587C474.11 184.687 473.974 183.88 473.702 183.163C473.435 182.447 473.033 181.882 472.494 181.468C471.962 181.053 471.296 180.846 470.497 180.846C469.727 180.846 469.076 181.045 468.544 181.441C468.017 181.838 467.617 182.391 467.345 183.101C467.073 183.812 466.937 184.64 466.937 185.587ZM479.765 192.405V178.769H482.331V180.935H482.473C482.721 180.201 483.159 179.624 483.787 179.204C484.42 178.778 485.136 178.565 485.935 178.565C486.101 178.565 486.296 178.571 486.521 178.582C486.752 178.594 486.933 178.609 487.063 178.627V181.166C486.956 181.136 486.767 181.104 486.495 181.068C486.222 181.027 485.95 181.006 485.678 181.006C485.05 181.006 484.491 181.139 484 181.406C483.515 181.666 483.13 182.03 482.846 182.498C482.562 182.959 482.42 183.486 482.42 184.078V192.405H479.765ZM494.749 192.68C493.405 192.68 492.248 192.393 491.277 191.819C490.313 191.239 489.567 190.426 489.04 189.378C488.519 188.324 488.259 187.09 488.259 185.676C488.259 184.279 488.519 183.048 489.04 181.983C489.567 180.917 490.301 180.086 491.242 179.488C492.189 178.89 493.296 178.591 494.562 178.591C495.332 178.591 496.077 178.719 496.8 178.973C497.522 179.228 498.17 179.627 498.744 180.172C499.318 180.716 499.771 181.423 500.102 182.293C500.434 183.158 500.599 184.208 500.599 185.445V186.386H489.759V184.397H497.998C497.998 183.699 497.856 183.081 497.572 182.542C497.288 181.997 496.888 181.568 496.373 181.255C495.864 180.941 495.267 180.784 494.58 180.784C493.834 180.784 493.183 180.968 492.627 181.335C492.077 181.696 491.65 182.169 491.349 182.755C491.053 183.335 490.905 183.965 490.905 184.646V186.2C490.905 187.111 491.064 187.886 491.384 188.526C491.71 189.165 492.162 189.653 492.742 189.991C493.322 190.322 494 190.488 494.775 190.488C495.278 190.488 495.737 190.417 496.151 190.275C496.566 190.127 496.924 189.908 497.226 189.618C497.527 189.328 497.758 188.97 497.918 188.543L500.431 188.996C500.229 189.736 499.868 190.384 499.347 190.94C498.833 191.491 498.184 191.92 497.403 192.228C496.628 192.53 495.743 192.68 494.749 192.68ZM514.129 192.707C513.265 192.707 512.484 192.547 511.785 192.228C511.087 191.902 510.534 191.432 510.125 190.816C509.723 190.201 509.521 189.446 509.521 188.552C509.521 187.783 509.669 187.15 509.965 186.652C510.261 186.155 510.661 185.762 511.164 185.472C511.667 185.182 512.229 184.963 512.851 184.815C513.472 184.667 514.105 184.554 514.751 184.477C515.567 184.383 516.23 184.306 516.739 184.247C517.248 184.181 517.618 184.078 517.849 183.936C518.08 183.794 518.195 183.563 518.195 183.243V183.181C518.195 182.406 517.976 181.805 517.538 181.379C517.106 180.953 516.461 180.74 515.603 180.74C514.709 180.74 514.005 180.938 513.49 181.335C512.981 181.725 512.629 182.16 512.433 182.64L509.939 182.071C510.235 181.243 510.667 180.574 511.235 180.065C511.809 179.55 512.469 179.177 513.215 178.946C513.96 178.71 514.745 178.591 515.567 178.591C516.112 178.591 516.689 178.656 517.298 178.787C517.914 178.911 518.488 179.142 519.021 179.479C519.559 179.816 520 180.299 520.344 180.926C520.687 181.548 520.858 182.356 520.858 183.35V192.405H518.266V190.541H518.16C517.988 190.884 517.731 191.222 517.387 191.553C517.044 191.884 516.603 192.16 516.064 192.379C515.526 192.598 514.881 192.707 514.129 192.707ZM514.706 190.576C515.44 190.576 516.067 190.431 516.588 190.141C517.115 189.851 517.514 189.473 517.787 189.005C518.065 188.532 518.204 188.026 518.204 187.487V185.729C518.109 185.824 517.926 185.913 517.654 185.995C517.387 186.072 517.082 186.14 516.739 186.2C516.396 186.253 516.061 186.303 515.736 186.351C515.41 186.392 515.138 186.428 514.919 186.457C514.404 186.522 513.934 186.632 513.508 186.786C513.087 186.939 512.75 187.161 512.496 187.451C512.247 187.736 512.123 188.114 512.123 188.588C512.123 189.245 512.365 189.742 512.851 190.079C513.336 190.411 513.954 190.576 514.706 190.576ZM533.665 174.223V192.405H531.01V174.223H533.665ZM541.204 192.707C540.34 192.707 539.559 192.547 538.861 192.228C538.162 191.902 537.609 191.432 537.2 190.816C536.798 190.201 536.597 189.446 536.597 188.552C536.597 187.783 536.745 187.15 537.041 186.652C537.336 186.155 537.736 185.762 538.239 185.472C538.742 185.182 539.304 184.963 539.926 184.815C540.547 184.667 541.181 184.554 541.826 184.477C542.642 184.383 543.305 184.306 543.814 184.247C544.323 184.181 544.693 184.078 544.924 183.936C545.155 183.794 545.27 183.563 545.27 183.243V183.181C545.27 182.406 545.051 181.805 544.613 181.379C544.181 180.953 543.536 180.74 542.678 180.74C541.784 180.74 541.08 180.938 540.565 181.335C540.056 181.725 539.704 182.16 539.509 182.64L537.014 182.071C537.31 181.243 537.742 180.574 538.31 180.065C538.884 179.55 539.544 179.177 540.29 178.946C541.036 178.71 541.82 178.591 542.642 178.591C543.187 178.591 543.764 178.656 544.374 178.787C544.989 178.911 545.563 179.142 546.096 179.479C546.635 179.816 547.075 180.299 547.419 180.926C547.762 181.548 547.934 182.356 547.934 183.35V192.405H545.341V190.541H545.235C545.063 190.884 544.806 191.222 544.462 191.553C544.119 191.884 543.678 192.16 543.14 192.379C542.601 192.598 541.956 192.707 541.204 192.707ZM541.781 190.576C542.515 190.576 543.143 190.431 543.663 190.141C544.19 189.851 544.59 189.473 544.862 189.005C545.14 188.532 545.279 188.026 545.279 187.487V185.729C545.184 185.824 545.001 185.913 544.729 185.995C544.462 186.072 544.158 186.14 543.814 186.2C543.471 186.253 543.137 186.303 542.811 186.351C542.486 186.392 542.213 186.428 541.994 186.457C541.479 186.522 541.009 186.632 540.583 186.786C540.163 186.939 539.825 187.161 539.571 187.451C539.322 187.736 539.198 188.114 539.198 188.588C539.198 189.245 539.441 189.742 539.926 190.079C540.411 190.411 541.03 190.576 541.781 190.576ZM427.905 208.769L422.96 222.405H420.119L415.166 208.769H418.015L421.469 219.263H421.611L425.055 208.769H427.905ZM433.978 222.707C433.114 222.707 432.332 222.547 431.634 222.228C430.936 221.902 430.382 221.432 429.974 220.816C429.571 220.201 429.37 219.446 429.37 218.552C429.37 217.783 429.518 217.15 429.814 216.652C430.11 216.155 430.509 215.762 431.012 215.472C431.516 215.182 432.078 214.963 432.699 214.815C433.321 214.667 433.954 214.554 434.599 214.477C435.416 214.383 436.079 214.306 436.588 214.247C437.097 214.181 437.467 214.078 437.698 213.936C437.928 213.794 438.044 213.563 438.044 213.243V213.181C438.044 212.406 437.825 211.805 437.387 211.379C436.955 210.953 436.31 210.74 435.451 210.74C434.558 210.74 433.853 210.938 433.338 211.335C432.829 211.725 432.477 212.16 432.282 212.64L429.787 212.071C430.083 211.243 430.515 210.574 431.084 210.065C431.658 209.55 432.318 209.177 433.063 208.946C433.809 208.71 434.593 208.591 435.416 208.591C435.96 208.591 436.537 208.656 437.147 208.787C437.763 208.911 438.337 209.142 438.869 209.479C439.408 209.816 439.849 210.299 440.192 210.926C440.535 211.548 440.707 212.356 440.707 213.35V222.405H438.115V220.541H438.008C437.837 220.884 437.579 221.222 437.236 221.553C436.893 221.884 436.452 222.16 435.913 222.379C435.374 222.598 434.729 222.707 433.978 222.707ZM434.555 220.576C435.289 220.576 435.916 220.431 436.437 220.141C436.964 219.851 437.363 219.473 437.635 219.005C437.914 218.532 438.053 218.026 438.053 217.487V215.729C437.958 215.824 437.774 215.913 437.502 215.995C437.236 216.072 436.931 216.14 436.588 216.2C436.245 216.253 435.91 216.303 435.585 216.351C435.259 216.392 434.987 216.428 434.768 216.457C434.253 216.522 433.782 216.632 433.356 216.786C432.936 216.939 432.599 217.161 432.344 217.451C432.096 217.736 431.971 218.114 431.971 218.588C431.971 219.245 432.214 219.742 432.699 220.079C433.185 220.411 433.803 220.576 434.555 220.576ZM446.897 214.309V222.405H444.243V208.769H446.791V210.988H446.959C447.273 210.266 447.764 209.686 448.433 209.248C449.108 208.81 449.957 208.591 450.981 208.591C451.91 208.591 452.724 208.787 453.422 209.177C454.121 209.562 454.662 210.136 455.047 210.9C455.432 211.663 455.624 212.607 455.624 213.732V222.405H452.97V214.051C452.97 213.063 452.712 212.29 452.197 211.734C451.682 211.172 450.975 210.891 450.075 210.891C449.46 210.891 448.912 211.024 448.433 211.29C447.96 211.557 447.584 211.947 447.306 212.462C447.033 212.971 446.897 213.587 446.897 214.309ZM464.901 227.803C463.818 227.803 462.886 227.661 462.105 227.377C461.33 227.093 460.696 226.717 460.205 226.249C459.714 225.782 459.347 225.27 459.104 224.714L461.386 223.772C461.546 224.033 461.759 224.308 462.025 224.598C462.297 224.894 462.664 225.146 463.126 225.353C463.593 225.56 464.194 225.663 464.928 225.663C465.934 225.663 466.766 225.418 467.423 224.927C468.08 224.441 468.408 223.666 468.408 222.601V219.919H468.24C468.08 220.209 467.849 220.532 467.547 220.887C467.251 221.242 466.843 221.55 466.322 221.81C465.801 222.071 465.123 222.201 464.289 222.201C463.212 222.201 462.241 221.95 461.377 221.446C460.519 220.937 459.838 220.189 459.335 219.2C458.838 218.206 458.589 216.984 458.589 215.534C458.589 214.084 458.835 212.841 459.326 211.805C459.823 210.769 460.504 209.976 461.368 209.426C462.232 208.87 463.212 208.591 464.307 208.591C465.153 208.591 465.837 208.733 466.357 209.017C466.878 209.296 467.284 209.621 467.574 209.994C467.87 210.367 468.097 210.695 468.257 210.979H468.453V208.769H471.054V222.707C471.054 223.879 470.782 224.841 470.237 225.592C469.693 226.344 468.956 226.9 468.026 227.261C467.103 227.622 466.061 227.803 464.901 227.803ZM464.875 219.999C465.638 219.999 466.283 219.822 466.81 219.467C467.343 219.106 467.745 218.591 468.018 217.922C468.296 217.247 468.435 216.439 468.435 215.498C468.435 214.581 468.299 213.773 468.026 213.075C467.754 212.376 467.355 211.832 466.828 211.441C466.301 211.045 465.65 210.846 464.875 210.846C464.076 210.846 463.41 211.053 462.877 211.468C462.345 211.876 461.942 212.432 461.67 213.137C461.404 213.841 461.27 214.628 461.27 215.498C461.27 216.392 461.407 217.176 461.679 217.851C461.951 218.526 462.353 219.052 462.886 219.431C463.425 219.81 464.088 219.999 464.875 219.999ZM483.252 216.75V208.769H485.915V222.405H483.305V220.044H483.163C482.849 220.772 482.346 221.378 481.654 221.864C480.967 222.343 480.112 222.583 479.088 222.583C478.212 222.583 477.437 222.39 476.762 222.006C476.093 221.615 475.567 221.038 475.182 220.275C474.803 219.511 474.614 218.567 474.614 217.443V208.769H477.268V217.123C477.268 218.052 477.526 218.792 478.041 219.342C478.556 219.893 479.224 220.168 480.047 220.168C480.544 220.168 481.038 220.044 481.53 219.795C482.027 219.547 482.438 219.171 482.764 218.668C483.095 218.165 483.258 217.525 483.252 216.75ZM493.45 222.707C492.586 222.707 491.805 222.547 491.107 222.228C490.408 221.902 489.855 221.432 489.446 220.816C489.044 220.201 488.843 219.446 488.843 218.552C488.843 217.783 488.991 217.15 489.287 216.652C489.583 216.155 489.982 215.762 490.485 215.472C490.988 215.182 491.55 214.963 492.172 214.815C492.793 214.667 493.427 214.554 494.072 214.477C494.889 214.383 495.551 214.306 496.06 214.247C496.569 214.181 496.939 214.078 497.17 213.936C497.401 213.794 497.516 213.563 497.516 213.243V213.181C497.516 212.406 497.297 211.805 496.859 211.379C496.427 210.953 495.782 210.74 494.924 210.74C494.03 210.74 493.326 210.938 492.811 211.335C492.302 211.725 491.95 212.16 491.755 212.64L489.26 212.071C489.556 211.243 489.988 210.574 490.556 210.065C491.13 209.55 491.79 209.177 492.536 208.946C493.282 208.71 494.066 208.591 494.889 208.591C495.433 208.591 496.01 208.656 496.62 208.787C497.235 208.911 497.809 209.142 498.342 209.479C498.881 209.816 499.322 210.299 499.665 210.926C500.008 211.548 500.18 212.356 500.18 213.35V222.405H497.587V220.541H497.481C497.309 220.884 497.052 221.222 496.709 221.553C496.365 221.884 495.924 222.16 495.386 222.379C494.847 222.598 494.202 222.707 493.45 222.707ZM494.027 220.576C494.761 220.576 495.389 220.431 495.91 220.141C496.436 219.851 496.836 219.473 497.108 219.005C497.386 218.532 497.525 218.026 497.525 217.487V215.729C497.431 215.824 497.247 215.913 496.975 215.995C496.709 216.072 496.404 216.14 496.06 216.2C495.717 216.253 495.383 216.303 495.057 216.351C494.732 216.392 494.459 216.428 494.24 216.457C493.726 216.522 493.255 216.632 492.829 216.786C492.409 216.939 492.071 217.161 491.817 217.451C491.568 217.736 491.444 218.114 491.444 218.588C491.444 219.245 491.687 219.742 492.172 220.079C492.657 220.411 493.276 220.576 494.027 220.576ZM503.715 222.405V208.769H506.281V210.935H506.423C506.672 210.201 507.11 209.624 507.737 209.204C508.37 208.778 509.086 208.565 509.885 208.565C510.051 208.565 510.246 208.571 510.471 208.582C510.702 208.594 510.883 208.609 511.013 208.627V211.166C510.906 211.136 510.717 211.104 510.445 211.068C510.173 211.027 509.9 211.006 509.628 211.006C509.001 211.006 508.441 211.139 507.95 211.406C507.465 211.666 507.08 212.03 506.796 212.498C506.512 212.959 506.37 213.486 506.37 214.078V222.405H503.715ZM517.927 222.672C516.826 222.672 515.843 222.39 514.979 221.828C514.121 221.26 513.446 220.452 512.955 219.405C512.47 218.351 512.227 217.087 512.227 215.614C512.227 214.14 512.473 212.879 512.964 211.832C513.461 210.784 514.142 209.982 515.006 209.426C515.87 208.87 516.849 208.591 517.944 208.591C518.791 208.591 519.471 208.733 519.986 209.017C520.507 209.296 520.91 209.621 521.194 209.994C521.484 210.367 521.709 210.695 521.868 210.979H522.028V204.223H524.683V222.405H522.09V220.283H521.868C521.709 220.573 521.478 220.905 521.176 221.278C520.88 221.651 520.472 221.976 519.951 222.254C519.43 222.533 518.755 222.672 517.927 222.672ZM518.512 220.408C519.276 220.408 519.921 220.207 520.448 219.804C520.981 219.396 521.383 218.83 521.655 218.108C521.933 217.386 522.073 216.546 522.073 215.587C522.073 214.64 521.936 213.812 521.664 213.101C521.392 212.391 520.992 211.838 520.466 211.441C519.939 211.045 519.288 210.846 518.512 210.846C517.713 210.846 517.048 211.053 516.515 211.468C515.982 211.882 515.58 212.447 515.308 213.163C515.041 213.88 514.908 214.687 514.908 215.587C514.908 216.499 515.044 217.318 515.316 218.046C515.589 218.774 515.991 219.351 516.524 219.777C517.062 220.198 517.725 220.408 518.512 220.408ZM532.44 222.707C531.575 222.707 530.794 222.547 530.096 222.228C529.397 221.902 528.844 221.432 528.436 220.816C528.033 220.201 527.832 219.446 527.832 218.552C527.832 217.783 527.98 217.15 528.276 216.652C528.572 216.155 528.971 215.762 529.474 215.472C529.977 215.182 530.54 214.963 531.161 214.815C531.783 214.667 532.416 214.554 533.061 214.477C533.878 214.383 534.541 214.306 535.05 214.247C535.559 214.181 535.929 214.078 536.159 213.936C536.39 213.794 536.506 213.563 536.506 213.243V213.181C536.506 212.406 536.287 211.805 535.849 211.379C535.417 210.953 534.772 210.74 533.913 210.74C533.02 210.74 532.315 210.938 531.8 211.335C531.291 211.725 530.939 212.16 530.744 212.64L528.249 212.071C528.545 211.243 528.977 210.574 529.545 210.065C530.12 209.55 530.779 209.177 531.525 208.946C532.271 208.71 533.055 208.591 533.878 208.591C534.422 208.591 534.999 208.656 535.609 208.787C536.225 208.911 536.799 209.142 537.331 209.479C537.87 209.816 538.311 210.299 538.654 210.926C538.997 211.548 539.169 212.356 539.169 213.35V222.405H536.577V220.541H536.47C536.299 220.884 536.041 221.222 535.698 221.553C535.354 221.884 534.914 222.16 534.375 222.379C533.836 222.598 533.191 222.707 532.44 222.707ZM533.017 220.576C533.751 220.576 534.378 220.431 534.899 220.141C535.426 219.851 535.825 219.473 536.097 219.005C536.375 218.532 536.515 218.026 536.515 217.487V215.729C536.42 215.824 536.236 215.913 535.964 215.995C535.698 216.072 535.393 216.14 535.05 216.2C534.706 216.253 534.372 216.303 534.046 216.351C533.721 216.392 533.449 216.428 533.23 216.457C532.715 216.522 532.244 216.632 531.818 216.786C531.398 216.939 531.061 217.161 530.806 217.451C530.558 217.736 530.433 218.114 530.433 218.588C530.433 219.245 530.676 219.742 531.161 220.079C531.647 220.411 532.265 220.576 533.017 220.576ZM544.454 222.574C543.968 222.574 543.551 222.402 543.202 222.059C542.853 221.71 542.678 221.29 542.678 220.798C542.678 220.313 542.853 219.899 543.202 219.555C543.551 219.206 543.968 219.032 544.454 219.032C544.939 219.032 545.356 219.206 545.705 219.555C546.055 219.899 546.229 220.313 546.229 220.798C546.229 221.124 546.146 221.423 545.981 221.695C545.821 221.961 545.608 222.174 545.341 222.334C545.075 222.494 544.779 222.574 544.454 222.574Z" fill="#0E95C1"/>
<g filter="url(#filter3_d_167_40)">
<path d="M23.7278 178.905C56.2278 375.405 294.228 368.405 327.728 177.905" stroke="#244464" stroke-width="40"/>
</g>
<g filter="url(#filter4_d_167_40)">
<path d="M327.728 179.905C338.401 -17.8433 600.099 -46.1938 634.728 177.906" stroke="#0E95C1" stroke-width="40"/>
</g>
<path d="M43.5073 176.438C42.8968 172.776 40.2461 169.608 36.1382 167.631C32.0303 165.654 26.8018 165.03 21.6028 165.896C16.4038 166.763 11.6603 169.049 8.41568 172.251C5.1711 175.454 3.69126 179.311 4.30171 182.973L23.9045 179.706L43.5073 176.438Z" fill="#244464"/>
<ellipse cx="327.728" cy="176.405" rx="20.5" ry="20" fill="#172C40"/>
<g filter="url(#filter5_d_167_40)">
<path d="M635.138 178.799C667.638 375.299 905.638 368.299 939.138 177.799" stroke="#244464" stroke-width="40"/>
<path d="M958.682 181.511C959.023 179.659 958.829 177.727 958.111 175.832C957.393 173.937 956.165 172.117 954.501 170.482C952.838 168.847 950.772 167.429 948.428 166.315C946.085 165.2 943.511 164.411 940.862 163.995C938.212 163.58 935.541 163.545 933.009 163.895C930.477 164.244 928.135 164.969 926.125 166.028C924.114 167.087 922.475 168.456 921.307 170.055C920.138 171.654 919.464 173.45 919.325 175.334L939.072 177.891L958.682 181.511Z" fill="#244464"/>
<circle cx="635.228" cy="178.405" r="20" fill="#172C40"/>
</g>
<defs>
<filter id="filter0_d_167_40" x="35.2278" y="33.4053" width="279" height="279" filterUnits="userSpaceOnUse" color-interpolation-filters="sRGB">
<feFlood flood-opacity="0" result="BackgroundImageFix"/>
<feColorMatrix in="SourceAlpha" type="matrix" values="0 0 0 0 0 0 0 0 0 0 0 0 0 0 0 0 0 0 127 0" result="hardAlpha"/>
<feOffset dy="4"/>
<feGaussianBlur stdDeviation="15"/>
<feComposite in2="hardAlpha" operator="out"/>
<feColorMatrix type="matrix" values="0 0 0 0 0 0 0 0 0 0 0 0 0 0 0 0 0 0 0.5 0"/>
<feBlend mode="normal" in2="BackgroundImageFix" result="effect1_dropShadow_167_40"/>
<feBlend mode="normal" in="SourceGraphic" in2="effect1_dropShadow_167_40" result="shape"/>
</filter>
<filter id="filter1_d_167_40" x="342.228" y="33.4053" width="279" height="279" filterUnits="userSpaceOnUse" color-interpolation-filters="sRGB">
<feFlood flood-opacity="0" result="BackgroundImageFix"/>
<feColorMatrix in="SourceAlpha" type="matrix" values="0 0 0 0 0 0 0 0 0 0 0 0 0 0 0 0 0 0 127 0" result="hardAlpha"/>
<feOffset dy="4"/>
<feGaussianBlur stdDeviation="15"/>
<feComposite in2="hardAlpha" operator="out"/>
<feColorMatrix type="matrix" values="0 0 0 0 0 0 0 0 0 0 0 0 0 0 0 0 0 0 0.5 0"/>
<feBlend mode="normal" in2="BackgroundImageFix" result="effect1_dropShadow_167_40"/>
<feBlend mode="normal" in="SourceGraphic" in2="effect1_dropShadow_167_40" result="shape"/>
</filter>
<filter id="filter2_d_167_40" x="649.228" y="33.4053" width="279" height="279" filterUnits="userSpaceOnUse" color-interpolation-filters="sRGB">
<feFlood flood-opacity="0" result="BackgroundImageFix"/>
<feColorMatrix in="SourceAlpha" type="matrix" values="0 0 0 0 0 0 0 0 0 0 0 0 0 0 0 0 0 0 127 0" result="hardAlpha"/>
<feOffset dy="4"/>
<feGaussianBlur stdDeviation="15"/>
<feComposite in2="hardAlpha" operator="out"/>
<feColorMatrix type="matrix" values="0 0 0 0 0 0 0 0 0 0 0 0 0 0 0 0 0 0 0.5 0"/>
<feBlend mode="normal" in2="BackgroundImageFix" result="effect1_dropShadow_167_40"/>
<feBlend mode="normal" in="SourceGraphic" in2="effect1_dropShadow_167_40" result="shape"/>
</filter>
<filter id="filter3_d_167_40" x="-0.00415039" y="174.441" width="351.43" height="177.104" filterUnits="userSpaceOnUse" color-interpolation-filters="sRGB">
<feFlood flood-opacity="0" result="BackgroundImageFix"/>
<feColorMatrix in="SourceAlpha" type="matrix" values="0 0 0 0 0 0 0 0 0 0 0 0 0 0 0 0 0 0 127 0" result="hardAlpha"/>
<feOffset dy="4"/>
<feGaussianBlur stdDeviation="2"/>
<feComposite in2="hardAlpha" operator="out"/>
<feColorMatrix type="matrix" values="0 0 0 0 0 0 0 0 0 0 0 0 0 0 0 0 0 0 0.5 0"/>
<feBlend mode="normal" in2="BackgroundImageFix" result="effect1_dropShadow_167_40"/>
<feBlend mode="normal" in="SourceGraphic" in2="effect1_dropShadow_167_40" result="shape"/>
</filter>
<filter id="filter4_d_167_40" x="303.757" y="0.505859" width="354.736" height="188.478" filterUnits="userSpaceOnUse" color-interpolation-filters="sRGB">
<feFlood flood-opacity="0" result="BackgroundImageFix"/>
<feColorMatrix in="SourceAlpha" type="matrix" values="0 0 0 0 0 0 0 0 0 0 0 0 0 0 0 0 0 0 127 0" result="hardAlpha"/>
<feOffset dy="4"/>
<feGaussianBlur stdDeviation="2"/>
<feComposite in2="hardAlpha" operator="out"/>
<feColorMatrix type="matrix" values="0 0 0 0 0 0 0 0 0 0 0 0 0 0 0 0 0 0 0.5 0"/>
<feBlend mode="normal" in2="BackgroundImageFix" result="effect1_dropShadow_167_40"/>
<feBlend mode="normal" in="SourceGraphic" in2="effect1_dropShadow_167_40" result="shape"/>
</filter>
<filter id="filter5_d_167_40" x="611.228" y="158.405" width="351.618" height="193.034" filterUnits="userSpaceOnUse" color-interpolation-filters="sRGB">
<feFlood flood-opacity="0" result="BackgroundImageFix"/>
<feColorMatrix in="SourceAlpha" type="matrix" values="0 0 0 0 0 0 0 0 0 0 0 0 0 0 0 0 0 0 127 0" result="hardAlpha"/>
<feOffset dy="4"/>
<feGaussianBlur stdDeviation="2"/>
<feComposite in2="hardAlpha" operator="out"/>
<feColorMatrix type="matrix" values="0 0 0 0 0 0 0 0 0 0 0 0 0 0 0 0 0 0 0.5 0"/>
<feBlend mode="normal" in2="BackgroundImageFix" result="effect1_dropShadow_167_40"/>
<feBlend mode="normal" in="SourceGraphic" in2="effect1_dropShadow_167_40" result="shape"/>
</filter>
</defs>
</svg>
